<ttFont>
    <TTGlyph name=".notdef" xMin="102" yMin="0" xMax="922" yMax="1462">
      <contour>
        <pt x="102" y="0" on="1"/>
        <pt x="102" y="1462" on="1"/>
        <pt x="922" y="1462" on="1"/>
        <pt x="922" y="0" on="1"/>
      </contour>
      <contour>
        <pt x="201" y="98" on="1"/>
        <pt x="823" y="98" on="1"/>
        <pt x="823" y="1364" on="1"/>
        <pt x="201" y="1364" on="1"/>
      </contour>
    </TTGlyph>
    <TTGlyph name="A" xMin="0" yMin="0" xMax="1444" yMax="1462">
      <contour>
        <pt x="414" y="489" on="1"/>
        <pt x="336" y="274" on="1"/>
        <pt x="327" y="250" on="0"/>
        <pt x="317" y="203" on="0"/>
        <pt x="317" y="186" on="1"/>
        <pt x="317" y="134" on="0"/>
        <pt x="384" y="86" on="0"/>
        <pt x="453" y="86" on="1"/>
        <pt x="500" y="86" on="1"/>
        <pt x="500" y="0" on="1"/>
        <pt x="0" y="0" on="1"/>
        <pt x="0" y="86" on="1"/>
        <pt x="39" y="86" on="1"/>
        <pt x="69" y="86" on="0"/>
        <pt x="111" y="99" on="0"/>
        <pt x="145" y="135" on="0"/>
        <pt x="176" y="197" on="0"/>
        <pt x="195" y="246" on="1"/>
        <pt x="649" y="1462" on="1"/>
        <pt x="809" y="1462" on="1"/>
        <pt x="1272" y="195" on="1"/>
        <pt x="1284" y="163" on="0"/>
        <pt x="1309" y="121" on="0"/>
        <pt x="1343" y="96" on="0"/>
        <pt x="1387" y="86" on="0"/>
        <pt x="1417" y="86" on="1"/>
        <pt x="1444" y="86" on="1"/>
        <pt x="1444" y="0" on="1"/>
        <pt x="881" y="0" on="1"/>
        <pt x="881" y="86" on="1"/>
        <pt x="928" y="86" on="1"/>
        <pt x="1051" y="86" on="0"/>
        <pt x="1051" y="184" on="1"/>
        <pt x="1051" y="201" on="0"/>
        <pt x="1042" y="237" on="0"/>
        <pt x="1034" y="260" on="1"/>
        <pt x="952" y="489" on="1"/>
      </contour>
      <contour>
        <pt x="788" y="950" on="1"/>
        <pt x="756" y="1041" on="0"/>
        <pt x="703" y="1200" on="0"/>
        <pt x="686" y="1274" on="1"/>
        <pt x="679" y="1237" on="0"/>
        <pt x="660" y="1168" on="0"/>
        <pt x="638" y="1096" on="0"/>
        <pt x="610" y="1017" on="0"/>
        <pt x="592" y="969" on="1"/>
        <pt x="453" y="592" on="1"/>
        <pt x="915" y="592" on="1"/>
      </contour>
    </TTGlyph>
    <TTGlyph name="AE" xMin="0" yMin="0" xMax="1862" yMax="1462">
      <contour>
        <pt x="1151" y="102" on="1"/>
        <pt x="1546" y="102" on="1"/>
        <pt x="1594" y="102" on="0"/>
        <pt x="1663" y="129" on="0"/>
        <pt x="1709" y="175" on="0"/>
        <pt x="1735" y="236" on="0"/>
        <pt x="1741" y="270" on="1"/>
        <pt x="1755" y="358" on="1"/>
        <pt x="1862" y="358" on="1"/>
        <pt x="1847" y="0" on="1"/>
        <pt x="750" y="0" on="1"/>
        <pt x="750" y="86" on="1"/>
        <pt x="776" y="86" on="1"/>
        <pt x="810" y="86" on="0"/>
        <pt x="870" y="95" on="0"/>
        <pt x="915" y="123" on="0"/>
        <pt x="943" y="178" on="0"/>
        <pt x="944" y="223" on="1"/>
        <pt x="944" y="489" on="1"/>
        <pt x="473" y="489" on="1"/>
        <pt x="360" y="274" on="1"/>
        <pt x="343" y="242" on="0"/>
        <pt x="328" y="184" on="0"/>
        <pt x="328" y="166" on="1"/>
        <pt x="328" y="124" on="0"/>
        <pt x="391" y="86" on="0"/>
        <pt x="451" y="86" on="1"/>
        <pt x="498" y="86" on="1"/>
        <pt x="498" y="0" on="1"/>
        <pt x="0" y="0" on="1"/>
        <pt x="0" y="86" on="1"/>
        <pt x="33" y="86" on="1"/>
        <pt x="87" y="86" on="0"/>
        <pt x="172" y="162" on="0"/>
        <pt x="215" y="246" on="1"/>
        <pt x="807" y="1366" on="1"/>
        <pt x="647" y="1376" on="1"/>
        <pt x="647" y="1462" on="1"/>
        <pt x="1782" y="1462" on="1"/>
        <pt x="1792" y="1104" on="1"/>
        <pt x="1686" y="1104" on="1"/>
        <pt x="1675" y="1192" on="1"/>
        <pt x="1671" y="1226" on="0"/>
        <pt x="1649" y="1286" on="0"/>
        <pt x="1606" y="1331" on="0"/>
        <pt x="1541" y="1359" on="0"/>
        <pt x="1495" y="1360" on="1"/>
        <pt x="1151" y="1360" on="1"/>
        <pt x="1151" y="815" on="1"/>
        <pt x="1645" y="815" on="1"/>
        <pt x="1645" y="715" on="1"/>
        <pt x="1151" y="715" on="1"/>
      </contour>
      <contour>
        <pt x="890" y="1304" on="0"/>
        <pt x="808" y="1138" on="0"/>
        <pt x="705" y="937" on="0"/>
        <pt x="587" y="709" on="0"/>
        <pt x="526" y="592" on="1"/>
        <pt x="944" y="592" on="1"/>
        <pt x="944" y="1360" on="1"/>
        <pt x="915" y="1360" on="1"/>
      </contour>
    </TTGlyph>
    <TTGlyph name="AEacute" xMin="0" yMin="0" xMax="1862" yMax="1907">
      <component glyphName="AE" x="0" y="0" flags="0x204"/>
      <component glyphName="acute" x="682" y="338" flags="0x4"/>
    </TTGlyph>
    <TTGlyph name="Aacute" xMin="0" yMin="0" xMax="1444" yMax="1907">
      <component glyphName="A" x="0" y="0" flags="0x204"/>
      <component glyphName="acute" x="246" y="338" flags="0x4"/>
    </TTGlyph>
    <TTGlyph name="Abreve" xMin="0" yMin="0" xMax="1444" yMax="1860">
      <component glyphName="A" x="0" y="0" flags="0x204"/>
      <component glyphName="breve" x="127" y="338" flags="0x4"/>
    </TTGlyph>
    <TTGlyph name="Acircumflex" xMin="0" yMin="0" xMax="1444" yMax="1907">
      <component glyphName="A" x="0" y="0" flags="0x204"/>
      <component glyphName="circumflex" x="133" y="338" flags="0x4"/>
    </TTGlyph>
    <TTGlyph name="Adieresis" xMin="0" yMin="0" xMax="1444" yMax="1862">
      <component glyphName="A" x="0" y="0" flags="0x204"/>
      <component glyphName="dieresis" x="133" y="338" flags="0x4"/>
    </TTGlyph>
    <TTGlyph name="Agrave" xMin="0" yMin="0" xMax="1444" yMax="1907">
      <component glyphName="A" x="0" y="0" flags="0x204"/>
      <component glyphName="grave" x="14" y="338" flags="0x4"/>
    </TTGlyph>
    <TTGlyph name="Alpha" xMin="0" yMin="0" xMax="1444" yMax="1462">
      <component glyphName="A" x="0" y="0" flags="0x204"/>
    </TTGlyph>
    <TTGlyph name="Alphatonos" xMin="0" yMin="0" xMax="1444" yMax="1462">
      <component glyphName="A" x="0" y="0" flags="0x204"/>
      <component glyphName="tonos" x="-359" y="-168" flags="0x4"/>
    </TTGlyph>
    <TTGlyph name="Amacron" xMin="0" yMin="0" xMax="1444" yMax="1721">
      <component glyphName="A" x="0" y="0" flags="0x204"/>
      <component glyphName="uni02C9" x="205" y="338" flags="0x4"/>
    </TTGlyph>
    <TTGlyph name="Aogonek" xMin="0" yMin="-492" xMax="1444" yMax="1462">
      <component glyphName="A" x="0" y="0" flags="0x204"/>
      <component glyphName="ogonek" x="582" y="0" flags="0x4"/>
    </TTGlyph>
    <TTGlyph name="Aring" xMin="0" yMin="0" xMax="1444" yMax="1808">
      <component glyphName="A" x="0" y="0" flags="0x204"/>
      <component glyphName="ring" x="385" y="141" flags="0x4"/>
    </TTGlyph>
    <TTGlyph name="Aringacute" xMin="0" yMin="0" xMax="1444" yMax="1962">
      <contour>
        <pt x="969" y="1438" on="1"/>
        <pt x="969" y="1362" on="0"/>
        <pt x="899" y="1262" on="0"/>
        <pt x="840" y="1237" on="1"/>
        <pt x="1272" y="184" on="1"/>
        <pt x="1284" y="155" on="0"/>
        <pt x="1309" y="117" on="0"/>
        <pt x="1343" y="95" on="0"/>
        <pt x="1387" y="86" on="0"/>
        <pt x="1417" y="86" on="1"/>
        <pt x="1444" y="86" on="1"/>
        <pt x="1444" y="0" on="1"/>
        <pt x="881" y="0" on="1"/>
        <pt x="881" y="86" on="1"/>
        <pt x="928" y="86" on="1"/>
        <pt x="1051" y="86" on="0"/>
        <pt x="1051" y="176" on="1"/>
        <pt x="1051" y="192" on="0"/>
        <pt x="1042" y="222" on="0"/>
        <pt x="1034" y="244" on="1"/>
        <pt x="952" y="444" on="1"/>
        <pt x="414" y="444" on="1"/>
        <pt x="336" y="256" on="1"/>
        <pt x="327" y="234" on="0"/>
        <pt x="317" y="192" on="0"/>
        <pt x="317" y="178" on="1"/>
        <pt x="317" y="86" on="0"/>
        <pt x="453" y="86" on="1"/>
        <pt x="500" y="86" on="1"/>
        <pt x="500" y="0" on="1"/>
        <pt x="0" y="0" on="1"/>
        <pt x="0" y="86" on="1"/>
        <pt x="39" y="86" on="1"/>
        <pt x="69" y="86" on="0"/>
        <pt x="111" y="98" on="0"/>
        <pt x="145" y="130" on="0"/>
        <pt x="176" y="187" on="0"/>
        <pt x="195" y="231" on="1"/>
        <pt x="614" y="1233" on="1"/>
        <pt x="552" y="1256" on="0"/>
        <pt x="477" y="1359" on="0"/>
        <pt x="477" y="1438" on="1"/>
        <pt x="477" y="1492" on="0"/>
        <pt x="515" y="1576" on="0"/>
        <pt x="582" y="1632" on="0"/>
        <pt x="672" y="1661" on="0"/>
        <pt x="723" y="1661" on="1"/>
        <pt x="774" y="1661" on="0"/>
        <pt x="864" y="1632" on="0"/>
        <pt x="931" y="1576" on="0"/>
        <pt x="969" y="1492" on="0"/>
      </contour>
      <contour>
        <pt x="788" y="870" on="1"/>
        <pt x="758" y="952" on="0"/>
        <pt x="703" y="1095" on="0"/>
        <pt x="686" y="1163" on="1"/>
        <pt x="678" y="1131" on="0"/>
        <pt x="659" y="1069" on="0"/>
        <pt x="636" y="1003" on="0"/>
        <pt x="609" y="930" on="0"/>
        <pt x="592" y="887" on="1"/>
        <pt x="459" y="547" on="1"/>
        <pt x="909" y="547" on="1"/>
      </contour>
      <contour>
        <pt x="858" y="1438" on="1"/>
        <pt x="858" y="1471" on="0"/>
        <pt x="837" y="1518" on="0"/>
        <pt x="800" y="1547" on="0"/>
        <pt x="751" y="1561" on="0"/>
        <pt x="723" y="1561" on="1"/>
        <pt x="695" y="1561" on="0"/>
        <pt x="646" y="1547" on="0"/>
        <pt x="609" y="1518" on="0"/>
        <pt x="588" y="1471" on="0"/>
        <pt x="588" y="1438" on="1"/>
        <pt x="588" y="1405" on="0"/>
        <pt x="609" y="1358" on="0"/>
        <pt x="646" y="1329" on="0"/>
        <pt x="695" y="1315" on="0"/>
        <pt x="723" y="1315" on="1"/>
        <pt x="751" y="1315" on="0"/>
        <pt x="800" y="1329" on="0"/>
        <pt x="837" y="1358" on="0"/>
        <pt x="858" y="1405" on="0"/>
      </contour>
      <contour>
        <pt x="637" y="1720" on="1"/>
        <pt x="659" y="1744" on="0"/>
        <pt x="708" y="1805" on="0"/>
        <pt x="756" y="1870" on="0"/>
        <pt x="799" y="1934" on="0"/>
        <pt x="815" y="1962" on="1"/>
        <pt x="1034" y="1962" on="1"/>
        <pt x="1034" y="1946" on="1"/>
        <pt x="1015" y="1924" on="0"/>
        <pt x="941" y="1859" on="0"/>
        <pt x="851" y="1788" on="0"/>
        <pt x="756" y="1722" on="0"/>
        <pt x="715" y="1700" on="1"/>
        <pt x="637" y="1700" on="1"/>
      </contour>
    </TTGlyph>
    <TTGlyph name="Atilde" xMin="0" yMin="0" xMax="1444" yMax="1841">
      <component glyphName="A" x="0" y="0" flags="0x204"/>
      <component glyphName="tilde" x="133" y="338" flags="0x4"/>
    </TTGlyph>
    <TTGlyph name="B" xMin="78" yMin="0" xMax="1214" yMax="1462">
      <contour>
        <pt x="1153" y="1096" on="1"/>
        <pt x="1153" y="1027" on="0"/>
        <pt x="1114" y="923" on="0"/>
        <pt x="1046" y="845" on="0"/>
        <pt x="953" y="792" on="0"/>
        <pt x="899" y="774" on="1"/>
        <pt x="899" y="766" on="1"/>
        <pt x="969" y="754" on="0"/>
        <pt x="1085" y="696" on="0"/>
        <pt x="1168" y="603" on="0"/>
        <pt x="1214" y="476" on="0"/>
        <pt x="1214" y="395" on="1"/>
        <pt x="1214" y="197" on="0"/>
        <pt x="954" y="0" on="0"/>
        <pt x="688" y="0" on="1"/>
        <pt x="78" y="0" on="1"/>
        <pt x="78" y="86" on="1"/>
        <pt x="104" y="86" on="1"/>
        <pt x="139" y="86" on="0"/>
        <pt x="200" y="96" on="0"/>
        <pt x="246" y="127" on="0"/>
        <pt x="272" y="185" on="0"/>
        <pt x="272" y="233" on="1"/>
        <pt x="272" y="1237" on="1"/>
        <pt x="272" y="1282" on="0"/>
        <pt x="245" y="1337" on="0"/>
        <pt x="199" y="1367" on="0"/>
        <pt x="138" y="1376" on="0"/>
        <pt x="104" y="1376" on="1"/>
        <pt x="78" y="1376" on="1"/>
        <pt x="78" y="1462" on="1"/>
        <pt x="627" y="1462" on="1"/>
        <pt x="893" y="1462" on="0"/>
        <pt x="1153" y="1285" on="0"/>
      </contour>
      <contour>
        <pt x="479" y="102" on="1"/>
        <pt x="678" y="102" on="1"/>
        <pt x="765" y="102" on="0"/>
        <pt x="885" y="134" on="0"/>
        <pt x="961" y="205" on="0"/>
        <pt x="995" y="319" on="0"/>
        <pt x="995" y="401" on="1"/>
        <pt x="995" y="481" on="0"/>
        <pt x="965" y="599" on="0"/>
        <pt x="892" y="677" on="0"/>
        <pt x="772" y="715" on="0"/>
        <pt x="682" y="715" on="1"/>
        <pt x="479" y="715" on="1"/>
      </contour>
      <contour>
        <pt x="479" y="817" on="1"/>
        <pt x="621" y="817" on="1"/>
        <pt x="711" y="817" on="0"/>
        <pt x="831" y="849" on="0"/>
        <pt x="903" y="916" on="0"/>
        <pt x="934" y="1022" on="0"/>
        <pt x="934" y="1096" on="1"/>
        <pt x="934" y="1171" on="0"/>
        <pt x="900" y="1272" on="0"/>
        <pt x="824" y="1334" on="0"/>
        <pt x="703" y="1360" on="0"/>
        <pt x="616" y="1360" on="1"/>
        <pt x="479" y="1360" on="1"/>
      </contour>
    </TTGlyph>
    <TTGlyph name="Beta" xMin="78" yMin="0" xMax="1214" yMax="1462">
      <component glyphName="B" x="0" y="0" flags="0x204"/>
    </TTGlyph>
    <TTGlyph name="C" xMin="117" yMin="-20" xMax="1188" yMax="1483">
      <contour>
        <pt x="774" y="1483" on="1"/>
        <pt x="879" y="1483" on="0"/>
        <pt x="1034" y="1448" on="0"/>
        <pt x="1137" y="1386" on="0"/>
        <pt x="1188" y="1302" on="0"/>
        <pt x="1188" y="1253" on="1"/>
        <pt x="1188" y="1220" on="0"/>
        <pt x="1161" y="1167" on="0"/>
        <pt x="1113" y="1130" on="0"/>
        <pt x="1048" y="1110" on="0"/>
        <pt x="1010" y="1110" on="1"/>
        <pt x="1010" y="1158" on="0"/>
        <pt x="985" y="1252" on="0"/>
        <pt x="928" y="1327" on="0"/>
        <pt x="837" y="1374" on="0"/>
        <pt x="770" y="1374" on="1"/>
        <pt x="654" y="1374" on="0"/>
        <pt x="492" y="1289" on="0"/>
        <pt x="390" y="1126" on="0"/>
        <pt x="344" y="887" on="0"/>
        <pt x="344" y="733" on="1"/>
        <pt x="344" y="596" on="0"/>
        <pt x="392" y="368" on="0"/>
        <pt x="496" y="205" on="0"/>
        <pt x="657" y="115" on="0"/>
        <pt x="770" y="115" on="1"/>
        <pt x="845" y="115" on="0"/>
        <pt x="960" y="144" on="0"/>
        <pt x="1048" y="192" on="0"/>
        <pt x="1115" y="255" on="0"/>
        <pt x="1141" y="289" on="1"/>
        <pt x="1158" y="278" on="0"/>
        <pt x="1180" y="240" on="0"/>
        <pt x="1180" y="209" on="1"/>
        <pt x="1180" y="170" on="0"/>
        <pt x="1127" y="89" on="0"/>
        <pt x="1019" y="23" on="0"/>
        <pt x="853" y="-20" on="0"/>
        <pt x="739" y="-20" on="1"/>
        <pt x="586" y="-20" on="0"/>
        <pt x="354" y="88" on="0"/>
        <pt x="197" y="286" on="0"/>
        <pt x="117" y="564" on="0"/>
        <pt x="117" y="733" on="1"/>
        <pt x="117" y="899" on="0"/>
        <pt x="201" y="1175" on="0"/>
        <pt x="366" y="1373" on="0"/>
        <pt x="612" y="1483" on="0"/>
      </contour>
    </TTGlyph>
    <TTGlyph name="Cacute" xMin="117" yMin="-20" xMax="1188" yMax="1907">
      <component glyphName="C" x="0" y="0" flags="0x204"/>
      <component glyphName="acute" x="266" y="338" flags="0x4"/>
    </TTGlyph>
    <TTGlyph name="Ccaron" xMin="117" yMin="-20" xMax="1188" yMax="1907">
      <component glyphName="C" x="0" y="0" flags="0x204"/>
      <component glyphName="caron" x="147" y="338" flags="0x4"/>
    </TTGlyph>
    <TTGlyph name="Ccedilla" xMin="117" yMin="-492" xMax="1188" yMax="1483">
      <component glyphName="C" x="0" y="0" flags="0x204"/>
      <component glyphName="cedilla" x="391" y="0" flags="0x4"/>
    </TTGlyph>
    <TTGlyph name="Ccircumflex" xMin="117" yMin="-20" xMax="1188" yMax="1907">
      <component glyphName="C" x="0" y="0" flags="0x204"/>
      <component glyphName="circumflex" x="170" y="338" flags="0x4"/>
    </TTGlyph>
    <TTGlyph name="Cdotaccent" xMin="117" yMin="-20" xMax="1188" yMax="1863">
      <component glyphName="C" x="0" y="0" flags="0x204"/>
      <component glyphName="dotaccent" x="428" y="338" flags="0x4"/>
    </TTGlyph>
    <TTGlyph name="Chi" xMin="16" yMin="0" xMax="1335" yMax="1462">
      <component glyphName="X" x="0" y="0" flags="0x204"/>
    </TTGlyph>
    <TTGlyph name="D" xMin="78" yMin="0" xMax="1372" yMax="1462">
      <contour>
        <pt x="1372" y="733" on="1"/>
        <pt x="1372" y="565" on="0"/>
        <pt x="1288" y="294" on="0"/>
        <pt x="1122" y="103" on="0"/>
        <pt x="872" y="0" on="0"/>
        <pt x="705" y="0" on="1"/>
        <pt x="78" y="0" on="1"/>
        <pt x="78" y="86" on="1"/>
        <pt x="104" y="86" on="1"/>
        <pt x="139" y="86" on="0"/>
        <pt x="200" y="96" on="0"/>
        <pt x="246" y="127" on="0"/>
        <pt x="272" y="185" on="0"/>
        <pt x="272" y="233" on="1"/>
        <pt x="272" y="1237" on="1"/>
        <pt x="272" y="1282" on="0"/>
        <pt x="245" y="1337" on="0"/>
        <pt x="199" y="1367" on="0"/>
        <pt x="138" y="1376" on="0"/>
        <pt x="104" y="1376" on="1"/>
        <pt x="78" y="1376" on="1"/>
        <pt x="78" y="1462" on="1"/>
        <pt x="705" y="1462" on="1"/>
        <pt x="863" y="1462" on="0"/>
        <pt x="1111" y="1365" on="0"/>
        <pt x="1282" y="1179" on="0"/>
        <pt x="1372" y="907" on="0"/>
      </contour>
      <contour>
        <pt x="657" y="104" on="1"/>
        <pt x="779" y="104" on="0"/>
        <pt x="962" y="187" on="0"/>
        <pt x="1084" y="347" on="0"/>
        <pt x="1145" y="581" on="0"/>
        <pt x="1145" y="733" on="1"/>
        <pt x="1145" y="1038" on="0"/>
        <pt x="902" y="1360" on="0"/>
        <pt x="659" y="1360" on="1"/>
        <pt x="479" y="1360" on="1"/>
        <pt x="479" y="104" on="1"/>
      </contour>
    </TTGlyph>
    <TTGlyph name="Dcaron" xMin="78" yMin="0" xMax="1372" yMax="1907">
      <component glyphName="D" x="0" y="0" flags="0x204"/>
      <component glyphName="caron" x="88" y="338" flags="0x4"/>
    </TTGlyph>
    <TTGlyph name="Dcroat" xMin="78" yMin="0" xMax="1372" yMax="1462">
      <component glyphName="Eth" x="0" y="0" flags="0x204"/>
    </TTGlyph>
    <TTGlyph name="Delta" xMin="63" yMin="0" xMax="1182" yMax="1462">
      <component glyphName="uni2206" x="0" y="0" flags="0x204"/>
    </TTGlyph>
    <TTGlyph name="E" xMin="78" yMin="0" xMax="1190" yMax="1462">
      <contour>
        <pt x="479" y="102" on="1"/>
        <pt x="874" y="102" on="1"/>
        <pt x="923" y="102" on="0"/>
        <pt x="992" y="129" on="0"/>
        <pt x="1038" y="175" on="0"/>
        <pt x="1064" y="236" on="0"/>
        <pt x="1069" y="270" on="1"/>
        <pt x="1083" y="358" on="1"/>
        <pt x="1190" y="358" on="1"/>
        <pt x="1176" y="0" on="1"/>
        <pt x="78" y="0" on="1"/>
        <pt x="78" y="86" on="1"/>
        <pt x="104" y="86" on="1"/>
        <pt x="138" y="86" on="0"/>
        <pt x="199" y="95" on="0"/>
        <pt x="245" y="123" on="0"/>
        <pt x="272" y="178" on="0"/>
        <pt x="272" y="223" on="1"/>
        <pt x="272" y="1229" on="1"/>
        <pt x="272" y="1277" on="0"/>
        <pt x="246" y="1335" on="0"/>
        <pt x="200" y="1366" on="0"/>
        <pt x="139" y="1376" on="0"/>
        <pt x="104" y="1376" on="1"/>
        <pt x="78" y="1376" on="1"/>
        <pt x="78" y="1462" on="1"/>
        <pt x="1110" y="1462" on="1"/>
        <pt x="1120" y="1104" on="1"/>
        <pt x="1014" y="1104" on="1"/>
        <pt x="1004" y="1192" on="1"/>
        <pt x="1000" y="1226" on="0"/>
        <pt x="977" y="1287" on="0"/>
        <pt x="934" y="1333" on="0"/>
        <pt x="869" y="1360" on="0"/>
        <pt x="823" y="1360" on="1"/>
        <pt x="479" y="1360" on="1"/>
        <pt x="479" y="815" on="1"/>
        <pt x="973" y="815" on="1"/>
        <pt x="973" y="715" on="1"/>
        <pt x="479" y="715" on="1"/>
      </contour>
    </TTGlyph>
    <TTGlyph name="Eacute" xMin="78" yMin="0" xMax="1190" yMax="1907">
      <component glyphName="E" x="0" y="0" flags="0x204"/>
      <component glyphName="acute" x="154" y="338" flags="0x4"/>
    </TTGlyph>
    <TTGlyph name="Ebreve" xMin="78" yMin="0" xMax="1190" yMax="1860">
      <component glyphName="E" x="0" y="0" flags="0x204"/>
      <component glyphName="breve" x="49" y="338" flags="0x4"/>
    </TTGlyph>
    <TTGlyph name="Ecaron" xMin="78" yMin="0" xMax="1190" yMax="1907">
      <component glyphName="E" x="0" y="0" flags="0x204"/>
      <component glyphName="caron" x="43" y="338" flags="0x4"/>
    </TTGlyph>
    <TTGlyph name="Ecircumflex" xMin="78" yMin="0" xMax="1190" yMax="1907">
      <component glyphName="E" x="0" y="0" flags="0x204"/>
      <component glyphName="circumflex" x="61" y="338" flags="0x4"/>
    </TTGlyph>
    <TTGlyph name="Edieresis" xMin="78" yMin="0" xMax="1190" yMax="1862">
      <component glyphName="E" x="0" y="0" flags="0x204"/>
      <component glyphName="dieresis" x="51" y="338" flags="0x4"/>
    </TTGlyph>
    <TTGlyph name="Edotaccent" xMin="78" yMin="0" xMax="1190" yMax="1834">
      <component glyphName="E" x="0" y="0" flags="0x204"/>
      <component glyphName="dotaccent" x="319" y="309" flags="0x4"/>
    </TTGlyph>
    <TTGlyph name="Egrave" xMin="78" yMin="0" xMax="1190" yMax="1907">
      <component glyphName="E" x="0" y="0" flags="0x204"/>
      <component glyphName="grave" x="-48" y="338" flags="0x4"/>
    </TTGlyph>
    <TTGlyph name="Emacron" xMin="78" yMin="0" xMax="1190" yMax="1721">
      <component glyphName="E" x="0" y="0" flags="0x204"/>
      <component glyphName="uni02C9" x="139" y="338" flags="0x4"/>
    </TTGlyph>
    <TTGlyph name="Eng" xMin="78" yMin="-492" xMax="1505" yMax="1462">
      <contour>
        <pt x="1311" y="-16" on="1"/>
        <pt x="1311" y="-154" on="0"/>
        <pt x="1272" y="-337" on="0"/>
        <pt x="1194" y="-446" on="0"/>
        <pt x="1077" y="-492" on="0"/>
        <pt x="999" y="-492" on="1"/>
        <pt x="952" y="-492" on="1"/>
        <pt x="952" y="-395" on="1"/>
        <pt x="981" y="-395" on="1"/>
        <pt x="1030" y="-395" on="0"/>
        <pt x="1106" y="-358" on="0"/>
        <pt x="1159" y="-271" on="0"/>
        <pt x="1186" y="-126" on="0"/>
        <pt x="1186" y="-18" on="1"/>
        <pt x="1186" y="0" on="1"/>
        <pt x="397" y="1180" on="1"/>
        <pt x="397" y="233" on="1"/>
        <pt x="397" y="185" on="0"/>
        <pt x="424" y="127" on="0"/>
        <pt x="469" y="96" on="0"/>
        <pt x="530" y="86" on="0"/>
        <pt x="565" y="86" on="1"/>
        <pt x="592" y="86" on="1"/>
        <pt x="592" y="0" on="1"/>
        <pt x="78" y="0" on="1"/>
        <pt x="78" y="86" on="1"/>
        <pt x="104" y="86" on="1"/>
        <pt x="139" y="86" on="0"/>
        <pt x="200" y="96" on="0"/>
        <pt x="246" y="127" on="0"/>
        <pt x="272" y="185" on="0"/>
        <pt x="272" y="233" on="1"/>
        <pt x="272" y="1237" on="1"/>
        <pt x="272" y="1282" on="0"/>
        <pt x="245" y="1337" on="0"/>
        <pt x="199" y="1367" on="0"/>
        <pt x="138" y="1376" on="0"/>
        <pt x="104" y="1376" on="1"/>
        <pt x="78" y="1376" on="1"/>
        <pt x="78" y="1462" on="1"/>
        <pt x="453" y="1462" on="1"/>
        <pt x="1186" y="358" on="1"/>
        <pt x="1186" y="1237" on="1"/>
        <pt x="1186" y="1282" on="0"/>
        <pt x="1159" y="1337" on="0"/>
        <pt x="1113" y="1367" on="0"/>
        <pt x="1052" y="1376" on="0"/>
        <pt x="1018" y="1376" on="1"/>
        <pt x="991" y="1376" on="1"/>
        <pt x="991" y="1462" on="1"/>
        <pt x="1505" y="1462" on="1"/>
        <pt x="1505" y="1376" on="1"/>
        <pt x="1479" y="1376" on="1"/>
        <pt x="1444" y="1376" on="0"/>
        <pt x="1383" y="1366" on="0"/>
        <pt x="1337" y="1335" on="0"/>
        <pt x="1311" y="1277" on="0"/>
        <pt x="1311" y="1229" on="1"/>
      </contour>
    </TTGlyph>
    <TTGlyph name="Eogonek" xMin="78" yMin="-492" xMax="1190" yMax="1462">
      <component glyphName="E" x="0" y="0" flags="0x204"/>
      <component glyphName="ogonek" x="362" y="0" flags="0x4"/>
    </TTGlyph>
    <TTGlyph name="Epsilon" xMin="78" yMin="0" xMax="1190" yMax="1462">
      <component glyphName="E" x="0" y="0" flags="0x204"/>
    </TTGlyph>
    <TTGlyph name="Epsilontonos" xMin="-109" yMin="0" xMax="1356" yMax="1462">
      <component glyphName="E" x="166" y="0" flags="0x4"/>
      <component glyphName="tonos" x="-613" y="-168" flags="0x4"/>
    </TTGlyph>
    <TTGlyph name="Eta" xMin="78" yMin="0" xMax="1546" yMax="1462">
      <component glyphName="H" x="0" y="0" flags="0x204"/>
    </TTGlyph>
    <TTGlyph name="Etatonos" xMin="-109" yMin="0" xMax="1708" yMax="1462">
      <component glyphName="H" x="162" y="0" flags="0x4"/>
      <component glyphName="tonos" x="-613" y="-168" flags="0x4"/>
    </TTGlyph>
    <TTGlyph name="Eth" xMin="78" yMin="0" xMax="1372" yMax="1462">
      <contour>
        <pt x="78" y="815" on="1"/>
        <pt x="272" y="815" on="1"/>
        <pt x="272" y="1237" on="1"/>
        <pt x="272" y="1282" on="0"/>
        <pt x="245" y="1337" on="0"/>
        <pt x="199" y="1367" on="0"/>
        <pt x="138" y="1376" on="0"/>
        <pt x="104" y="1376" on="1"/>
        <pt x="78" y="1376" on="1"/>
        <pt x="78" y="1462" on="1"/>
        <pt x="705" y="1462" on="1"/>
        <pt x="863" y="1462" on="0"/>
        <pt x="1111" y="1365" on="0"/>
        <pt x="1282" y="1179" on="0"/>
        <pt x="1372" y="907" on="0"/>
        <pt x="1372" y="733" on="1"/>
        <pt x="1372" y="565" on="0"/>
        <pt x="1288" y="294" on="0"/>
        <pt x="1122" y="103" on="0"/>
        <pt x="871" y="0" on="0"/>
        <pt x="705" y="0" on="1"/>
        <pt x="78" y="0" on="1"/>
        <pt x="78" y="86" on="1"/>
        <pt x="104" y="86" on="1"/>
        <pt x="139" y="86" on="0"/>
        <pt x="200" y="96" on="0"/>
        <pt x="246" y="127" on="0"/>
        <pt x="272" y="185" on="0"/>
        <pt x="272" y="233" on="1"/>
        <pt x="272" y="715" on="1"/>
        <pt x="78" y="715" on="1"/>
      </contour>
      <contour>
        <pt x="657" y="104" on="1"/>
        <pt x="779" y="104" on="0"/>
        <pt x="962" y="187" on="0"/>
        <pt x="1084" y="347" on="0"/>
        <pt x="1145" y="581" on="0"/>
        <pt x="1145" y="733" on="1"/>
        <pt x="1145" y="885" on="0"/>
        <pt x="1084" y="1119" on="0"/>
        <pt x="963" y="1278" on="0"/>
        <pt x="780" y="1360" on="0"/>
        <pt x="659" y="1360" on="1"/>
        <pt x="479" y="1360" on="1"/>
        <pt x="479" y="815" on="1"/>
        <pt x="827" y="815" on="1"/>
        <pt x="827" y="715" on="1"/>
        <pt x="479" y="715" on="1"/>
        <pt x="479" y="104" on="1"/>
      </contour>
    </TTGlyph>
    <TTGlyph name="Euro" xMin="84" yMin="-20" xMax="1085" yMax="1479">
      <contour>
        <pt x="776" y="100" on="1"/>
        <pt x="828" y="100" on="0"/>
        <pt x="909" y="120" on="0"/>
        <pt x="971" y="154" on="0"/>
        <pt x="1018" y="199" on="0"/>
        <pt x="1036" y="223" on="1"/>
        <pt x="1049" y="215" on="0"/>
        <pt x="1073" y="185" on="0"/>
        <pt x="1073" y="154" on="1"/>
        <pt x="1073" y="127" on="0"/>
        <pt x="1036" y="66" on="0"/>
        <pt x="960" y="14" on="0"/>
        <pt x="844" y="-20" on="0"/>
        <pt x="764" y="-20" on="1"/>
        <pt x="668" y="-20" on="0"/>
        <pt x="492" y="41" on="0"/>
        <pt x="350" y="176" on="0"/>
        <pt x="252" y="392" on="0"/>
        <pt x="233" y="547" on="1"/>
        <pt x="84" y="547" on="1"/>
        <pt x="84" y="643" on="1"/>
        <pt x="225" y="643" on="1"/>
        <pt x="223" y="666" on="0"/>
        <pt x="221" y="720" on="0"/>
        <pt x="221" y="741" on="1"/>
        <pt x="221" y="786" on="1"/>
        <pt x="84" y="786" on="1"/>
        <pt x="84" y="883" on="1"/>
        <pt x="229" y="883" on="1"/>
        <pt x="243" y="1054" on="0"/>
        <pt x="334" y="1283" on="0"/>
        <pt x="471" y="1421" on="0"/>
        <pt x="644" y="1479" on="0"/>
        <pt x="739" y="1479" on="1"/>
        <pt x="817" y="1479" on="0"/>
        <pt x="944" y="1448" on="0"/>
        <pt x="1035" y="1393" on="0"/>
        <pt x="1085" y="1317" on="0"/>
        <pt x="1085" y="1272" on="1"/>
        <pt x="1085" y="1201" on="0"/>
        <pt x="994" y="1143" on="0"/>
        <pt x="907" y="1143" on="1"/>
        <pt x="907" y="1191" on="0"/>
        <pt x="887" y="1277" on="0"/>
        <pt x="843" y="1341" on="0"/>
        <pt x="772" y="1378" on="0"/>
        <pt x="721" y="1378" on="1"/>
        <pt x="668" y="1378" on="0"/>
        <pt x="570" y="1332" on="0"/>
        <pt x="491" y="1218" on="0"/>
        <pt x="436" y="1027" on="0"/>
        <pt x="426" y="883" on="1"/>
        <pt x="856" y="883" on="1"/>
        <pt x="856" y="786" on="1"/>
        <pt x="422" y="786" on="1"/>
        <pt x="422" y="737" on="1"/>
        <pt x="422" y="716" on="0"/>
        <pt x="422" y="662" on="0"/>
        <pt x="424" y="643" on="1"/>
        <pt x="774" y="643" on="1"/>
        <pt x="774" y="547" on="1"/>
        <pt x="432" y="547" on="1"/>
        <pt x="445" y="438" on="0"/>
        <pt x="504" y="271" on="0"/>
        <pt x="592" y="158" on="0"/>
        <pt x="707" y="100" on="0"/>
      </contour>
    </TTGlyph>
    <TTGlyph name="F" xMin="78" yMin="0" xMax="1120" yMax="1462">
      <contour>
        <pt x="479" y="1360" on="1"/>
        <pt x="479" y="768" on="1"/>
        <pt x="973" y="768" on="1"/>
        <pt x="973" y="668" on="1"/>
        <pt x="479" y="668" on="1"/>
        <pt x="479" y="233" on="1"/>
        <pt x="479" y="185" on="0"/>
        <pt x="506" y="127" on="0"/>
        <pt x="551" y="96" on="0"/>
        <pt x="613" y="86" on="0"/>
        <pt x="647" y="86" on="1"/>
        <pt x="715" y="86" on="1"/>
        <pt x="715" y="0" on="1"/>
        <pt x="78" y="0" on="1"/>
        <pt x="78" y="86" on="1"/>
        <pt x="104" y="86" on="1"/>
        <pt x="138" y="86" on="0"/>
        <pt x="199" y="95" on="0"/>
        <pt x="245" y="123" on="0"/>
        <pt x="272" y="178" on="0"/>
        <pt x="272" y="223" on="1"/>
        <pt x="272" y="1237" on="1"/>
        <pt x="272" y="1282" on="0"/>
        <pt x="245" y="1337" on="0"/>
        <pt x="199" y="1367" on="0"/>
        <pt x="138" y="1376" on="0"/>
        <pt x="104" y="1376" on="1"/>
        <pt x="78" y="1376" on="1"/>
        <pt x="78" y="1462" on="1"/>
        <pt x="1110" y="1462" on="1"/>
        <pt x="1120" y="1104" on="1"/>
        <pt x="1014" y="1104" on="1"/>
        <pt x="1004" y="1192" on="1"/>
        <pt x="1000" y="1227" on="0"/>
        <pt x="976" y="1288" on="0"/>
        <pt x="931" y="1333" on="0"/>
        <pt x="863" y="1360" on="0"/>
        <pt x="815" y="1360" on="1"/>
      </contour>
    </TTGlyph>
    <TTGlyph name="G" xMin="117" yMin="-20" xMax="1423" yMax="1483">
      <contour>
        <pt x="821" y="-20" on="1"/>
        <pt x="643" y="-20" on="0"/>
        <pt x="378" y="88" on="0"/>
        <pt x="203" y="286" on="0"/>
        <pt x="117" y="564" on="0"/>
        <pt x="117" y="733" on="1"/>
        <pt x="117" y="899" on="0"/>
        <pt x="208" y="1175" on="0"/>
        <pt x="389" y="1373" on="0"/>
        <pt x="657" y="1483" on="0"/>
        <pt x="834" y="1483" on="1"/>
        <pt x="948" y="1483" on="0"/>
        <pt x="1117" y="1448" on="0"/>
        <pt x="1230" y="1386" on="0"/>
        <pt x="1286" y="1302" on="0"/>
        <pt x="1286" y="1253" on="1"/>
        <pt x="1286" y="1220" on="0"/>
        <pt x="1256" y="1167" on="0"/>
        <pt x="1205" y="1130" on="0"/>
        <pt x="1136" y="1110" on="0"/>
        <pt x="1096" y="1110" on="1"/>
        <pt x="1096" y="1158" on="0"/>
        <pt x="1068" y="1252" on="0"/>
        <pt x="1004" y="1327" on="0"/>
        <pt x="900" y="1374" on="0"/>
        <pt x="825" y="1374" on="1"/>
        <pt x="695" y="1374" on="0"/>
        <pt x="512" y="1289" on="0"/>
        <pt x="396" y="1126" on="0"/>
        <pt x="344" y="887" on="0"/>
        <pt x="344" y="733" on="1"/>
        <pt x="344" y="580" on="0"/>
        <pt x="398" y="342" on="0"/>
        <pt x="520" y="180" on="0"/>
        <pt x="714" y="96" on="0"/>
        <pt x="854" y="96" on="1"/>
        <pt x="913" y="96" on="0"/>
        <pt x="1024" y="108" on="0"/>
        <pt x="1067" y="121" on="1"/>
        <pt x="1067" y="451" on="1"/>
        <pt x="1067" y="496" on="0"/>
        <pt x="1040" y="551" on="0"/>
        <pt x="994" y="580" on="0"/>
        <pt x="933" y="590" on="0"/>
        <pt x="899" y="590" on="1"/>
        <pt x="891" y="590" on="1"/>
        <pt x="891" y="676" on="1"/>
        <pt x="1423" y="676" on="1"/>
        <pt x="1423" y="590" on="1"/>
        <pt x="1415" y="590" on="1"/>
        <pt x="1386" y="590" on="0"/>
        <pt x="1334" y="580" on="0"/>
        <pt x="1296" y="549" on="0"/>
        <pt x="1274" y="490" on="0"/>
        <pt x="1274" y="442" on="1"/>
        <pt x="1274" y="74" on="1"/>
        <pt x="1171" y="26" on="0"/>
        <pt x="953" y="-20" on="0"/>
      </contour>
    </TTGlyph>
    <TTGlyph name="Gamma" xMin="78" yMin="0" xMax="1108" yMax="1462">
      <contour>
        <pt x="715" y="0" on="1"/>
        <pt x="78" y="0" on="1"/>
        <pt x="78" y="86" on="1"/>
        <pt x="104" y="86" on="1"/>
        <pt x="139" y="86" on="0"/>
        <pt x="200" y="96" on="0"/>
        <pt x="246" y="127" on="0"/>
        <pt x="272" y="185" on="0"/>
        <pt x="272" y="233" on="1"/>
        <pt x="272" y="1229" on="1"/>
        <pt x="272" y="1277" on="0"/>
        <pt x="246" y="1335" on="0"/>
        <pt x="200" y="1366" on="0"/>
        <pt x="139" y="1376" on="0"/>
        <pt x="104" y="1376" on="1"/>
        <pt x="78" y="1376" on="1"/>
        <pt x="78" y="1462" on="1"/>
        <pt x="1096" y="1462" on="1"/>
        <pt x="1108" y="1104" on="1"/>
        <pt x="1001" y="1104" on="1"/>
        <pt x="993" y="1176" on="1"/>
        <pt x="988" y="1219" on="0"/>
        <pt x="967" y="1287" on="0"/>
        <pt x="923" y="1335" on="0"/>
        <pt x="848" y="1360" on="0"/>
        <pt x="788" y="1360" on="1"/>
        <pt x="479" y="1360" on="1"/>
        <pt x="479" y="225" on="1"/>
        <pt x="479" y="180" on="0"/>
        <pt x="506" y="125" on="0"/>
        <pt x="552" y="95" on="0"/>
        <pt x="613" y="86" on="0"/>
        <pt x="647" y="86" on="1"/>
        <pt x="715" y="86" on="1"/>
      </contour>
    </TTGlyph>
    <TTGlyph name="Gbreve" xMin="117" yMin="-20" xMax="1423" yMax="1860">
      <component glyphName="G" x="0" y="0" flags="0x204"/>
      <component glyphName="breve" x="217" y="338" flags="0x4"/>
    </TTGlyph>
    <TTGlyph name="Gcaron" xMin="117" yMin="-20" xMax="1423" yMax="1907">
      <component glyphName="G" x="0" y="0" flags="0x204"/>
      <component glyphName="caron" x="221" y="338" flags="0x4"/>
    </TTGlyph>
    <TTGlyph name="Gcircumflex" xMin="117" yMin="-20" xMax="1423" yMax="1907">
      <component glyphName="G" x="0" y="0" flags="0x204"/>
      <component glyphName="circumflex" x="215" y="338" flags="0x4"/>
    </TTGlyph>
    <TTGlyph name="Gcommaaccent" xMin="117" yMin="-453" xMax="1423" yMax="1483">
      <component glyphName="G" x="0" y="0" flags="0x204"/>
      <component glyphName="glyph00569" x="279" y="0" flags="0x4"/>
    </TTGlyph>
    <TTGlyph name="Gdotaccent" xMin="117" yMin="-20" xMax="1423" yMax="1863">
      <component glyphName="G" x="0" y="0" flags="0x204"/>
      <component glyphName="dotaccent" x="485" y="338" flags="0x4"/>
    </TTGlyph>
    <TTGlyph name="H" xMin="78" yMin="0" xMax="1546" yMax="1462">
      <contour>
        <pt x="950" y="0" on="1"/>
        <pt x="950" y="86" on="1"/>
        <pt x="977" y="86" on="1"/>
        <pt x="1012" y="86" on="0"/>
        <pt x="1073" y="96" on="0"/>
        <pt x="1118" y="127" on="0"/>
        <pt x="1145" y="185" on="0"/>
        <pt x="1145" y="233" on="1"/>
        <pt x="1145" y="713" on="1"/>
        <pt x="479" y="713" on="1"/>
        <pt x="479" y="233" on="1"/>
        <pt x="479" y="185" on="0"/>
        <pt x="506" y="127" on="0"/>
        <pt x="551" y="96" on="0"/>
        <pt x="613" y="86" on="0"/>
        <pt x="647" y="86" on="1"/>
        <pt x="674" y="86" on="1"/>
        <pt x="674" y="0" on="1"/>
        <pt x="78" y="0" on="1"/>
        <pt x="78" y="86" on="1"/>
        <pt x="104" y="86" on="1"/>
        <pt x="139" y="86" on="0"/>
        <pt x="200" y="96" on="0"/>
        <pt x="246" y="127" on="0"/>
        <pt x="272" y="185" on="0"/>
        <pt x="272" y="233" on="1"/>
        <pt x="272" y="1237" on="1"/>
        <pt x="272" y="1282" on="0"/>
        <pt x="245" y="1337" on="0"/>
        <pt x="199" y="1367" on="0"/>
        <pt x="138" y="1376" on="0"/>
        <pt x="104" y="1376" on="1"/>
        <pt x="78" y="1376" on="1"/>
        <pt x="78" y="1462" on="1"/>
        <pt x="674" y="1462" on="1"/>
        <pt x="674" y="1376" on="1"/>
        <pt x="647" y="1376" on="1"/>
        <pt x="613" y="1376" on="0"/>
        <pt x="551" y="1366" on="0"/>
        <pt x="506" y="1335" on="0"/>
        <pt x="479" y="1277" on="0"/>
        <pt x="479" y="1229" on="1"/>
        <pt x="479" y="815" on="1"/>
        <pt x="1145" y="815" on="1"/>
        <pt x="1145" y="1229" on="1"/>
        <pt x="1145" y="1277" on="0"/>
        <pt x="1118" y="1335" on="0"/>
        <pt x="1073" y="1366" on="0"/>
        <pt x="1012" y="1376" on="0"/>
        <pt x="977" y="1376" on="1"/>
        <pt x="950" y="1376" on="1"/>
        <pt x="950" y="1462" on="1"/>
        <pt x="1546" y="1462" on="1"/>
        <pt x="1546" y="1376" on="1"/>
        <pt x="1520" y="1376" on="1"/>
        <pt x="1485" y="1376" on="0"/>
        <pt x="1424" y="1366" on="0"/>
        <pt x="1378" y="1335" on="0"/>
        <pt x="1352" y="1277" on="0"/>
        <pt x="1352" y="1229" on="1"/>
        <pt x="1352" y="223" on="1"/>
        <pt x="1352" y="178" on="0"/>
        <pt x="1379" y="123" on="0"/>
        <pt x="1425" y="95" on="0"/>
        <pt x="1486" y="86" on="0"/>
        <pt x="1520" y="86" on="1"/>
        <pt x="1546" y="86" on="1"/>
        <pt x="1546" y="0" on="1"/>
      </contour>
    </TTGlyph>
    <TTGlyph name="H18533" xMin="178" yMin="137" xMax="1059" yMax="1018">
      <contour>
        <pt x="618" y="1018" on="1"/>
        <pt x="727" y="1018" on="0"/>
        <pt x="944" y="901" on="0"/>
        <pt x="1059" y="684" on="0"/>
        <pt x="1059" y="578" on="1"/>
        <pt x="1059" y="395" on="0"/>
        <pt x="801" y="137" on="0"/>
        <pt x="618" y="137" on="1"/>
        <pt x="436" y="137" on="0"/>
        <pt x="178" y="395" on="0"/>
        <pt x="178" y="578" on="1"/>
        <pt x="178" y="686" on="0"/>
        <pt x="289" y="899" on="0"/>
        <pt x="504" y="1018" on="0"/>
      </contour>
    </TTGlyph>
    <TTGlyph name="H18543" xMin="109" yMin="383" xMax="616" yMax="891">
      <contour>
        <pt x="616" y="383" on="1"/>
        <pt x="109" y="383" on="1"/>
        <pt x="109" y="891" on="1"/>
        <pt x="616" y="891" on="1"/>
      </contour>
    </TTGlyph>
    <TTGlyph name="H18551" xMin="109" yMin="383" xMax="616" yMax="891">
      <contour>
        <pt x="616" y="383" on="1"/>
        <pt x="109" y="383" on="1"/>
        <pt x="109" y="891" on="1"/>
        <pt x="616" y="891" on="1"/>
      </contour>
      <contour>
        <pt x="541" y="459" on="1"/>
        <pt x="541" y="813" on="1"/>
        <pt x="184" y="813" on="1"/>
        <pt x="184" y="459" on="1"/>
      </contour>
    </TTGlyph>
    <TTGlyph name="H22073" xMin="6" yMin="0" xMax="1231" yMax="1225">
      <contour>
        <pt x="6" y="1225" on="1"/>
        <pt x="1231" y="1225" on="1"/>
        <pt x="1231" y="0" on="1"/>
        <pt x="6" y="0" on="1"/>
      </contour>
      <contour>
        <pt x="82" y="1149" on="1"/>
        <pt x="82" y="76" on="1"/>
        <pt x="1155" y="76" on="1"/>
        <pt x="1155" y="1149" on="1"/>
      </contour>
    </TTGlyph>
    <TTGlyph name="Hbar" xMin="78" yMin="0" xMax="1546" yMax="1462">
      <contour>
        <pt x="1352" y="1022" on="1"/>
        <pt x="1352" y="223" on="1"/>
        <pt x="1352" y="178" on="0"/>
        <pt x="1379" y="123" on="0"/>
        <pt x="1425" y="95" on="0"/>
        <pt x="1486" y="86" on="0"/>
        <pt x="1520" y="86" on="1"/>
        <pt x="1546" y="86" on="1"/>
        <pt x="1546" y="0" on="1"/>
        <pt x="950" y="0" on="1"/>
        <pt x="950" y="86" on="1"/>
        <pt x="977" y="86" on="1"/>
        <pt x="1012" y="86" on="0"/>
        <pt x="1073" y="96" on="0"/>
        <pt x="1118" y="127" on="0"/>
        <pt x="1145" y="185" on="0"/>
        <pt x="1145" y="233" on="1"/>
        <pt x="1145" y="713" on="1"/>
        <pt x="479" y="713" on="1"/>
        <pt x="479" y="233" on="1"/>
        <pt x="479" y="185" on="0"/>
        <pt x="506" y="127" on="0"/>
        <pt x="551" y="96" on="0"/>
        <pt x="613" y="86" on="0"/>
        <pt x="647" y="86" on="1"/>
        <pt x="674" y="86" on="1"/>
        <pt x="674" y="0" on="1"/>
        <pt x="78" y="0" on="1"/>
        <pt x="78" y="86" on="1"/>
        <pt x="104" y="86" on="1"/>
        <pt x="139" y="86" on="0"/>
        <pt x="200" y="96" on="0"/>
        <pt x="246" y="127" on="0"/>
        <pt x="272" y="185" on="0"/>
        <pt x="272" y="233" on="1"/>
        <pt x="272" y="1022" on="1"/>
        <pt x="78" y="1022" on="1"/>
        <pt x="78" y="1122" on="1"/>
        <pt x="272" y="1122" on="1"/>
        <pt x="272" y="1237" on="1"/>
        <pt x="272" y="1282" on="0"/>
        <pt x="245" y="1337" on="0"/>
        <pt x="199" y="1367" on="0"/>
        <pt x="138" y="1376" on="0"/>
        <pt x="104" y="1376" on="1"/>
        <pt x="78" y="1376" on="1"/>
        <pt x="78" y="1462" on="1"/>
        <pt x="674" y="1462" on="1"/>
        <pt x="674" y="1376" on="1"/>
        <pt x="647" y="1376" on="1"/>
        <pt x="613" y="1376" on="0"/>
        <pt x="551" y="1366" on="0"/>
        <pt x="506" y="1335" on="0"/>
        <pt x="479" y="1277" on="0"/>
        <pt x="479" y="1229" on="1"/>
        <pt x="479" y="1122" on="1"/>
        <pt x="1145" y="1122" on="1"/>
        <pt x="1145" y="1229" on="1"/>
        <pt x="1145" y="1277" on="0"/>
        <pt x="1118" y="1335" on="0"/>
        <pt x="1073" y="1366" on="0"/>
        <pt x="1012" y="1376" on="0"/>
        <pt x="977" y="1376" on="1"/>
        <pt x="950" y="1376" on="1"/>
        <pt x="950" y="1462" on="1"/>
        <pt x="1546" y="1462" on="1"/>
        <pt x="1546" y="1376" on="1"/>
        <pt x="1520" y="1376" on="1"/>
        <pt x="1485" y="1376" on="0"/>
        <pt x="1424" y="1366" on="0"/>
        <pt x="1378" y="1335" on="0"/>
        <pt x="1352" y="1277" on="0"/>
        <pt x="1352" y="1229" on="1"/>
        <pt x="1352" y="1122" on="1"/>
        <pt x="1546" y="1122" on="1"/>
        <pt x="1546" y="1022" on="1"/>
      </contour>
      <contour>
        <pt x="1145" y="815" on="1"/>
        <pt x="1145" y="1022" on="1"/>
        <pt x="479" y="1022" on="1"/>
        <pt x="479" y="815" on="1"/>
      </contour>
    </TTGlyph>
    <TTGlyph name="Hcircumflex" xMin="78" yMin="0" xMax="1546" yMax="1907">
      <component glyphName="H" x="0" y="0" flags="0x204"/>
      <component glyphName="circumflex" x="221" y="338" flags="0x4"/>
    </TTGlyph>
    <TTGlyph name="I" xMin="78" yMin="0" xMax="674" yMax="1462">
      <contour>
        <pt x="78" y="0" on="1"/>
        <pt x="78" y="86" on="1"/>
        <pt x="104" y="86" on="1"/>
        <pt x="139" y="86" on="0"/>
        <pt x="200" y="96" on="0"/>
        <pt x="246" y="127" on="0"/>
        <pt x="272" y="185" on="0"/>
        <pt x="272" y="233" on="1"/>
        <pt x="272" y="1229" on="1"/>
        <pt x="272" y="1277" on="0"/>
        <pt x="246" y="1335" on="0"/>
        <pt x="200" y="1366" on="0"/>
        <pt x="139" y="1376" on="0"/>
        <pt x="104" y="1376" on="1"/>
        <pt x="78" y="1376" on="1"/>
        <pt x="78" y="1462" on="1"/>
        <pt x="674" y="1462" on="1"/>
        <pt x="674" y="1376" on="1"/>
        <pt x="647" y="1376" on="1"/>
        <pt x="613" y="1376" on="0"/>
        <pt x="551" y="1366" on="0"/>
        <pt x="506" y="1335" on="0"/>
        <pt x="479" y="1277" on="0"/>
        <pt x="479" y="1229" on="1"/>
        <pt x="479" y="233" on="1"/>
        <pt x="479" y="185" on="0"/>
        <pt x="506" y="127" on="0"/>
        <pt x="551" y="96" on="0"/>
        <pt x="613" y="86" on="0"/>
        <pt x="647" y="86" on="1"/>
        <pt x="674" y="86" on="1"/>
        <pt x="674" y="0" on="1"/>
      </contour>
    </TTGlyph>
    <TTGlyph name="IJ" xMin="78" yMin="-492" xMax="1368" yMax="1462">
      <component glyphName="I" x="0" y="0" flags="0x4"/>
      <component glyphName="J" x="694" y="0" flags="0x4"/>
    </TTGlyph>
    <TTGlyph name="Iacute" xMin="78" yMin="0" xMax="674" yMax="1907">
      <component glyphName="I" x="0" y="0" flags="0x204"/>
      <component glyphName="acute" x="-120" y="338" flags="0x4"/>
    </TTGlyph>
    <TTGlyph name="Ibreve" xMin="78" yMin="0" xMax="674" yMax="1860">
      <component glyphName="I" x="0" y="0" flags="0x204"/>
      <component glyphName="breve" x="-214" y="338" flags="0x4"/>
    </TTGlyph>
    <TTGlyph name="Icircumflex" xMin="73" yMin="0" xMax="677" yMax="1907">
      <component glyphName="I" x="0" y="0" flags="0x204"/>
      <component glyphName="circumflex" x="-216" y="338" flags="0x4"/>
    </TTGlyph>
    <TTGlyph name="Idieresis" xMin="73" yMin="0" xMax="674" yMax="1862">
      <component glyphName="I" x="0" y="0" flags="0x204"/>
      <component glyphName="dieresis" x="-218" y="338" flags="0x4"/>
    </TTGlyph>
    <TTGlyph name="Idotaccent" xMin="78" yMin="0" xMax="674" yMax="1863">
      <component glyphName="I" x="0" y="0" flags="0x204"/>
      <component glyphName="dotaccent" x="35" y="338" flags="0x4"/>
    </TTGlyph>
    <TTGlyph name="Igrave" xMin="75" yMin="0" xMax="674" yMax="1907">
      <component glyphName="I" x="0" y="0" flags="0x204"/>
      <component glyphName="grave" x="-318" y="338" flags="0x4"/>
    </TTGlyph>
    <TTGlyph name="Imacron" xMin="78" yMin="0" xMax="674" yMax="1721">
      <component glyphName="I" x="0" y="0" flags="0x204"/>
      <component glyphName="uni02C9" x="-136" y="338" flags="0x4"/>
    </TTGlyph>
    <TTGlyph name="Iogonek" xMin="78" yMin="-492" xMax="674" yMax="1462">
      <component glyphName="I" x="0" y="0" flags="0x204"/>
      <component glyphName="ogonek" x="-171" y="0" flags="0x4"/>
    </TTGlyph>
    <TTGlyph name="Iota" xMin="78" yMin="0" xMax="674" yMax="1462">
      <component glyphName="I" x="0" y="0" flags="0x204"/>
    </TTGlyph>
    <TTGlyph name="Iotadieresis" xMin="73" yMin="0" xMax="674" yMax="1862">
      <component glyphName="I" x="0" y="0" flags="0x204"/>
      <component glyphName="dieresis" x="-218" y="338" flags="0x4"/>
    </TTGlyph>
    <TTGlyph name="Iotatonos" xMin="-109" yMin="0" xMax="836" yMax="1462">
      <component glyphName="I" x="162" y="0" flags="0x4"/>
      <component glyphName="tonos" x="-613" y="-168" flags="0x4"/>
    </TTGlyph>
    <TTGlyph name="Itilde" xMin="11" yMin="0" xMax="740" yMax="1841">
      <component glyphName="I" x="0" y="0" flags="0x204"/>
      <component glyphName="tilde" x="-214" y="338" flags="0x4"/>
    </TTGlyph>
    <TTGlyph name="J" xMin="-23" yMin="-492" xMax="674" yMax="1462">
      <contour>
        <pt x="-23" y="-395" on="1"/>
        <pt x="-4" y="-395" on="1"/>
        <pt x="62" y="-395" on="0"/>
        <pt x="165" y="-358" on="0"/>
        <pt x="235" y="-271" on="0"/>
        <pt x="272" y="-126" on="0"/>
        <pt x="272" y="-18" on="1"/>
        <pt x="272" y="1237" on="1"/>
        <pt x="272" y="1282" on="0"/>
        <pt x="245" y="1337" on="0"/>
        <pt x="199" y="1367" on="0"/>
        <pt x="138" y="1376" on="0"/>
        <pt x="104" y="1376" on="1"/>
        <pt x="78" y="1376" on="1"/>
        <pt x="78" y="1462" on="1"/>
        <pt x="674" y="1462" on="1"/>
        <pt x="674" y="1376" on="1"/>
        <pt x="647" y="1376" on="1"/>
        <pt x="613" y="1376" on="0"/>
        <pt x="551" y="1366" on="0"/>
        <pt x="506" y="1335" on="0"/>
        <pt x="479" y="1277" on="0"/>
        <pt x="479" y="1229" on="1"/>
        <pt x="479" y="-16" on="1"/>
        <pt x="479" y="-154" on="0"/>
        <pt x="407" y="-337" on="0"/>
        <pt x="281" y="-446" on="0"/>
        <pt x="110" y="-492" on="0"/>
        <pt x="12" y="-492" on="1"/>
        <pt x="-23" y="-492" on="1"/>
      </contour>
    </TTGlyph>
    <TTGlyph name="Jcircumflex" xMin="-23" yMin="-492" xMax="677" yMax="1907">
      <component glyphName="J" x="0" y="0" flags="0x204"/>
      <component glyphName="circumflex" x="-216" y="338" flags="0x4"/>
    </TTGlyph>
    <TTGlyph name="K" xMin="78" yMin="0" xMax="1458" yMax="1462">
      <contour>
        <pt x="903" y="1137" on="1"/>
        <pt x="936" y="1175" on="0"/>
        <pt x="980" y="1234" on="0"/>
        <pt x="1005" y="1282" on="0"/>
        <pt x="1016" y="1318" on="0"/>
        <pt x="1016" y="1333" on="1"/>
        <pt x="1016" y="1359" on="0"/>
        <pt x="966" y="1378" on="0"/>
        <pt x="915" y="1378" on="1"/>
        <pt x="915" y="1462" on="1"/>
        <pt x="1368" y="1462" on="1"/>
        <pt x="1368" y="1378" on="1"/>
        <pt x="1333" y="1378" on="0"/>
        <pt x="1268" y="1351" on="0"/>
        <pt x="1203" y="1302" on="0"/>
        <pt x="1134" y="1231" on="0"/>
        <pt x="1094" y="1186" on="1"/>
        <pt x="797" y="852" on="1"/>
        <pt x="1229" y="250" on="1"/>
        <pt x="1288" y="169" on="0"/>
        <pt x="1397" y="86" on="0"/>
        <pt x="1454" y="86" on="1"/>
        <pt x="1458" y="86" on="1"/>
        <pt x="1458" y="0" on="1"/>
        <pt x="1436" y="0" on="1"/>
        <pt x="1333" y="0" on="0"/>
        <pt x="1201" y="16" on="0"/>
        <pt x="1111" y="58" on="0"/>
        <pt x="1044" y="129" on="0"/>
        <pt x="1006" y="184" on="1"/>
        <pt x="653" y="690" on="1"/>
        <pt x="479" y="549" on="1"/>
        <pt x="479" y="233" on="1"/>
        <pt x="479" y="185" on="0"/>
        <pt x="506" y="127" on="0"/>
        <pt x="551" y="96" on="0"/>
        <pt x="613" y="86" on="0"/>
        <pt x="647" y="86" on="1"/>
        <pt x="674" y="86" on="1"/>
        <pt x="674" y="0" on="1"/>
        <pt x="78" y="0" on="1"/>
        <pt x="78" y="86" on="1"/>
        <pt x="104" y="86" on="1"/>
        <pt x="138" y="86" on="0"/>
        <pt x="199" y="95" on="0"/>
        <pt x="245" y="123" on="0"/>
        <pt x="272" y="178" on="0"/>
        <pt x="272" y="223" on="1"/>
        <pt x="272" y="1237" on="1"/>
        <pt x="272" y="1282" on="0"/>
        <pt x="245" y="1337" on="0"/>
        <pt x="199" y="1367" on="0"/>
        <pt x="138" y="1376" on="0"/>
        <pt x="104" y="1376" on="1"/>
        <pt x="78" y="1376" on="1"/>
        <pt x="78" y="1462" on="1"/>
        <pt x="674" y="1462" on="1"/>
        <pt x="674" y="1376" on="1"/>
        <pt x="647" y="1376" on="1"/>
        <pt x="613" y="1376" on="0"/>
        <pt x="551" y="1366" on="0"/>
        <pt x="506" y="1335" on="0"/>
        <pt x="479" y="1277" on="0"/>
        <pt x="479" y="1229" on="1"/>
        <pt x="479" y="651" on="1"/>
      </contour>
    </TTGlyph>
    <TTGlyph name="Kappa" xMin="78" yMin="0" xMax="1458" yMax="1462">
      <component glyphName="K" x="0" y="0" flags="0x204"/>
    </TTGlyph>
    <TTGlyph name="Kcommaaccent" xMin="78" yMin="-453" xMax="1458" yMax="1462">
      <component glyphName="K" x="0" y="0" flags="0x204"/>
      <component glyphName="glyph00569" x="233" y="0" flags="0x4"/>
    </TTGlyph>
    <TTGlyph name="L" xMin="78" yMin="0" xMax="1190" yMax="1462">
      <contour>
        <pt x="78" y="0" on="1"/>
        <pt x="78" y="86" on="1"/>
        <pt x="104" y="86" on="1"/>
        <pt x="139" y="86" on="0"/>
        <pt x="200" y="96" on="0"/>
        <pt x="246" y="127" on="0"/>
        <pt x="272" y="185" on="0"/>
        <pt x="272" y="233" on="1"/>
        <pt x="272" y="1229" on="1"/>
        <pt x="272" y="1277" on="0"/>
        <pt x="246" y="1335" on="0"/>
        <pt x="200" y="1366" on="0"/>
        <pt x="139" y="1376" on="0"/>
        <pt x="104" y="1376" on="1"/>
        <pt x="78" y="1376" on="1"/>
        <pt x="78" y="1462" on="1"/>
        <pt x="674" y="1462" on="1"/>
        <pt x="674" y="1376" on="1"/>
        <pt x="647" y="1376" on="1"/>
        <pt x="613" y="1376" on="0"/>
        <pt x="552" y="1367" on="0"/>
        <pt x="506" y="1337" on="0"/>
        <pt x="479" y="1282" on="0"/>
        <pt x="479" y="1237" on="1"/>
        <pt x="479" y="102" on="1"/>
        <pt x="883" y="102" on="1"/>
        <pt x="929" y="102" on="0"/>
        <pt x="994" y="135" on="0"/>
        <pt x="1036" y="188" on="0"/>
        <pt x="1059" y="254" on="0"/>
        <pt x="1063" y="287" on="1"/>
        <pt x="1083" y="440" on="1"/>
        <pt x="1190" y="440" on="1"/>
        <pt x="1176" y="0" on="1"/>
      </contour>
    </TTGlyph>
    <TTGlyph name="Lacute" xMin="78" yMin="0" xMax="1190" yMax="1907">
      <component glyphName="L" x="0" y="0" flags="0x204"/>
      <component glyphName="acute" x="-87" y="338" flags="0x4"/>
    </TTGlyph>
    <TTGlyph name="Lambda" xMin="2" yMin="0" xMax="1384" yMax="1462">
      <contour>
        <pt x="770" y="1462" on="1"/>
        <pt x="1212" y="195" on="1"/>
        <pt x="1223" y="163" on="0"/>
        <pt x="1249" y="121" on="0"/>
        <pt x="1283" y="96" on="0"/>
        <pt x="1328" y="86" on="0"/>
        <pt x="1358" y="86" on="1"/>
        <pt x="1384" y="86" on="1"/>
        <pt x="1384" y="0" on="1"/>
        <pt x="821" y="0" on="1"/>
        <pt x="821" y="86" on="1"/>
        <pt x="868" y="86" on="1"/>
        <pt x="991" y="86" on="0"/>
        <pt x="991" y="184" on="1"/>
        <pt x="991" y="201" on="0"/>
        <pt x="983" y="237" on="0"/>
        <pt x="975" y="260" on="1"/>
        <pt x="750" y="932" on="1"/>
        <pt x="719" y="1023" on="0"/>
        <pt x="674" y="1187" on="0"/>
        <pt x="657" y="1262" on="1"/>
        <pt x="642" y="1187" on="0"/>
        <pt x="595" y="1028" on="0"/>
        <pt x="563" y="932" on="1"/>
        <pt x="338" y="274" on="1"/>
        <pt x="330" y="250" on="0"/>
        <pt x="319" y="203" on="0"/>
        <pt x="319" y="186" on="1"/>
        <pt x="319" y="134" on="0"/>
        <pt x="387" y="86" on="0"/>
        <pt x="455" y="86" on="1"/>
        <pt x="502" y="86" on="1"/>
        <pt x="502" y="0" on="1"/>
        <pt x="2" y="0" on="1"/>
        <pt x="2" y="86" on="1"/>
        <pt x="41" y="86" on="1"/>
        <pt x="71" y="86" on="0"/>
        <pt x="115" y="99" on="0"/>
        <pt x="150" y="134" on="0"/>
        <pt x="180" y="196" on="0"/>
        <pt x="197" y="246" on="1"/>
        <pt x="621" y="1462" on="1"/>
      </contour>
    </TTGlyph>
    <TTGlyph name="Lcaron" xMin="78" yMin="0" xMax="1190" yMax="1463">
      <component glyphName="L" x="0" y="0" flags="0x204"/>
      <component glyphName="glyph00568" x="463" y="-93" flags="0x4"/>
    </TTGlyph>
    <TTGlyph name="Lcommaaccent" xMin="78" yMin="-453" xMax="1190" yMax="1462">
      <component glyphName="L" x="0" y="0" flags="0x204"/>
      <component glyphName="glyph00569" x="143" y="0" flags="0x4"/>
    </TTGlyph>
    <TTGlyph name="Ldot" xMin="78" yMin="0" xMax="1190" yMax="1462">
      <component glyphName="L" x="0" y="0" flags="0x204"/>
      <component glyphName="dotaccent" x="657" y="-644" flags="0x4"/>
    </TTGlyph>
    <TTGlyph name="Lslash" xMin="78" yMin="0" xMax="1190" yMax="1462">
      <contour>
        <pt x="78" y="584" on="1"/>
        <pt x="272" y="696" on="1"/>
        <pt x="272" y="1229" on="1"/>
        <pt x="272" y="1277" on="0"/>
        <pt x="246" y="1335" on="0"/>
        <pt x="200" y="1366" on="0"/>
        <pt x="139" y="1376" on="0"/>
        <pt x="104" y="1376" on="1"/>
        <pt x="78" y="1376" on="1"/>
        <pt x="78" y="1462" on="1"/>
        <pt x="674" y="1462" on="1"/>
        <pt x="674" y="1376" on="1"/>
        <pt x="647" y="1376" on="1"/>
        <pt x="613" y="1376" on="0"/>
        <pt x="552" y="1367" on="0"/>
        <pt x="506" y="1337" on="0"/>
        <pt x="479" y="1282" on="0"/>
        <pt x="479" y="1237" on="1"/>
        <pt x="479" y="815" on="1"/>
        <pt x="799" y="1001" on="1"/>
        <pt x="799" y="883" on="1"/>
        <pt x="479" y="698" on="1"/>
        <pt x="479" y="102" on="1"/>
        <pt x="883" y="102" on="1"/>
        <pt x="929" y="102" on="0"/>
        <pt x="994" y="135" on="0"/>
        <pt x="1036" y="188" on="0"/>
        <pt x="1059" y="254" on="0"/>
        <pt x="1063" y="287" on="1"/>
        <pt x="1083" y="440" on="1"/>
        <pt x="1190" y="440" on="1"/>
        <pt x="1176" y="0" on="1"/>
        <pt x="78" y="0" on="1"/>
        <pt x="78" y="86" on="1"/>
        <pt x="104" y="86" on="1"/>
        <pt x="139" y="86" on="0"/>
        <pt x="200" y="96" on="0"/>
        <pt x="246" y="127" on="0"/>
        <pt x="272" y="185" on="0"/>
        <pt x="272" y="233" on="1"/>
        <pt x="272" y="580" on="1"/>
        <pt x="78" y="469" on="1"/>
      </contour>
    </TTGlyph>
    <TTGlyph name="M" xMin="78" yMin="0" xMax="1843" yMax="1462">
      <contour>
        <pt x="1298" y="0" on="1"/>
        <pt x="1298" y="86" on="1"/>
        <pt x="1305" y="86" on="1"/>
        <pt x="1338" y="86" on="0"/>
        <pt x="1391" y="95" on="0"/>
        <pt x="1428" y="122" on="0"/>
        <pt x="1450" y="173" on="0"/>
        <pt x="1452" y="215" on="1"/>
        <pt x="1452" y="1309" on="1"/>
        <pt x="983" y="0" on="1"/>
        <pt x="872" y="0" on="1"/>
        <pt x="397" y="1305" on="1"/>
        <pt x="397" y="233" on="1"/>
        <pt x="397" y="185" on="0"/>
        <pt x="417" y="127" on="0"/>
        <pt x="456" y="96" on="0"/>
        <pt x="511" y="86" on="0"/>
        <pt x="545" y="86" on="1"/>
        <pt x="551" y="86" on="1"/>
        <pt x="551" y="0" on="1"/>
        <pt x="78" y="0" on="1"/>
        <pt x="78" y="86" on="1"/>
        <pt x="104" y="86" on="1"/>
        <pt x="138" y="86" on="0"/>
        <pt x="199" y="95" on="0"/>
        <pt x="245" y="123" on="0"/>
        <pt x="272" y="178" on="0"/>
        <pt x="272" y="223" on="1"/>
        <pt x="272" y="1237" on="1"/>
        <pt x="272" y="1282" on="0"/>
        <pt x="245" y="1337" on="0"/>
        <pt x="199" y="1367" on="0"/>
        <pt x="138" y="1376" on="0"/>
        <pt x="104" y="1376" on="1"/>
        <pt x="78" y="1376" on="1"/>
        <pt x="78" y="1462" on="1"/>
        <pt x="545" y="1462" on="1"/>
        <pt x="969" y="291" on="1"/>
        <pt x="1389" y="1462" on="1"/>
        <pt x="1843" y="1462" on="1"/>
        <pt x="1843" y="1376" on="1"/>
        <pt x="1817" y="1376" on="1"/>
        <pt x="1782" y="1376" on="0"/>
        <pt x="1721" y="1366" on="0"/>
        <pt x="1675" y="1335" on="0"/>
        <pt x="1649" y="1277" on="0"/>
        <pt x="1649" y="1229" on="1"/>
        <pt x="1649" y="233" on="1"/>
        <pt x="1649" y="185" on="0"/>
        <pt x="1675" y="127" on="0"/>
        <pt x="1721" y="96" on="0"/>
        <pt x="1782" y="86" on="0"/>
        <pt x="1817" y="86" on="1"/>
        <pt x="1843" y="86" on="1"/>
        <pt x="1843" y="0" on="1"/>
      </contour>
    </TTGlyph>
    <TTGlyph name="Mu" xMin="78" yMin="0" xMax="1843" yMax="1462">
      <component glyphName="M" x="0" y="0" flags="0x204"/>
    </TTGlyph>
    <TTGlyph name="N" xMin="78" yMin="0" xMax="1505" yMax="1462">
      <contour>
        <pt x="1165" y="0" on="1"/>
        <pt x="397" y="1180" on="1"/>
        <pt x="397" y="233" on="1"/>
        <pt x="397" y="185" on="0"/>
        <pt x="424" y="127" on="0"/>
        <pt x="469" y="96" on="0"/>
        <pt x="531" y="86" on="0"/>
        <pt x="565" y="86" on="1"/>
        <pt x="592" y="86" on="1"/>
        <pt x="592" y="0" on="1"/>
        <pt x="78" y="0" on="1"/>
        <pt x="78" y="86" on="1"/>
        <pt x="104" y="86" on="1"/>
        <pt x="139" y="86" on="0"/>
        <pt x="200" y="96" on="0"/>
        <pt x="246" y="127" on="0"/>
        <pt x="272" y="185" on="0"/>
        <pt x="272" y="233" on="1"/>
        <pt x="272" y="1237" on="1"/>
        <pt x="272" y="1282" on="0"/>
        <pt x="245" y="1337" on="0"/>
        <pt x="199" y="1367" on="0"/>
        <pt x="138" y="1376" on="0"/>
        <pt x="104" y="1376" on="1"/>
        <pt x="78" y="1376" on="1"/>
        <pt x="78" y="1462" on="1"/>
        <pt x="453" y="1462" on="1"/>
        <pt x="1186" y="330" on="1"/>
        <pt x="1186" y="1237" on="1"/>
        <pt x="1186" y="1282" on="0"/>
        <pt x="1159" y="1337" on="0"/>
        <pt x="1113" y="1367" on="0"/>
        <pt x="1052" y="1376" on="0"/>
        <pt x="1018" y="1376" on="1"/>
        <pt x="991" y="1376" on="1"/>
        <pt x="991" y="1462" on="1"/>
        <pt x="1505" y="1462" on="1"/>
        <pt x="1505" y="1376" on="1"/>
        <pt x="1479" y="1376" on="1"/>
        <pt x="1444" y="1376" on="0"/>
        <pt x="1383" y="1366" on="0"/>
        <pt x="1337" y="1335" on="0"/>
        <pt x="1311" y="1277" on="0"/>
        <pt x="1311" y="1229" on="1"/>
        <pt x="1311" y="0" on="1"/>
      </contour>
    </TTGlyph>
    <TTGlyph name="Nacute" xMin="78" yMin="0" xMax="1505" yMax="1907">
      <component glyphName="N" x="0" y="0" flags="0x204"/>
      <component glyphName="acute" x="315" y="338" flags="0x4"/>
    </TTGlyph>
    <TTGlyph name="Ncaron" xMin="78" yMin="0" xMax="1505" yMax="1907">
      <component glyphName="N" x="0" y="0" flags="0x204"/>
      <component glyphName="caron" x="238" y="338" flags="0x4"/>
    </TTGlyph>
    <TTGlyph name="Ncommaaccent" xMin="78" yMin="-453" xMax="1505" yMax="1462">
      <component glyphName="N" x="0" y="0" flags="0x204"/>
      <component glyphName="glyph00569" x="293" y="0" flags="0x4"/>
    </TTGlyph>
    <TTGlyph name="Ntilde" xMin="78" yMin="0" xMax="1505" yMax="1841">
      <component glyphName="N" x="0" y="0" flags="0x204"/>
      <component glyphName="tilde" x="217" y="338" flags="0x4"/>
    </TTGlyph>
    <TTGlyph name="Nu" xMin="78" yMin="0" xMax="1505" yMax="1462">
      <component glyphName="N" x="0" y="0" flags="0x204"/>
    </TTGlyph>
    <TTGlyph name="O" xMin="115" yMin="-20" xMax="1403" yMax="1485">
      <contour>
        <pt x="1403" y="733" on="1"/>
        <pt x="1403" y="564" on="0"/>
        <pt x="1319" y="286" on="0"/>
        <pt x="1155" y="88" on="0"/>
        <pt x="915" y="-20" on="0"/>
        <pt x="760" y="-20" on="1"/>
        <pt x="597" y="-20" on="0"/>
        <pt x="355" y="88" on="0"/>
        <pt x="195" y="286" on="0"/>
        <pt x="115" y="565" on="0"/>
        <pt x="115" y="735" on="1"/>
        <pt x="115" y="905" on="0"/>
        <pt x="195" y="1182" on="0"/>
        <pt x="355" y="1378" on="0"/>
        <pt x="599" y="1485" on="0"/>
        <pt x="762" y="1485" on="1"/>
        <pt x="917" y="1485" on="0"/>
        <pt x="1155" y="1378" on="0"/>
        <pt x="1319" y="1181" on="0"/>
        <pt x="1403" y="904" on="0"/>
      </contour>
      <contour>
        <pt x="342" y="733" on="1"/>
        <pt x="342" y="581" on="0"/>
        <pt x="387" y="342" on="0"/>
        <pt x="487" y="177" on="0"/>
        <pt x="646" y="90" on="0"/>
        <pt x="760" y="90" on="1"/>
        <pt x="874" y="90" on="0"/>
        <pt x="1033" y="177" on="0"/>
        <pt x="1132" y="342" on="0"/>
        <pt x="1176" y="581" on="0"/>
        <pt x="1176" y="733" on="1"/>
        <pt x="1176" y="885" on="0"/>
        <pt x="1132" y="1124" on="0"/>
        <pt x="1033" y="1288" on="0"/>
        <pt x="876" y="1374" on="0"/>
        <pt x="762" y="1374" on="1"/>
        <pt x="648" y="1374" on="0"/>
        <pt x="488" y="1288" on="0"/>
        <pt x="387" y="1124" on="0"/>
        <pt x="342" y="885" on="0"/>
      </contour>
    </TTGlyph>
    <TTGlyph name="OE" xMin="115" yMin="-20" xMax="1878" yMax="1485">
      <contour>
        <pt x="1167" y="102" on="1"/>
        <pt x="1563" y="102" on="1"/>
        <pt x="1611" y="102" on="0"/>
        <pt x="1680" y="129" on="0"/>
        <pt x="1726" y="175" on="0"/>
        <pt x="1752" y="236" on="0"/>
        <pt x="1757" y="270" on="1"/>
        <pt x="1772" y="358" on="1"/>
        <pt x="1878" y="358" on="1"/>
        <pt x="1864" y="0" on="1"/>
        <pt x="971" y="0" on="1"/>
        <pt x="950" y="-5" on="0"/>
        <pt x="897" y="-12" on="0"/>
        <pt x="840" y="-17" on="0"/>
        <pt x="784" y="-20" on="0"/>
        <pt x="760" y="-20" on="1"/>
        <pt x="597" y="-20" on="0"/>
        <pt x="355" y="88" on="0"/>
        <pt x="195" y="286" on="0"/>
        <pt x="115" y="565" on="0"/>
        <pt x="115" y="735" on="1"/>
        <pt x="115" y="905" on="0"/>
        <pt x="195" y="1182" on="0"/>
        <pt x="355" y="1378" on="0"/>
        <pt x="599" y="1485" on="0"/>
        <pt x="762" y="1485" on="1"/>
        <pt x="786" y="1485" on="0"/>
        <pt x="843" y="1482" on="0"/>
        <pt x="900" y="1476" on="0"/>
        <pt x="952" y="1468" on="0"/>
        <pt x="973" y="1462" on="1"/>
        <pt x="1798" y="1462" on="1"/>
        <pt x="1808" y="1104" on="1"/>
        <pt x="1702" y="1104" on="1"/>
        <pt x="1692" y="1192" on="1"/>
        <pt x="1688" y="1226" on="0"/>
        <pt x="1665" y="1287" on="0"/>
        <pt x="1622" y="1333" on="0"/>
        <pt x="1557" y="1360" on="0"/>
        <pt x="1511" y="1360" on="1"/>
        <pt x="1167" y="1360" on="1"/>
        <pt x="1167" y="815" on="1"/>
        <pt x="1661" y="815" on="1"/>
        <pt x="1661" y="715" on="1"/>
        <pt x="1167" y="715" on="1"/>
      </contour>
      <contour>
        <pt x="760" y="90" on="1"/>
        <pt x="820" y="90" on="0"/>
        <pt x="920" y="107" on="0"/>
        <pt x="961" y="121" on="1"/>
        <pt x="961" y="1339" on="1"/>
        <pt x="920" y="1356" on="0"/>
        <pt x="822" y="1374" on="0"/>
        <pt x="762" y="1374" on="1"/>
        <pt x="648" y="1374" on="0"/>
        <pt x="488" y="1288" on="0"/>
        <pt x="387" y="1124" on="0"/>
        <pt x="342" y="885" on="0"/>
        <pt x="342" y="733" on="1"/>
        <pt x="342" y="581" on="0"/>
        <pt x="387" y="342" on="0"/>
        <pt x="487" y="177" on="0"/>
        <pt x="646" y="90" on="0"/>
      </contour>
    </TTGlyph>
    <TTGlyph name="Oacute" xMin="115" yMin="-20" xMax="1403" yMax="1907">
      <component glyphName="O" x="0" y="0" flags="0x204"/>
      <component glyphName="acute" x="258" y="338" flags="0x4"/>
    </TTGlyph>
    <TTGlyph name="Obreve" xMin="115" yMin="-20" xMax="1403" yMax="1860">
      <component glyphName="O" x="0" y="0" flags="0x204"/>
      <component glyphName="breve" x="170" y="338" flags="0x4"/>
    </TTGlyph>
    <TTGlyph name="Ocircumflex" xMin="115" yMin="-20" xMax="1403" yMax="1907">
      <component glyphName="O" x="0" y="0" flags="0x204"/>
      <component glyphName="circumflex" x="170" y="338" flags="0x4"/>
    </TTGlyph>
    <TTGlyph name="Odieresis" xMin="115" yMin="-20" xMax="1403" yMax="1862">
      <component glyphName="O" x="0" y="0" flags="0x204"/>
      <component glyphName="dieresis" x="164" y="338" flags="0x4"/>
    </TTGlyph>
    <TTGlyph name="Ograve" xMin="115" yMin="-20" xMax="1403" yMax="1907">
      <component glyphName="O" x="0" y="0" flags="0x204"/>
      <component glyphName="grave" x="70" y="338" flags="0x4"/>
    </TTGlyph>
    <TTGlyph name="Ohorn" xMin="115" yMin="-20" xMax="1573" yMax="1577">
      <contour>
        <pt x="1290" y="1204" on="1"/>
        <pt x="1419" y="1239" on="0"/>
        <pt x="1419" y="1333" on="1"/>
        <pt x="1419" y="1360" on="0"/>
        <pt x="1331" y="1426" on="0"/>
        <pt x="1331" y="1475" on="1"/>
        <pt x="1331" y="1577" on="0"/>
        <pt x="1448" y="1577" on="1"/>
        <pt x="1573" y="1577" on="0"/>
        <pt x="1573" y="1448" on="1"/>
        <pt x="1573" y="1227" on="0"/>
        <pt x="1325" y="1137" on="1"/>
        <pt x="1403" y="962" on="0"/>
        <pt x="1403" y="733" on="1"/>
        <pt x="1403" y="383" on="0"/>
        <pt x="1060" y="-20" on="0"/>
        <pt x="760" y="-20" on="1"/>
        <pt x="449" y="-20" on="0"/>
        <pt x="115" y="379" on="0"/>
        <pt x="115" y="735" on="1"/>
        <pt x="115" y="1092" on="0"/>
        <pt x="450" y="1485" on="0"/>
        <pt x="762" y="1485" on="1"/>
        <pt x="1118" y="1485" on="0"/>
      </contour>
      <contour>
        <pt x="760" y="90" on="1"/>
        <pt x="1176" y="90" on="0"/>
        <pt x="1176" y="733" on="1"/>
        <pt x="1176" y="1374" on="0"/>
        <pt x="762" y="1374" on="1"/>
        <pt x="342" y="1374" on="0"/>
        <pt x="342" y="733" on="1"/>
        <pt x="342" y="90" on="0"/>
      </contour>
    </TTGlyph>
    <TTGlyph name="Ohungarumlaut" xMin="115" yMin="-20" xMax="1403" yMax="1907">
      <component glyphName="O" x="0" y="0" flags="0x204"/>
      <component glyphName="hungarumlaut" x="236" y="338" flags="0x4"/>
    </TTGlyph>
    <TTGlyph name="Omacron" xMin="115" yMin="-20" xMax="1403" yMax="1721">
      <component glyphName="O" x="0" y="0" flags="0x204"/>
      <component glyphName="uni02C9" x="244" y="338" flags="0x4"/>
    </TTGlyph>
    <TTGlyph name="Omega" xMin="86" yMin="0" xMax="1456" yMax="1485">
      <contour>
        <pt x="127" y="897" on="1"/>
        <pt x="127" y="1030" on="0"/>
        <pt x="207" y="1247" on="0"/>
        <pt x="367" y="1401" on="0"/>
        <pt x="611" y="1485" on="0"/>
        <pt x="774" y="1485" on="1"/>
        <pt x="929" y="1485" on="0"/>
        <pt x="1167" y="1401" on="0"/>
        <pt x="1331" y="1247" on="0"/>
        <pt x="1415" y="1030" on="0"/>
        <pt x="1415" y="897" on="1"/>
        <pt x="1415" y="671" on="0"/>
        <pt x="1177" y="389" on="0"/>
        <pt x="950" y="344" on="1"/>
        <pt x="946" y="164" on="1"/>
        <pt x="1141" y="164" on="1"/>
        <pt x="1189" y="164" on="0"/>
        <pt x="1257" y="178" on="0"/>
        <pt x="1302" y="209" on="0"/>
        <pt x="1328" y="257" on="0"/>
        <pt x="1335" y="291" on="1"/>
        <pt x="1350" y="358" on="1"/>
        <pt x="1456" y="358" on="1"/>
        <pt x="1442" y="0" on="1"/>
        <pt x="834" y="0" on="1"/>
        <pt x="848" y="428" on="1"/>
        <pt x="941" y="438" on="0"/>
        <pt x="1071" y="511" on="0"/>
        <pt x="1152" y="631" on="0"/>
        <pt x="1188" y="796" on="0"/>
        <pt x="1188" y="899" on="1"/>
        <pt x="1188" y="1012" on="0"/>
        <pt x="1144" y="1189" on="0"/>
        <pt x="1045" y="1310" on="0"/>
        <pt x="888" y="1374" on="0"/>
        <pt x="774" y="1374" on="1"/>
        <pt x="660" y="1374" on="0"/>
        <pt x="500" y="1310" on="0"/>
        <pt x="399" y="1189" on="0"/>
        <pt x="354" y="1012" on="0"/>
        <pt x="354" y="899" on="1"/>
        <pt x="354" y="796" on="0"/>
        <pt x="391" y="631" on="0"/>
        <pt x="472" y="511" on="0"/>
        <pt x="601" y="438" on="0"/>
        <pt x="694" y="428" on="1"/>
        <pt x="709" y="0" on="1"/>
        <pt x="100" y="0" on="1"/>
        <pt x="86" y="358" on="1"/>
        <pt x="193" y="358" on="1"/>
        <pt x="207" y="291" on="1"/>
        <pt x="214" y="257" on="0"/>
        <pt x="240" y="209" on="0"/>
        <pt x="285" y="178" on="0"/>
        <pt x="353" y="164" on="0"/>
        <pt x="401" y="164" on="1"/>
        <pt x="596" y="164" on="1"/>
        <pt x="592" y="344" on="1"/>
        <pt x="365" y="389" on="0"/>
        <pt x="127" y="671" on="0"/>
      </contour>
    </TTGlyph>
    <TTGlyph name="Omegatonos" xMin="-68" yMin="0" xMax="1456" yMax="1485">
      <component glyphName="Omega" x="0" y="0" flags="0x204"/>
      <component glyphName="tonos" x="-572" y="-168" flags="0x4"/>
    </TTGlyph>
    <TTGlyph name="Omicron" xMin="115" yMin="-20" xMax="1403" yMax="1485">
      <component glyphName="O" x="0" y="0" flags="0x204"/>
    </TTGlyph>
    <TTGlyph name="Omicrontonos" xMin="-68" yMin="-20" xMax="1403" yMax="1485">
      <component glyphName="O" x="0" y="0" flags="0x204"/>
      <component glyphName="tonos" x="-572" y="-168" flags="0x4"/>
    </TTGlyph>
    <TTGlyph name="Oslash" xMin="115" yMin="-82" xMax="1403" yMax="1546">
      <contour>
        <pt x="1163" y="1354" on="1"/>
        <pt x="1281" y="1257" on="0"/>
        <pt x="1403" y="941" on="0"/>
        <pt x="1403" y="733" on="1"/>
        <pt x="1403" y="564" on="0"/>
        <pt x="1319" y="286" on="0"/>
        <pt x="1155" y="88" on="0"/>
        <pt x="915" y="-20" on="0"/>
        <pt x="760" y="-20" on="1"/>
        <pt x="667" y="-20" on="0"/>
        <pt x="508" y="15" on="0"/>
        <pt x="442" y="49" on="1"/>
        <pt x="371" y="-82" on="1"/>
        <pt x="250" y="-82" on="1"/>
        <pt x="354" y="106" on="1"/>
        <pt x="233" y="204" on="0"/>
        <pt x="115" y="525" on="0"/>
        <pt x="115" y="735" on="1"/>
        <pt x="115" y="905" on="0"/>
        <pt x="195" y="1182" on="0"/>
        <pt x="355" y="1378" on="0"/>
        <pt x="599" y="1485" on="0"/>
        <pt x="762" y="1485" on="1"/>
        <pt x="853" y="1485" on="0"/>
        <pt x="1009" y="1446" on="0"/>
        <pt x="1075" y="1411" on="1"/>
        <pt x="1151" y="1546" on="1"/>
        <pt x="1270" y="1546" on="1"/>
      </contour>
      <contour>
        <pt x="342" y="733" on="1"/>
        <pt x="342" y="578" on="0"/>
        <pt x="387" y="342" on="0"/>
        <pt x="438" y="258" on="1"/>
        <pt x="1010" y="1292" on="1"/>
        <pt x="916" y="1374" on="0"/>
        <pt x="762" y="1374" on="1"/>
        <pt x="648" y="1374" on="0"/>
        <pt x="488" y="1288" on="0"/>
        <pt x="387" y="1124" on="0"/>
        <pt x="342" y="885" on="0"/>
      </contour>
      <contour>
        <pt x="1176" y="733" on="1"/>
        <pt x="1176" y="886" on="0"/>
        <pt x="1131" y="1123" on="0"/>
        <pt x="1081" y="1206" on="1"/>
        <pt x="510" y="170" on="1"/>
        <pt x="605" y="90" on="0"/>
        <pt x="760" y="90" on="1"/>
        <pt x="874" y="90" on="0"/>
        <pt x="1033" y="177" on="0"/>
        <pt x="1132" y="342" on="0"/>
        <pt x="1176" y="581" on="0"/>
      </contour>
    </TTGlyph>
    <TTGlyph name="Oslashacute" xMin="115" yMin="-82" xMax="1403" yMax="1907">
      <component glyphName="Oslash" x="0" y="0" flags="0x204"/>
      <component glyphName="acute" x="258" y="338" flags="0x4"/>
    </TTGlyph>
    <TTGlyph name="Otilde" xMin="115" yMin="-20" xMax="1403" yMax="1841">
      <component glyphName="O" x="0" y="0" flags="0x204"/>
      <component glyphName="tilde" x="156" y="338" flags="0x4"/>
    </TTGlyph>
    <TTGlyph name="P" xMin="78" yMin="0" xMax="1157" yMax="1462">
      <contour>
        <pt x="78" y="0" on="1"/>
        <pt x="78" y="86" on="1"/>
        <pt x="104" y="86" on="1"/>
        <pt x="139" y="86" on="0"/>
        <pt x="200" y="96" on="0"/>
        <pt x="246" y="127" on="0"/>
        <pt x="272" y="185" on="0"/>
        <pt x="272" y="233" on="1"/>
        <pt x="272" y="1237" on="1"/>
        <pt x="272" y="1282" on="0"/>
        <pt x="245" y="1337" on="0"/>
        <pt x="199" y="1367" on="0"/>
        <pt x="138" y="1376" on="0"/>
        <pt x="104" y="1376" on="1"/>
        <pt x="78" y="1376" on="1"/>
        <pt x="78" y="1462" on="1"/>
        <pt x="653" y="1462" on="1"/>
        <pt x="782" y="1462" on="0"/>
        <pt x="972" y="1403" on="0"/>
        <pt x="1096" y="1292" on="0"/>
        <pt x="1157" y="1134" on="0"/>
        <pt x="1157" y="1034" on="1"/>
        <pt x="1157" y="943" on="0"/>
        <pt x="1100" y="775" on="0"/>
        <pt x="970" y="646" on="0"/>
        <pt x="760" y="569" on="0"/>
        <pt x="608" y="569" on="1"/>
        <pt x="479" y="569" on="1"/>
        <pt x="479" y="223" on="1"/>
        <pt x="479" y="178" on="0"/>
        <pt x="506" y="123" on="0"/>
        <pt x="552" y="95" on="0"/>
        <pt x="613" y="86" on="0"/>
        <pt x="647" y="86" on="1"/>
        <pt x="715" y="86" on="1"/>
        <pt x="715" y="0" on="1"/>
      </contour>
      <contour>
        <pt x="479" y="666" on="1"/>
        <pt x="588" y="666" on="1"/>
        <pt x="681" y="666" on="0"/>
        <pt x="813" y="705" on="0"/>
        <pt x="897" y="792" on="0"/>
        <pt x="936" y="929" on="0"/>
        <pt x="936" y="1026" on="1"/>
        <pt x="936" y="1112" on="0"/>
        <pt x="902" y="1239" on="0"/>
        <pt x="826" y="1323" on="0"/>
        <pt x="705" y="1364" on="0"/>
        <pt x="618" y="1364" on="1"/>
        <pt x="479" y="1364" on="1"/>
      </contour>
    </TTGlyph>
    <TTGlyph name="Phi" xMin="68" yMin="0" xMax="1497" yMax="1462">
      <contour>
        <pt x="881" y="371" on="1"/>
        <pt x="928" y="371" on="1"/>
        <pt x="1021" y="371" on="0"/>
        <pt x="1153" y="417" on="0"/>
        <pt x="1237" y="511" on="0"/>
        <pt x="1276" y="655" on="0"/>
        <pt x="1276" y="752" on="1"/>
        <pt x="1276" y="838" on="0"/>
        <pt x="1242" y="971" on="0"/>
        <pt x="1166" y="1063" on="0"/>
        <pt x="1045" y="1110" on="0"/>
        <pt x="958" y="1110" on="1"/>
        <pt x="881" y="1110" on="1"/>
      </contour>
      <contour>
        <pt x="489" y="0" on="1"/>
        <pt x="489" y="86" on="1"/>
        <pt x="516" y="86" on="1"/>
        <pt x="551" y="86" on="0"/>
        <pt x="612" y="96" on="0"/>
        <pt x="657" y="127" on="0"/>
        <pt x="684" y="185" on="0"/>
        <pt x="684" y="233" on="1"/>
        <pt x="684" y="274" on="1"/>
        <pt x="616" y="274" on="1"/>
        <pt x="515" y="274" on="0"/>
        <pt x="355" y="312" on="0"/>
        <pt x="233" y="379" on="0"/>
        <pt x="147" y="472" on="0"/>
        <pt x="93" y="580" on="0"/>
        <pt x="68" y="699" on="0"/>
        <pt x="68" y="760" on="1"/>
        <pt x="68" y="860" on="0"/>
        <pt x="128" y="1025" on="0"/>
        <pt x="253" y="1143" on="0"/>
        <pt x="442" y="1208" on="0"/>
        <pt x="571" y="1208" on="1"/>
        <pt x="684" y="1208" on="1"/>
        <pt x="684" y="1229" on="1"/>
        <pt x="684" y="1277" on="0"/>
        <pt x="657" y="1335" on="0"/>
        <pt x="612" y="1366" on="0"/>
        <pt x="551" y="1376" on="0"/>
        <pt x="516" y="1376" on="1"/>
        <pt x="489" y="1376" on="1"/>
        <pt x="489" y="1462" on="1"/>
        <pt x="1075" y="1462" on="1"/>
        <pt x="1075" y="1376" on="1"/>
        <pt x="1049" y="1376" on="1"/>
        <pt x="1014" y="1376" on="0"/>
        <pt x="953" y="1366" on="0"/>
        <pt x="907" y="1335" on="0"/>
        <pt x="881" y="1277" on="0"/>
        <pt x="881" y="1229" on="1"/>
        <pt x="881" y="1208" on="1"/>
        <pt x="993" y="1208" on="1"/>
        <pt x="1122" y="1208" on="0"/>
        <pt x="1312" y="1143" on="0"/>
        <pt x="1436" y="1025" on="0"/>
        <pt x="1497" y="860" on="0"/>
        <pt x="1497" y="760" on="1"/>
        <pt x="1497" y="699" on="0"/>
        <pt x="1472" y="580" on="0"/>
        <pt x="1418" y="472" on="0"/>
        <pt x="1332" y="379" on="0"/>
        <pt x="1210" y="312" on="0"/>
        <pt x="1050" y="274" on="0"/>
        <pt x="948" y="274" on="1"/>
        <pt x="881" y="274" on="1"/>
        <pt x="881" y="233" on="1"/>
        <pt x="881" y="185" on="0"/>
        <pt x="907" y="127" on="0"/>
        <pt x="953" y="96" on="0"/>
        <pt x="1014" y="86" on="0"/>
        <pt x="1049" y="86" on="1"/>
        <pt x="1075" y="86" on="1"/>
        <pt x="1075" y="0" on="1"/>
      </contour>
      <contour>
        <pt x="684" y="1110" on="1"/>
        <pt x="606" y="1110" on="1"/>
        <pt x="519" y="1110" on="0"/>
        <pt x="399" y="1063" on="0"/>
        <pt x="323" y="971" on="0"/>
        <pt x="289" y="838" on="0"/>
        <pt x="289" y="752" on="1"/>
        <pt x="289" y="655" on="0"/>
        <pt x="328" y="511" on="0"/>
        <pt x="412" y="417" on="0"/>
        <pt x="544" y="371" on="0"/>
        <pt x="637" y="371" on="1"/>
        <pt x="684" y="371" on="1"/>
      </contour>
    </TTGlyph>
    <TTGlyph name="Pi" xMin="78" yMin="0" xMax="1485" yMax="1462">
      <contour>
        <pt x="78" y="1462" on="1"/>
        <pt x="1485" y="1462" on="1"/>
        <pt x="1485" y="1376" on="1"/>
        <pt x="1458" y="1376" on="1"/>
        <pt x="1424" y="1376" on="0"/>
        <pt x="1362" y="1366" on="0"/>
        <pt x="1317" y="1335" on="0"/>
        <pt x="1290" y="1277" on="0"/>
        <pt x="1290" y="1229" on="1"/>
        <pt x="1290" y="223" on="1"/>
        <pt x="1290" y="178" on="0"/>
        <pt x="1317" y="123" on="0"/>
        <pt x="1363" y="95" on="0"/>
        <pt x="1424" y="86" on="0"/>
        <pt x="1458" y="86" on="1"/>
        <pt x="1485" y="86" on="1"/>
        <pt x="1485" y="0" on="1"/>
        <pt x="889" y="0" on="1"/>
        <pt x="889" y="86" on="1"/>
        <pt x="915" y="86" on="1"/>
        <pt x="950" y="86" on="0"/>
        <pt x="1011" y="96" on="0"/>
        <pt x="1057" y="127" on="0"/>
        <pt x="1083" y="185" on="0"/>
        <pt x="1083" y="233" on="1"/>
        <pt x="1083" y="1360" on="1"/>
        <pt x="479" y="1360" on="1"/>
        <pt x="479" y="233" on="1"/>
        <pt x="479" y="185" on="0"/>
        <pt x="506" y="127" on="0"/>
        <pt x="551" y="96" on="0"/>
        <pt x="613" y="86" on="0"/>
        <pt x="647" y="86" on="1"/>
        <pt x="674" y="86" on="1"/>
        <pt x="674" y="0" on="1"/>
        <pt x="78" y="0" on="1"/>
        <pt x="78" y="86" on="1"/>
        <pt x="104" y="86" on="1"/>
        <pt x="139" y="86" on="0"/>
        <pt x="200" y="96" on="0"/>
        <pt x="246" y="127" on="0"/>
        <pt x="272" y="185" on="0"/>
        <pt x="272" y="233" on="1"/>
        <pt x="272" y="1237" on="1"/>
        <pt x="272" y="1282" on="0"/>
        <pt x="245" y="1337" on="0"/>
        <pt x="199" y="1367" on="0"/>
        <pt x="138" y="1376" on="0"/>
        <pt x="104" y="1376" on="1"/>
        <pt x="78" y="1376" on="1"/>
      </contour>
    </TTGlyph>
    <TTGlyph name="Psi" xMin="25" yMin="0" xMax="1671" yMax="1462">
      <contour>
        <pt x="946" y="606" on="1"/>
        <pt x="993" y="606" on="1"/>
        <pt x="1086" y="606" on="0"/>
        <pt x="1205" y="649" on="0"/>
        <pt x="1274" y="741" on="0"/>
        <pt x="1300" y="882" on="0"/>
        <pt x="1300" y="979" on="1"/>
        <pt x="1300" y="1462" on="1"/>
        <pt x="1671" y="1462" on="1"/>
        <pt x="1671" y="1376" on="1"/>
        <pt x="1637" y="1376" on="0"/>
        <pt x="1575" y="1366" on="0"/>
        <pt x="1530" y="1335" on="0"/>
        <pt x="1503" y="1277" on="0"/>
        <pt x="1503" y="1229" on="1"/>
        <pt x="1503" y="975" on="1"/>
        <pt x="1503" y="914" on="0"/>
        <pt x="1487" y="798" on="0"/>
        <pt x="1446" y="694" on="0"/>
        <pt x="1375" y="608" on="0"/>
        <pt x="1266" y="545" on="0"/>
        <pt x="1115" y="510" on="0"/>
        <pt x="1014" y="510" on="1"/>
        <pt x="946" y="510" on="1"/>
        <pt x="946" y="233" on="1"/>
        <pt x="946" y="185" on="0"/>
        <pt x="973" y="127" on="0"/>
        <pt x="1018" y="96" on="0"/>
        <pt x="1080" y="86" on="0"/>
        <pt x="1114" y="86" on="1"/>
        <pt x="1141" y="86" on="1"/>
        <pt x="1141" y="0" on="1"/>
        <pt x="555" y="0" on="1"/>
        <pt x="555" y="86" on="1"/>
        <pt x="582" y="86" on="1"/>
        <pt x="617" y="86" on="0"/>
        <pt x="678" y="96" on="0"/>
        <pt x="723" y="127" on="0"/>
        <pt x="750" y="185" on="0"/>
        <pt x="750" y="233" on="1"/>
        <pt x="750" y="510" on="1"/>
        <pt x="682" y="510" on="1"/>
        <pt x="581" y="510" on="0"/>
        <pt x="429" y="545" on="0"/>
        <pt x="320" y="608" on="0"/>
        <pt x="250" y="694" on="0"/>
        <pt x="209" y="798" on="0"/>
        <pt x="193" y="914" on="0"/>
        <pt x="193" y="975" on="1"/>
        <pt x="193" y="1229" on="1"/>
        <pt x="193" y="1277" on="0"/>
        <pt x="166" y="1335" on="0"/>
        <pt x="121" y="1366" on="0"/>
        <pt x="60" y="1376" on="0"/>
        <pt x="25" y="1376" on="1"/>
        <pt x="25" y="1462" on="1"/>
        <pt x="395" y="1462" on="1"/>
        <pt x="395" y="979" on="1"/>
        <pt x="395" y="882" on="0"/>
        <pt x="421" y="741" on="0"/>
        <pt x="490" y="649" on="0"/>
        <pt x="609" y="606" on="0"/>
        <pt x="702" y="606" on="1"/>
        <pt x="750" y="606" on="1"/>
        <pt x="750" y="1229" on="1"/>
        <pt x="750" y="1277" on="0"/>
        <pt x="723" y="1335" on="0"/>
        <pt x="678" y="1366" on="0"/>
        <pt x="617" y="1376" on="0"/>
        <pt x="582" y="1376" on="1"/>
        <pt x="555" y="1376" on="1"/>
        <pt x="555" y="1462" on="1"/>
        <pt x="1141" y="1462" on="1"/>
        <pt x="1141" y="1376" on="1"/>
        <pt x="1114" y="1376" on="1"/>
        <pt x="1080" y="1376" on="0"/>
        <pt x="1018" y="1366" on="0"/>
        <pt x="973" y="1335" on="0"/>
        <pt x="946" y="1277" on="0"/>
        <pt x="946" y="1229" on="1"/>
      </contour>
    </TTGlyph>
    <TTGlyph name="Q" xMin="115" yMin="-471" xMax="1403" yMax="1485">
      <contour>
        <pt x="1403" y="733" on="1"/>
        <pt x="1403" y="583" on="0"/>
        <pt x="1337" y="331" on="0"/>
        <pt x="1208" y="139" on="0"/>
        <pt x="1019" y="14" on="0"/>
        <pt x="897" y="-8" on="1"/>
        <pt x="906" y="-113" on="0"/>
        <pt x="956" y="-254" on="0"/>
        <pt x="1034" y="-339" on="0"/>
        <pt x="1138" y="-375" on="0"/>
        <pt x="1200" y="-375" on="1"/>
        <pt x="1233" y="-375" on="1"/>
        <pt x="1233" y="-471" on="1"/>
        <pt x="1145" y="-471" on="1"/>
        <pt x="1064" y="-471" on="0"/>
        <pt x="903" y="-428" on="0"/>
        <pt x="771" y="-323" on="0"/>
        <pt x="682" y="-148" on="0"/>
        <pt x="672" y="-16" on="1"/>
        <pt x="531" y="-1" on="0"/>
        <pt x="322" y="118" on="0"/>
        <pt x="184" y="313" on="0"/>
        <pt x="115" y="576" on="0"/>
        <pt x="115" y="735" on="1"/>
        <pt x="115" y="905" on="0"/>
        <pt x="195" y="1182" on="0"/>
        <pt x="355" y="1378" on="0"/>
        <pt x="599" y="1485" on="0"/>
        <pt x="762" y="1485" on="1"/>
        <pt x="917" y="1485" on="0"/>
        <pt x="1155" y="1378" on="0"/>
        <pt x="1319" y="1181" on="0"/>
        <pt x="1403" y="904" on="0"/>
      </contour>
      <contour>
        <pt x="342" y="733" on="1"/>
        <pt x="342" y="581" on="0"/>
        <pt x="387" y="342" on="0"/>
        <pt x="487" y="177" on="0"/>
        <pt x="646" y="90" on="0"/>
        <pt x="760" y="90" on="1"/>
        <pt x="874" y="90" on="0"/>
        <pt x="1033" y="177" on="0"/>
        <pt x="1132" y="342" on="0"/>
        <pt x="1176" y="581" on="0"/>
        <pt x="1176" y="733" on="1"/>
        <pt x="1176" y="885" on="0"/>
        <pt x="1132" y="1124" on="0"/>
        <pt x="1033" y="1288" on="0"/>
        <pt x="876" y="1374" on="0"/>
        <pt x="762" y="1374" on="1"/>
        <pt x="648" y="1374" on="0"/>
        <pt x="488" y="1288" on="0"/>
        <pt x="387" y="1124" on="0"/>
        <pt x="342" y="885" on="0"/>
      </contour>
    </TTGlyph>
    <TTGlyph name="R" xMin="78" yMin="0" xMax="1356" yMax="1462">
      <contour>
        <pt x="1135" y="250" on="1"/>
        <pt x="1187" y="168" on="0"/>
        <pt x="1285" y="86" on="0"/>
        <pt x="1350" y="86" on="1"/>
        <pt x="1356" y="86" on="1"/>
        <pt x="1356" y="0" on="1"/>
        <pt x="1327" y="0" on="1"/>
        <pt x="1231" y="0" on="0"/>
        <pt x="1108" y="14" on="0"/>
        <pt x="1022" y="54" on="0"/>
        <pt x="961" y="126" on="0"/>
        <pt x="926" y="184" on="1"/>
        <pt x="649" y="645" on="1"/>
        <pt x="479" y="645" on="1"/>
        <pt x="479" y="223" on="1"/>
        <pt x="479" y="178" on="0"/>
        <pt x="506" y="123" on="0"/>
        <pt x="552" y="95" on="0"/>
        <pt x="613" y="86" on="0"/>
        <pt x="647" y="86" on="1"/>
        <pt x="674" y="86" on="1"/>
        <pt x="674" y="0" on="1"/>
        <pt x="78" y="0" on="1"/>
        <pt x="78" y="86" on="1"/>
        <pt x="104" y="86" on="1"/>
        <pt x="138" y="86" on="0"/>
        <pt x="199" y="95" on="0"/>
        <pt x="245" y="123" on="0"/>
        <pt x="272" y="178" on="0"/>
        <pt x="272" y="223" on="1"/>
        <pt x="272" y="1237" on="1"/>
        <pt x="272" y="1282" on="0"/>
        <pt x="245" y="1337" on="0"/>
        <pt x="199" y="1367" on="0"/>
        <pt x="138" y="1376" on="0"/>
        <pt x="104" y="1376" on="1"/>
        <pt x="78" y="1376" on="1"/>
        <pt x="78" y="1462" on="1"/>
        <pt x="629" y="1462" on="1"/>
        <pt x="895" y="1462" on="0"/>
        <pt x="1155" y="1265" on="0"/>
        <pt x="1155" y="1067" on="1"/>
        <pt x="1155" y="985" on="0"/>
        <pt x="1102" y="862" on="0"/>
        <pt x="1016" y="772" on="0"/>
        <pt x="908" y="712" on="0"/>
        <pt x="854" y="694" on="1"/>
      </contour>
      <contour>
        <pt x="479" y="741" on="1"/>
        <pt x="623" y="741" on="1"/>
        <pt x="713" y="741" on="0"/>
        <pt x="833" y="781" on="0"/>
        <pt x="905" y="861" on="0"/>
        <pt x="936" y="981" on="0"/>
        <pt x="936" y="1061" on="1"/>
        <pt x="936" y="1143" on="0"/>
        <pt x="902" y="1258" on="0"/>
        <pt x="826" y="1331" on="0"/>
        <pt x="705" y="1364" on="0"/>
        <pt x="618" y="1364" on="1"/>
        <pt x="479" y="1364" on="1"/>
      </contour>
    </TTGlyph>
    <TTGlyph name="Racute" xMin="78" yMin="0" xMax="1356" yMax="1907">
      <component glyphName="R" x="0" y="0" flags="0x204"/>
      <component glyphName="acute" x="133" y="338" flags="0x4"/>
    </TTGlyph>
    <TTGlyph name="Rcaron" xMin="78" yMin="0" xMax="1356" yMax="1907">
      <component glyphName="R" x="0" y="0" flags="0x204"/>
      <component glyphName="caron" x="33" y="338" flags="0x4"/>
    </TTGlyph>
    <TTGlyph name="Rcommaaccent" xMin="78" yMin="-453" xMax="1356" yMax="1462">
      <component glyphName="R" x="0" y="0" flags="0x204"/>
      <component glyphName="glyph00569" x="154" y="0" flags="0x4"/>
    </TTGlyph>
    <TTGlyph name="Rho" xMin="78" yMin="0" xMax="1157" yMax="1462">
      <component glyphName="P" x="0" y="0" flags="0x204"/>
    </TTGlyph>
    <TTGlyph name="S" xMin="98" yMin="-20" xMax="1010" yMax="1483">
      <contour>
        <pt x="506" y="-20" on="1"/>
        <pt x="406" y="-20" on="0"/>
        <pt x="253" y="22" on="0"/>
        <pt x="150" y="97" on="0"/>
        <pt x="98" y="204" on="0"/>
        <pt x="98" y="268" on="1"/>
        <pt x="98" y="330" on="0"/>
        <pt x="175" y="406" on="0"/>
        <pt x="246" y="406" on="1"/>
        <pt x="249" y="342" on="0"/>
        <pt x="282" y="224" on="0"/>
        <pt x="348" y="134" on="0"/>
        <pt x="450" y="80" on="0"/>
        <pt x="522" y="80" on="1"/>
        <pt x="660" y="80" on="0"/>
        <pt x="815" y="213" on="0"/>
        <pt x="815" y="338" on="1"/>
        <pt x="815" y="394" on="0"/>
        <pt x="783" y="480" on="0"/>
        <pt x="709" y="553" on="0"/>
        <pt x="588" y="620" on="0"/>
        <pt x="498" y="657" on="1"/>
        <pt x="403" y="696" on="0"/>
        <pt x="261" y="785" on="0"/>
        <pt x="167" y="894" on="0"/>
        <pt x="121" y="1028" on="0"/>
        <pt x="121" y="1112" on="1"/>
        <pt x="121" y="1200" on="0"/>
        <pt x="188" y="1338" on="0"/>
        <pt x="308" y="1433" on="0"/>
        <pt x="472" y="1483" on="0"/>
        <pt x="569" y="1483" on="1"/>
        <pt x="661" y="1483" on="0"/>
        <pt x="803" y="1445" on="0"/>
        <pt x="901" y="1381" on="0"/>
        <pt x="952" y="1298" on="0"/>
        <pt x="952" y="1253" on="1"/>
        <pt x="952" y="1187" on="0"/>
        <pt x="865" y="1120" on="0"/>
        <pt x="791" y="1120" on="1"/>
        <pt x="791" y="1168" on="0"/>
        <pt x="768" y="1261" on="0"/>
        <pt x="714" y="1334" on="0"/>
        <pt x="626" y="1380" on="0"/>
        <pt x="561" y="1380" on="1"/>
        <pt x="502" y="1380" on="0"/>
        <pt x="409" y="1347" on="0"/>
        <pt x="345" y="1286" on="0"/>
        <pt x="311" y="1200" on="0"/>
        <pt x="311" y="1147" on="1"/>
        <pt x="311" y="1086" on="0"/>
        <pt x="343" y="993" on="0"/>
        <pt x="418" y="918" on="0"/>
        <pt x="540" y="851" on="0"/>
        <pt x="629" y="815" on="1"/>
        <pt x="719" y="778" on="0"/>
        <pt x="860" y="696" on="0"/>
        <pt x="958" y="595" on="0"/>
        <pt x="1010" y="470" on="0"/>
        <pt x="1010" y="391" on="1"/>
        <pt x="1010" y="294" on="0"/>
        <pt x="939" y="141" on="0"/>
        <pt x="807" y="35" on="0"/>
        <pt x="621" y="-20" on="0"/>
      </contour>
    </TTGlyph>
    <TTGlyph name="SF010000" xMin="653" yMin="-492" xMax="1460" yMax="823">
      <contour>
        <pt x="653" y="823" on="1"/>
        <pt x="1460" y="823" on="1"/>
        <pt x="1460" y="678" on="1"/>
        <pt x="799" y="678" on="1"/>
        <pt x="799" y="-492" on="1"/>
        <pt x="653" y="-492" on="1"/>
      </contour>
    </TTGlyph>
    <TTGlyph name="SF020000" xMin="653" yMin="678" xMax="1460" yMax="1993">
      <contour>
        <pt x="653" y="1993" on="1"/>
        <pt x="799" y="1993" on="1"/>
        <pt x="799" y="823" on="1"/>
        <pt x="1460" y="823" on="1"/>
        <pt x="1460" y="678" on="1"/>
        <pt x="653" y="678" on="1"/>
      </contour>
    </TTGlyph>
    <TTGlyph name="SF030000" xMin="-10" yMin="-492" xMax="799" yMax="823">
      <contour>
        <pt x="-10" y="678" on="1"/>
        <pt x="-10" y="823" on="1"/>
        <pt x="799" y="823" on="1"/>
        <pt x="799" y="-492" on="1"/>
        <pt x="653" y="-492" on="1"/>
        <pt x="653" y="678" on="1"/>
      </contour>
    </TTGlyph>
    <TTGlyph name="SF040000" xMin="-10" yMin="678" xMax="799" yMax="1993">
      <contour>
        <pt x="-10" y="678" on="1"/>
        <pt x="-10" y="823" on="1"/>
        <pt x="653" y="823" on="1"/>
        <pt x="653" y="1993" on="1"/>
        <pt x="799" y="1993" on="1"/>
        <pt x="799" y="678" on="1"/>
      </contour>
    </TTGlyph>
    <TTGlyph name="SF050000" xMin="-10" yMin="-492" xMax="1460" yMax="1993">
      <contour>
        <pt x="-10" y="678" on="1"/>
        <pt x="-10" y="823" on="1"/>
        <pt x="653" y="823" on="1"/>
        <pt x="653" y="1993" on="1"/>
        <pt x="799" y="1993" on="1"/>
        <pt x="799" y="823" on="1"/>
        <pt x="1460" y="823" on="1"/>
        <pt x="1460" y="678" on="1"/>
        <pt x="799" y="678" on="1"/>
        <pt x="799" y="-492" on="1"/>
        <pt x="653" y="-492" on="1"/>
        <pt x="653" y="678" on="1"/>
      </contour>
    </TTGlyph>
    <TTGlyph name="SF060000" xMin="-10" yMin="-492" xMax="1460" yMax="823">
      <contour>
        <pt x="-10" y="678" on="1"/>
        <pt x="-10" y="823" on="1"/>
        <pt x="1460" y="823" on="1"/>
        <pt x="1460" y="678" on="1"/>
        <pt x="799" y="678" on="1"/>
        <pt x="799" y="-492" on="1"/>
        <pt x="653" y="-492" on="1"/>
        <pt x="653" y="678" on="1"/>
      </contour>
    </TTGlyph>
    <TTGlyph name="SF070000" xMin="-10" yMin="678" xMax="1460" yMax="1993">
      <contour>
        <pt x="-10" y="678" on="1"/>
        <pt x="-10" y="823" on="1"/>
        <pt x="653" y="823" on="1"/>
        <pt x="653" y="1993" on="1"/>
        <pt x="799" y="1993" on="1"/>
        <pt x="799" y="823" on="1"/>
        <pt x="1460" y="823" on="1"/>
        <pt x="1460" y="678" on="1"/>
      </contour>
    </TTGlyph>
    <TTGlyph name="SF080000" xMin="653" yMin="-492" xMax="1460" yMax="1993">
      <contour>
        <pt x="653" y="1993" on="1"/>
        <pt x="799" y="1993" on="1"/>
        <pt x="799" y="823" on="1"/>
        <pt x="1460" y="823" on="1"/>
        <pt x="1460" y="678" on="1"/>
        <pt x="799" y="678" on="1"/>
        <pt x="799" y="-492" on="1"/>
        <pt x="653" y="-492" on="1"/>
      </contour>
    </TTGlyph>
    <TTGlyph name="SF090000" xMin="-10" yMin="-492" xMax="799" yMax="1993">
      <contour>
        <pt x="-10" y="678" on="1"/>
        <pt x="-10" y="823" on="1"/>
        <pt x="653" y="823" on="1"/>
        <pt x="653" y="1993" on="1"/>
        <pt x="799" y="1993" on="1"/>
        <pt x="799" y="-492" on="1"/>
        <pt x="653" y="-492" on="1"/>
        <pt x="653" y="678" on="1"/>
      </contour>
    </TTGlyph>
    <TTGlyph name="SF100000" xMin="-10" yMin="678" xMax="1460" yMax="823">
      <contour>
        <pt x="-10" y="678" on="1"/>
        <pt x="-10" y="823" on="1"/>
        <pt x="1460" y="823" on="1"/>
        <pt x="1460" y="678" on="1"/>
      </contour>
    </TTGlyph>
    <TTGlyph name="SF110000" xMin="471" yMin="-492" xMax="616" yMax="1993">
      <contour>
        <pt x="471" y="1993" on="1"/>
        <pt x="616" y="1993" on="1"/>
        <pt x="616" y="-492" on="1"/>
        <pt x="471" y="-492" on="1"/>
      </contour>
    </TTGlyph>
    <TTGlyph name="SF190000" xMin="-10" yMin="-492" xMax="799" yMax="1993">
      <contour>
        <pt x="-10" y="498" on="1"/>
        <pt x="-10" y="643" on="1"/>
        <pt x="653" y="643" on="1"/>
        <pt x="653" y="858" on="1"/>
        <pt x="-10" y="858" on="1"/>
        <pt x="-10" y="1004" on="1"/>
        <pt x="653" y="1004" on="1"/>
        <pt x="653" y="1993" on="1"/>
        <pt x="799" y="1993" on="1"/>
        <pt x="799" y="-492" on="1"/>
        <pt x="653" y="-492" on="1"/>
        <pt x="653" y="498" on="1"/>
      </contour>
    </TTGlyph>
    <TTGlyph name="SF200000" xMin="-10" yMin="-492" xMax="979" yMax="1993">
      <contour>
        <pt x="-10" y="678" on="1"/>
        <pt x="-10" y="823" on="1"/>
        <pt x="473" y="823" on="1"/>
        <pt x="473" y="1993" on="1"/>
        <pt x="618" y="1993" on="1"/>
        <pt x="618" y="-492" on="1"/>
        <pt x="473" y="-492" on="1"/>
        <pt x="473" y="678" on="1"/>
      </contour>
      <contour>
        <pt x="834" y="1993" on="1"/>
        <pt x="979" y="1993" on="1"/>
        <pt x="979" y="-492" on="1"/>
        <pt x="834" y="-492" on="1"/>
      </contour>
    </TTGlyph>
    <TTGlyph name="SF210000" xMin="-10" yMin="-492" xMax="979" yMax="823">
      <contour>
        <pt x="-10" y="678" on="1"/>
        <pt x="-10" y="823" on="1"/>
        <pt x="979" y="823" on="1"/>
        <pt x="979" y="-492" on="1"/>
        <pt x="834" y="-492" on="1"/>
        <pt x="834" y="678" on="1"/>
        <pt x="618" y="678" on="1"/>
        <pt x="618" y="-492" on="1"/>
        <pt x="473" y="-492" on="1"/>
        <pt x="473" y="678" on="1"/>
      </contour>
    </TTGlyph>
    <TTGlyph name="SF220000" xMin="-10" yMin="-492" xMax="799" yMax="1004">
      <contour>
        <pt x="-10" y="498" on="1"/>
        <pt x="-10" y="643" on="1"/>
        <pt x="653" y="643" on="1"/>
        <pt x="653" y="858" on="1"/>
        <pt x="-10" y="858" on="1"/>
        <pt x="-10" y="1004" on="1"/>
        <pt x="799" y="1004" on="1"/>
        <pt x="799" y="-492" on="1"/>
        <pt x="653" y="-492" on="1"/>
        <pt x="653" y="498" on="1"/>
      </contour>
    </TTGlyph>
    <TTGlyph name="SF230000" xMin="-10" yMin="-492" xMax="979" yMax="1993">
      <contour>
        <pt x="834" y="1993" on="1"/>
        <pt x="979" y="1993" on="1"/>
        <pt x="979" y="-492" on="1"/>
        <pt x="834" y="-492" on="1"/>
      </contour>
      <contour>
        <pt x="473" y="1993" on="1"/>
        <pt x="618" y="1993" on="1"/>
        <pt x="618" y="858" on="1"/>
        <pt x="-10" y="858" on="1"/>
        <pt x="-10" y="1004" on="1"/>
        <pt x="473" y="1004" on="1"/>
      </contour>
      <contour>
        <pt x="618" y="-492" on="1"/>
        <pt x="473" y="-492" on="1"/>
        <pt x="473" y="498" on="1"/>
        <pt x="-10" y="498" on="1"/>
        <pt x="-10" y="643" on="1"/>
        <pt x="618" y="643" on="1"/>
      </contour>
    </TTGlyph>
    <TTGlyph name="SF240000" xMin="473" yMin="-492" xMax="979" yMax="1993">
      <contour>
        <pt x="473" y="1993" on="1"/>
        <pt x="618" y="1993" on="1"/>
        <pt x="618" y="-492" on="1"/>
        <pt x="473" y="-492" on="1"/>
      </contour>
      <contour>
        <pt x="834" y="1993" on="1"/>
        <pt x="979" y="1993" on="1"/>
        <pt x="979" y="-492" on="1"/>
        <pt x="834" y="-492" on="1"/>
      </contour>
    </TTGlyph>
    <TTGlyph name="SF250000" xMin="-10" yMin="-492" xMax="979" yMax="1004">
      <contour>
        <pt x="979" y="1004" on="1"/>
        <pt x="979" y="-492" on="1"/>
        <pt x="834" y="-492" on="1"/>
        <pt x="834" y="858" on="1"/>
        <pt x="-10" y="858" on="1"/>
        <pt x="-10" y="1004" on="1"/>
      </contour>
      <contour>
        <pt x="618" y="-492" on="1"/>
        <pt x="473" y="-492" on="1"/>
        <pt x="473" y="498" on="1"/>
        <pt x="-10" y="498" on="1"/>
        <pt x="-10" y="643" on="1"/>
        <pt x="618" y="643" on="1"/>
      </contour>
    </TTGlyph>
    <TTGlyph name="SF260000" xMin="-10" yMin="498" xMax="979" yMax="1993">
      <contour>
        <pt x="979" y="498" on="1"/>
        <pt x="-10" y="498" on="1"/>
        <pt x="-10" y="643" on="1"/>
        <pt x="834" y="643" on="1"/>
        <pt x="834" y="1993" on="1"/>
        <pt x="979" y="1993" on="1"/>
      </contour>
      <contour>
        <pt x="473" y="1993" on="1"/>
        <pt x="618" y="1993" on="1"/>
        <pt x="618" y="858" on="1"/>
        <pt x="-10" y="858" on="1"/>
        <pt x="-10" y="1004" on="1"/>
        <pt x="473" y="1004" on="1"/>
      </contour>
    </TTGlyph>
    <TTGlyph name="SF270000" xMin="-10" yMin="678" xMax="979" yMax="1993">
      <contour>
        <pt x="979" y="678" on="1"/>
        <pt x="-10" y="678" on="1"/>
        <pt x="-10" y="823" on="1"/>
        <pt x="473" y="823" on="1"/>
        <pt x="473" y="1993" on="1"/>
        <pt x="618" y="1993" on="1"/>
        <pt x="618" y="823" on="1"/>
        <pt x="834" y="823" on="1"/>
        <pt x="834" y="1993" on="1"/>
        <pt x="979" y="1993" on="1"/>
      </contour>
    </TTGlyph>
    <TTGlyph name="SF280000" xMin="-10" yMin="498" xMax="799" yMax="1993">
      <contour>
        <pt x="-10" y="498" on="1"/>
        <pt x="-10" y="643" on="1"/>
        <pt x="653" y="643" on="1"/>
        <pt x="653" y="858" on="1"/>
        <pt x="-10" y="858" on="1"/>
        <pt x="-10" y="1004" on="1"/>
        <pt x="653" y="1004" on="1"/>
        <pt x="653" y="1993" on="1"/>
        <pt x="799" y="1993" on="1"/>
        <pt x="799" y="498" on="1"/>
      </contour>
    </TTGlyph>
    <TTGlyph name="SF360000" xMin="653" yMin="-492" xMax="1460" yMax="1993">
      <contour>
        <pt x="653" y="1993" on="1"/>
        <pt x="799" y="1993" on="1"/>
        <pt x="799" y="1004" on="1"/>
        <pt x="1460" y="1004" on="1"/>
        <pt x="1460" y="858" on="1"/>
        <pt x="799" y="858" on="1"/>
        <pt x="799" y="643" on="1"/>
        <pt x="1460" y="643" on="1"/>
        <pt x="1460" y="498" on="1"/>
        <pt x="799" y="498" on="1"/>
        <pt x="799" y="-492" on="1"/>
        <pt x="653" y="-492" on="1"/>
      </contour>
    </TTGlyph>
    <TTGlyph name="SF370000" xMin="473" yMin="-492" xMax="1460" yMax="1993">
      <contour>
        <pt x="834" y="1993" on="1"/>
        <pt x="979" y="1993" on="1"/>
        <pt x="979" y="823" on="1"/>
        <pt x="1460" y="823" on="1"/>
        <pt x="1460" y="678" on="1"/>
        <pt x="979" y="678" on="1"/>
        <pt x="979" y="-492" on="1"/>
        <pt x="834" y="-492" on="1"/>
      </contour>
      <contour>
        <pt x="473" y="1993" on="1"/>
        <pt x="618" y="1993" on="1"/>
        <pt x="618" y="-492" on="1"/>
        <pt x="473" y="-492" on="1"/>
      </contour>
    </TTGlyph>
    <TTGlyph name="SF380000" xMin="473" yMin="498" xMax="1460" yMax="1993">
      <contour>
        <pt x="473" y="1993" on="1"/>
        <pt x="618" y="1993" on="1"/>
        <pt x="618" y="643" on="1"/>
        <pt x="1460" y="643" on="1"/>
        <pt x="1460" y="498" on="1"/>
        <pt x="473" y="498" on="1"/>
      </contour>
      <contour>
        <pt x="834" y="1993" on="1"/>
        <pt x="979" y="1993" on="1"/>
        <pt x="979" y="1004" on="1"/>
        <pt x="1460" y="1004" on="1"/>
        <pt x="1460" y="858" on="1"/>
        <pt x="834" y="858" on="1"/>
      </contour>
    </TTGlyph>
    <TTGlyph name="SF390000" xMin="473" yMin="-492" xMax="1460" yMax="1004">
      <contour>
        <pt x="473" y="1004" on="1"/>
        <pt x="1460" y="1004" on="1"/>
        <pt x="1460" y="858" on="1"/>
        <pt x="618" y="858" on="1"/>
        <pt x="618" y="-492" on="1"/>
        <pt x="473" y="-492" on="1"/>
      </contour>
      <contour>
        <pt x="834" y="643" on="1"/>
        <pt x="1460" y="643" on="1"/>
        <pt x="1460" y="498" on="1"/>
        <pt x="979" y="498" on="1"/>
        <pt x="979" y="-492" on="1"/>
        <pt x="834" y="-492" on="1"/>
      </contour>
    </TTGlyph>
    <TTGlyph name="SF400000" xMin="-10" yMin="498" xMax="1460" yMax="1993">
      <contour>
        <pt x="834" y="1993" on="1"/>
        <pt x="979" y="1993" on="1"/>
        <pt x="979" y="1004" on="1"/>
        <pt x="1460" y="1004" on="1"/>
        <pt x="1460" y="858" on="1"/>
        <pt x="834" y="858" on="1"/>
      </contour>
      <contour>
        <pt x="473" y="1993" on="1"/>
        <pt x="618" y="1993" on="1"/>
        <pt x="618" y="858" on="1"/>
        <pt x="-10" y="858" on="1"/>
        <pt x="-10" y="1004" on="1"/>
        <pt x="473" y="1004" on="1"/>
      </contour>
      <contour>
        <pt x="-10" y="498" on="1"/>
        <pt x="-10" y="643" on="1"/>
        <pt x="1460" y="643" on="1"/>
        <pt x="1460" y="498" on="1"/>
      </contour>
    </TTGlyph>
    <TTGlyph name="SF410000" xMin="-10" yMin="-492" xMax="1460" yMax="1004">
      <contour>
        <pt x="618" y="-492" on="1"/>
        <pt x="473" y="-492" on="1"/>
        <pt x="473" y="498" on="1"/>
        <pt x="-10" y="498" on="1"/>
        <pt x="-10" y="643" on="1"/>
        <pt x="618" y="643" on="1"/>
      </contour>
      <contour>
        <pt x="834" y="643" on="1"/>
        <pt x="1460" y="643" on="1"/>
        <pt x="1460" y="498" on="1"/>
        <pt x="979" y="498" on="1"/>
        <pt x="979" y="-492" on="1"/>
        <pt x="834" y="-492" on="1"/>
      </contour>
      <contour>
        <pt x="1460" y="1004" on="1"/>
        <pt x="1460" y="858" on="1"/>
        <pt x="-10" y="858" on="1"/>
        <pt x="-10" y="1004" on="1"/>
      </contour>
    </TTGlyph>
    <TTGlyph name="SF420000" xMin="473" yMin="-492" xMax="1460" yMax="1993">
      <contour>
        <pt x="618" y="-492" on="1"/>
        <pt x="473" y="-492" on="1"/>
        <pt x="473" y="1993" on="1"/>
        <pt x="618" y="1993" on="1"/>
      </contour>
      <contour>
        <pt x="834" y="643" on="1"/>
        <pt x="1460" y="643" on="1"/>
        <pt x="1460" y="498" on="1"/>
        <pt x="979" y="498" on="1"/>
        <pt x="979" y="-492" on="1"/>
        <pt x="834" y="-492" on="1"/>
      </contour>
      <contour>
        <pt x="834" y="1993" on="1"/>
        <pt x="979" y="1993" on="1"/>
        <pt x="979" y="1004" on="1"/>
        <pt x="1460" y="1004" on="1"/>
        <pt x="1460" y="858" on="1"/>
        <pt x="834" y="858" on="1"/>
      </contour>
    </TTGlyph>
    <TTGlyph name="SF430000" xMin="-10" yMin="498" xMax="1460" yMax="1004">
      <contour>
        <pt x="-10" y="858" on="1"/>
        <pt x="-10" y="1004" on="1"/>
        <pt x="1460" y="1004" on="1"/>
        <pt x="1460" y="858" on="1"/>
      </contour>
      <contour>
        <pt x="-10" y="498" on="1"/>
        <pt x="-10" y="643" on="1"/>
        <pt x="1460" y="643" on="1"/>
        <pt x="1460" y="498" on="1"/>
      </contour>
    </TTGlyph>
    <TTGlyph name="SF440000" xMin="-10" yMin="-492" xMax="1460" yMax="1993">
      <contour>
        <pt x="834" y="1993" on="1"/>
        <pt x="979" y="1993" on="1"/>
        <pt x="979" y="1004" on="1"/>
        <pt x="1460" y="1004" on="1"/>
        <pt x="1460" y="858" on="1"/>
        <pt x="834" y="858" on="1"/>
      </contour>
      <contour>
        <pt x="618" y="-492" on="1"/>
        <pt x="473" y="-492" on="1"/>
        <pt x="473" y="498" on="1"/>
        <pt x="-10" y="498" on="1"/>
        <pt x="-10" y="643" on="1"/>
        <pt x="618" y="643" on="1"/>
      </contour>
      <contour>
        <pt x="834" y="643" on="1"/>
        <pt x="1460" y="643" on="1"/>
        <pt x="1460" y="498" on="1"/>
        <pt x="979" y="498" on="1"/>
        <pt x="979" y="-492" on="1"/>
        <pt x="834" y="-492" on="1"/>
      </contour>
      <contour>
        <pt x="473" y="1993" on="1"/>
        <pt x="618" y="1993" on="1"/>
        <pt x="618" y="858" on="1"/>
        <pt x="-10" y="858" on="1"/>
        <pt x="-10" y="1004" on="1"/>
        <pt x="473" y="1004" on="1"/>
      </contour>
    </TTGlyph>
    <TTGlyph name="SF450000" xMin="-10" yMin="498" xMax="1460" yMax="1993">
      <contour>
        <pt x="-10" y="858" on="1"/>
        <pt x="-10" y="1004" on="1"/>
        <pt x="653" y="1004" on="1"/>
        <pt x="653" y="1993" on="1"/>
        <pt x="799" y="1993" on="1"/>
        <pt x="799" y="1004" on="1"/>
        <pt x="1460" y="1004" on="1"/>
        <pt x="1460" y="858" on="1"/>
      </contour>
      <contour>
        <pt x="-10" y="498" on="1"/>
        <pt x="-10" y="643" on="1"/>
        <pt x="1460" y="643" on="1"/>
        <pt x="1460" y="498" on="1"/>
      </contour>
    </TTGlyph>
    <TTGlyph name="SF460000" xMin="-10" yMin="678" xMax="1460" yMax="1993">
      <contour>
        <pt x="-10" y="678" on="1"/>
        <pt x="-10" y="823" on="1"/>
        <pt x="473" y="823" on="1"/>
        <pt x="473" y="1993" on="1"/>
        <pt x="618" y="1993" on="1"/>
        <pt x="618" y="823" on="1"/>
        <pt x="834" y="823" on="1"/>
        <pt x="834" y="1993" on="1"/>
        <pt x="979" y="1993" on="1"/>
        <pt x="979" y="823" on="1"/>
        <pt x="1460" y="823" on="1"/>
        <pt x="1460" y="678" on="1"/>
      </contour>
    </TTGlyph>
    <TTGlyph name="SF470000" xMin="-10" yMin="-492" xMax="1460" yMax="1004">
      <contour>
        <pt x="-10" y="498" on="1"/>
        <pt x="-10" y="643" on="1"/>
        <pt x="1460" y="643" on="1"/>
        <pt x="1460" y="498" on="1"/>
        <pt x="799" y="498" on="1"/>
        <pt x="799" y="-492" on="1"/>
        <pt x="653" y="-492" on="1"/>
        <pt x="653" y="498" on="1"/>
      </contour>
      <contour>
        <pt x="-10" y="858" on="1"/>
        <pt x="-10" y="1004" on="1"/>
        <pt x="1460" y="1004" on="1"/>
        <pt x="1460" y="858" on="1"/>
      </contour>
    </TTGlyph>
    <TTGlyph name="SF480000" xMin="-10" yMin="-492" xMax="1460" yMax="823">
      <contour>
        <pt x="-10" y="678" on="1"/>
        <pt x="-10" y="823" on="1"/>
        <pt x="1460" y="823" on="1"/>
        <pt x="1460" y="678" on="1"/>
        <pt x="979" y="678" on="1"/>
        <pt x="979" y="-492" on="1"/>
        <pt x="834" y="-492" on="1"/>
        <pt x="834" y="678" on="1"/>
        <pt x="618" y="678" on="1"/>
        <pt x="618" y="-492" on="1"/>
        <pt x="473" y="-492" on="1"/>
        <pt x="473" y="678" on="1"/>
      </contour>
    </TTGlyph>
    <TTGlyph name="SF490000" xMin="473" yMin="678" xMax="1460" yMax="1993">
      <contour>
        <pt x="834" y="1993" on="1"/>
        <pt x="979" y="1993" on="1"/>
        <pt x="979" y="823" on="1"/>
        <pt x="1460" y="823" on="1"/>
        <pt x="1460" y="678" on="1"/>
        <pt x="473" y="678" on="1"/>
        <pt x="473" y="1993" on="1"/>
        <pt x="618" y="1993" on="1"/>
        <pt x="618" y="823" on="1"/>
        <pt x="834" y="823" on="1"/>
      </contour>
    </TTGlyph>
    <TTGlyph name="SF500000" xMin="653" yMin="498" xMax="1460" yMax="1993">
      <contour>
        <pt x="653" y="1993" on="1"/>
        <pt x="799" y="1993" on="1"/>
        <pt x="799" y="1004" on="1"/>
        <pt x="1460" y="1004" on="1"/>
        <pt x="1460" y="858" on="1"/>
        <pt x="799" y="858" on="1"/>
        <pt x="799" y="643" on="1"/>
        <pt x="1460" y="643" on="1"/>
        <pt x="1460" y="498" on="1"/>
        <pt x="653" y="498" on="1"/>
      </contour>
    </TTGlyph>
    <TTGlyph name="SF510000" xMin="653" yMin="-492" xMax="1460" yMax="1004">
      <contour>
        <pt x="653" y="1004" on="1"/>
        <pt x="1460" y="1004" on="1"/>
        <pt x="1460" y="858" on="1"/>
        <pt x="799" y="858" on="1"/>
        <pt x="799" y="643" on="1"/>
        <pt x="1460" y="643" on="1"/>
        <pt x="1460" y="498" on="1"/>
        <pt x="799" y="498" on="1"/>
        <pt x="799" y="-492" on="1"/>
        <pt x="653" y="-492" on="1"/>
      </contour>
    </TTGlyph>
    <TTGlyph name="SF520000" xMin="473" yMin="-492" xMax="1460" yMax="823">
      <contour>
        <pt x="1460" y="823" on="1"/>
        <pt x="1460" y="678" on="1"/>
        <pt x="979" y="678" on="1"/>
        <pt x="979" y="-492" on="1"/>
        <pt x="834" y="-492" on="1"/>
        <pt x="834" y="678" on="1"/>
        <pt x="618" y="678" on="1"/>
        <pt x="618" y="-492" on="1"/>
        <pt x="473" y="-492" on="1"/>
        <pt x="473" y="823" on="1"/>
      </contour>
    </TTGlyph>
    <TTGlyph name="SF530000" xMin="-10" yMin="-492" xMax="1460" yMax="1993">
      <contour>
        <pt x="834" y="1993" on="1"/>
        <pt x="979" y="1993" on="1"/>
        <pt x="979" y="823" on="1"/>
        <pt x="1460" y="823" on="1"/>
        <pt x="1460" y="678" on="1"/>
        <pt x="979" y="678" on="1"/>
        <pt x="979" y="-492" on="1"/>
        <pt x="834" y="-492" on="1"/>
        <pt x="834" y="678" on="1"/>
        <pt x="618" y="678" on="1"/>
        <pt x="618" y="-492" on="1"/>
        <pt x="473" y="-492" on="1"/>
        <pt x="473" y="678" on="1"/>
        <pt x="-10" y="678" on="1"/>
        <pt x="-10" y="823" on="1"/>
        <pt x="473" y="823" on="1"/>
        <pt x="473" y="1993" on="1"/>
        <pt x="618" y="1993" on="1"/>
        <pt x="618" y="823" on="1"/>
        <pt x="834" y="823" on="1"/>
      </contour>
    </TTGlyph>
    <TTGlyph name="SF540000" xMin="-10" yMin="-492" xMax="1460" yMax="1993">
      <contour>
        <pt x="-10" y="498" on="1"/>
        <pt x="-10" y="643" on="1"/>
        <pt x="653" y="643" on="1"/>
        <pt x="653" y="858" on="1"/>
        <pt x="-10" y="858" on="1"/>
        <pt x="-10" y="1004" on="1"/>
        <pt x="653" y="1004" on="1"/>
        <pt x="653" y="1993" on="1"/>
        <pt x="799" y="1993" on="1"/>
        <pt x="799" y="1004" on="1"/>
        <pt x="1460" y="1004" on="1"/>
        <pt x="1460" y="858" on="1"/>
        <pt x="799" y="858" on="1"/>
        <pt x="799" y="643" on="1"/>
        <pt x="1460" y="643" on="1"/>
        <pt x="1460" y="498" on="1"/>
        <pt x="799" y="498" on="1"/>
        <pt x="799" y="-492" on="1"/>
        <pt x="653" y="-492" on="1"/>
        <pt x="653" y="498" on="1"/>
      </contour>
    </TTGlyph>
    <TTGlyph name="Sacute" xMin="98" yMin="-20" xMax="1010" yMax="1907">
      <component glyphName="S" x="0" y="0" flags="0x204"/>
      <component glyphName="acute" x="59" y="338" flags="0x4"/>
    </TTGlyph>
    <TTGlyph name="Scaron" xMin="98" yMin="-20" xMax="1010" yMax="1907">
      <component glyphName="S" x="0" y="0" flags="0x204"/>
      <component glyphName="caron" x="-26" y="338" flags="0x4"/>
    </TTGlyph>
    <TTGlyph name="Scedilla" xMin="98" yMin="-492" xMax="1010" yMax="1483">
      <component glyphName="S" x="0" y="0" flags="0x204"/>
      <component glyphName="cedilla" x="195" y="0" flags="0x4"/>
    </TTGlyph>
    <TTGlyph name="Scircumflex" xMin="98" yMin="-20" xMax="1010" yMax="1907">
      <component glyphName="S" x="0" y="0" flags="0x204"/>
      <component glyphName="circumflex" x="-19" y="338" flags="0x4"/>
    </TTGlyph>
    <TTGlyph name="Scommaaccent" xMin="98" yMin="-453" xMax="1010" yMax="1483">
      <component glyphName="S" x="0" y="0" flags="0x204"/>
      <component glyphName="glyph00569" x="29" y="0" flags="0x4"/>
    </TTGlyph>
    <TTGlyph name="Sigma" xMin="47" yMin="0" xMax="1153" yMax="1462">
      <contour>
        <pt x="846" y="188" on="1"/>
        <pt x="894" y="188" on="0"/>
        <pt x="962" y="217" on="0"/>
        <pt x="1007" y="269" on="0"/>
        <pt x="1033" y="341" on="0"/>
        <pt x="1038" y="383" on="1"/>
        <pt x="1047" y="444" on="1"/>
        <pt x="1153" y="444" on="1"/>
        <pt x="1143" y="0" on="1"/>
        <pt x="47" y="0" on="1"/>
        <pt x="47" y="66" on="1"/>
        <pt x="473" y="717" on="1"/>
        <pt x="92" y="1403" on="1"/>
        <pt x="92" y="1462" on="1"/>
        <pt x="1053" y="1462" on="1"/>
        <pt x="1063" y="1104" on="1"/>
        <pt x="956" y="1104" on="1"/>
        <pt x="946" y="1192" on="1"/>
        <pt x="942" y="1226" on="0"/>
        <pt x="920" y="1286" on="0"/>
        <pt x="877" y="1331" on="0"/>
        <pt x="812" y="1358" on="0"/>
        <pt x="766" y="1358" on="1"/>
        <pt x="340" y="1358" on="1"/>
        <pt x="643" y="813" on="1"/>
        <pt x="643" y="782" on="1"/>
        <pt x="254" y="188" on="1"/>
      </contour>
    </TTGlyph>
    <TTGlyph name="T" xMin="41" yMin="0" xMax="1214" yMax="1462">
      <contour>
        <pt x="729" y="233" on="1"/>
        <pt x="729" y="185" on="0"/>
        <pt x="756" y="127" on="0"/>
        <pt x="801" y="96" on="0"/>
        <pt x="863" y="86" on="0"/>
        <pt x="897" y="86" on="1"/>
        <pt x="944" y="86" on="1"/>
        <pt x="944" y="0" on="1"/>
        <pt x="307" y="0" on="1"/>
        <pt x="307" y="86" on="1"/>
        <pt x="354" y="86" on="1"/>
        <pt x="388" y="86" on="0"/>
        <pt x="449" y="95" on="0"/>
        <pt x="495" y="123" on="0"/>
        <pt x="522" y="178" on="0"/>
        <pt x="522" y="223" on="1"/>
        <pt x="522" y="1360" on="1"/>
        <pt x="326" y="1360" on="1"/>
        <pt x="281" y="1360" on="0"/>
        <pt x="220" y="1333" on="0"/>
        <pt x="181" y="1287" on="0"/>
        <pt x="162" y="1226" on="0"/>
        <pt x="158" y="1192" on="1"/>
        <pt x="147" y="1104" on="1"/>
        <pt x="41" y="1104" on="1"/>
        <pt x="51" y="1462" on="1"/>
        <pt x="1204" y="1462" on="1"/>
        <pt x="1214" y="1104" on="1"/>
        <pt x="1108" y="1104" on="1"/>
        <pt x="1098" y="1192" on="1"/>
        <pt x="1094" y="1226" on="0"/>
        <pt x="1074" y="1287" on="0"/>
        <pt x="1036" y="1333" on="0"/>
        <pt x="974" y="1360" on="0"/>
        <pt x="928" y="1360" on="1"/>
        <pt x="729" y="1360" on="1"/>
      </contour>
    </TTGlyph>
    <TTGlyph name="Tau" xMin="41" yMin="0" xMax="1214" yMax="1462">
      <component glyphName="T" x="0" y="0" flags="0x204"/>
    </TTGlyph>
    <TTGlyph name="Tbar" xMin="41" yMin="0" xMax="1214" yMax="1462">
      <contour>
        <pt x="729" y="772" on="1"/>
        <pt x="1075" y="772" on="1"/>
        <pt x="1075" y="672" on="1"/>
        <pt x="729" y="672" on="1"/>
        <pt x="729" y="233" on="1"/>
        <pt x="729" y="185" on="0"/>
        <pt x="756" y="127" on="0"/>
        <pt x="801" y="96" on="0"/>
        <pt x="863" y="86" on="0"/>
        <pt x="897" y="86" on="1"/>
        <pt x="944" y="86" on="1"/>
        <pt x="944" y="0" on="1"/>
        <pt x="307" y="0" on="1"/>
        <pt x="307" y="86" on="1"/>
        <pt x="354" y="86" on="1"/>
        <pt x="388" y="86" on="0"/>
        <pt x="449" y="95" on="0"/>
        <pt x="495" y="123" on="0"/>
        <pt x="522" y="178" on="0"/>
        <pt x="522" y="223" on="1"/>
        <pt x="522" y="672" on="1"/>
        <pt x="180" y="672" on="1"/>
        <pt x="180" y="772" on="1"/>
        <pt x="522" y="772" on="1"/>
        <pt x="522" y="1360" on="1"/>
        <pt x="326" y="1360" on="1"/>
        <pt x="281" y="1360" on="0"/>
        <pt x="220" y="1333" on="0"/>
        <pt x="181" y="1287" on="0"/>
        <pt x="162" y="1226" on="0"/>
        <pt x="158" y="1192" on="1"/>
        <pt x="147" y="1104" on="1"/>
        <pt x="41" y="1104" on="1"/>
        <pt x="51" y="1462" on="1"/>
        <pt x="1204" y="1462" on="1"/>
        <pt x="1214" y="1104" on="1"/>
        <pt x="1108" y="1104" on="1"/>
        <pt x="1098" y="1192" on="1"/>
        <pt x="1094" y="1226" on="0"/>
        <pt x="1074" y="1287" on="0"/>
        <pt x="1036" y="1333" on="0"/>
        <pt x="974" y="1360" on="0"/>
        <pt x="928" y="1360" on="1"/>
        <pt x="729" y="1360" on="1"/>
      </contour>
    </TTGlyph>
    <TTGlyph name="Tcaron" xMin="41" yMin="0" xMax="1214" yMax="1907">
      <component glyphName="T" x="0" y="0" flags="0x204"/>
      <component glyphName="caron" x="35" y="338" flags="0x4"/>
    </TTGlyph>
    <TTGlyph name="Tcommaaccent" xMin="41" yMin="-492" xMax="1214" yMax="1462">
      <component glyphName="T" x="0" y="0" flags="0x204"/>
      <component glyphName="cedilla" x="300" y="0" flags="0x4"/>
    </TTGlyph>
    <TTGlyph name="Theta" xMin="115" yMin="-20" xMax="1403" yMax="1485">
      <contour>
        <pt x="551" y="930" on="1"/>
        <pt x="561" y="891" on="1"/>
        <pt x="567" y="869" on="0"/>
        <pt x="588" y="834" on="0"/>
        <pt x="625" y="810" on="0"/>
        <pt x="685" y="797" on="0"/>
        <pt x="731" y="797" on="1"/>
        <pt x="782" y="797" on="1"/>
        <pt x="864" y="797" on="0"/>
        <pt x="945" y="848" on="0"/>
        <pt x="956" y="891" on="1"/>
        <pt x="967" y="930" on="1"/>
        <pt x="1053" y="930" on="1"/>
        <pt x="1053" y="561" on="1"/>
        <pt x="967" y="561" on="1"/>
        <pt x="956" y="600" on="1"/>
        <pt x="945" y="643" on="0"/>
        <pt x="864" y="694" on="0"/>
        <pt x="782" y="694" on="1"/>
        <pt x="731" y="694" on="1"/>
        <pt x="685" y="694" on="0"/>
        <pt x="625" y="681" on="0"/>
        <pt x="588" y="657" on="0"/>
        <pt x="567" y="622" on="0"/>
        <pt x="561" y="600" on="1"/>
        <pt x="551" y="561" on="1"/>
        <pt x="465" y="561" on="1"/>
        <pt x="465" y="930" on="1"/>
      </contour>
      <contour>
        <pt x="1403" y="733" on="1"/>
        <pt x="1403" y="564" on="0"/>
        <pt x="1319" y="286" on="0"/>
        <pt x="1155" y="88" on="0"/>
        <pt x="915" y="-20" on="0"/>
        <pt x="760" y="-20" on="1"/>
        <pt x="597" y="-20" on="0"/>
        <pt x="355" y="88" on="0"/>
        <pt x="195" y="286" on="0"/>
        <pt x="115" y="565" on="0"/>
        <pt x="115" y="735" on="1"/>
        <pt x="115" y="905" on="0"/>
        <pt x="195" y="1182" on="0"/>
        <pt x="355" y="1378" on="0"/>
        <pt x="599" y="1485" on="0"/>
        <pt x="762" y="1485" on="1"/>
        <pt x="917" y="1485" on="0"/>
        <pt x="1155" y="1378" on="0"/>
        <pt x="1319" y="1181" on="0"/>
        <pt x="1403" y="904" on="0"/>
      </contour>
      <contour>
        <pt x="342" y="733" on="1"/>
        <pt x="342" y="581" on="0"/>
        <pt x="387" y="342" on="0"/>
        <pt x="487" y="177" on="0"/>
        <pt x="646" y="90" on="0"/>
        <pt x="760" y="90" on="1"/>
        <pt x="874" y="90" on="0"/>
        <pt x="1033" y="177" on="0"/>
        <pt x="1132" y="342" on="0"/>
        <pt x="1176" y="581" on="0"/>
        <pt x="1176" y="733" on="1"/>
        <pt x="1176" y="885" on="0"/>
        <pt x="1132" y="1124" on="0"/>
        <pt x="1033" y="1288" on="0"/>
        <pt x="876" y="1374" on="0"/>
        <pt x="762" y="1374" on="1"/>
        <pt x="648" y="1374" on="0"/>
        <pt x="488" y="1288" on="0"/>
        <pt x="387" y="1124" on="0"/>
        <pt x="342" y="885" on="0"/>
      </contour>
    </TTGlyph>
    <TTGlyph name="Thorn" xMin="78" yMin="0" xMax="1157" yMax="1462">
      <contour>
        <pt x="78" y="0" on="1"/>
        <pt x="78" y="86" on="1"/>
        <pt x="104" y="86" on="1"/>
        <pt x="139" y="86" on="0"/>
        <pt x="200" y="96" on="0"/>
        <pt x="246" y="127" on="0"/>
        <pt x="272" y="185" on="0"/>
        <pt x="272" y="233" on="1"/>
        <pt x="272" y="1229" on="1"/>
        <pt x="272" y="1277" on="0"/>
        <pt x="246" y="1335" on="0"/>
        <pt x="200" y="1366" on="0"/>
        <pt x="139" y="1376" on="0"/>
        <pt x="104" y="1376" on="1"/>
        <pt x="78" y="1376" on="1"/>
        <pt x="78" y="1462" on="1"/>
        <pt x="694" y="1462" on="1"/>
        <pt x="694" y="1376" on="1"/>
        <pt x="647" y="1376" on="1"/>
        <pt x="613" y="1376" on="0"/>
        <pt x="551" y="1366" on="0"/>
        <pt x="506" y="1335" on="0"/>
        <pt x="479" y="1277" on="0"/>
        <pt x="479" y="1229" on="1"/>
        <pt x="479" y="1167" on="1"/>
        <pt x="653" y="1167" on="1"/>
        <pt x="911" y="1167" on="0"/>
        <pt x="1157" y="960" on="0"/>
        <pt x="1157" y="760" on="1"/>
        <pt x="1157" y="669" on="0"/>
        <pt x="1100" y="507" on="0"/>
        <pt x="970" y="385" on="0"/>
        <pt x="760" y="315" on="0"/>
        <pt x="608" y="315" on="1"/>
        <pt x="479" y="315" on="1"/>
        <pt x="479" y="233" on="1"/>
        <pt x="479" y="185" on="0"/>
        <pt x="506" y="127" on="0"/>
        <pt x="551" y="96" on="0"/>
        <pt x="613" y="86" on="0"/>
        <pt x="647" y="86" on="1"/>
        <pt x="694" y="86" on="1"/>
        <pt x="694" y="0" on="1"/>
      </contour>
      <contour>
        <pt x="479" y="412" on="1"/>
        <pt x="588" y="412" on="1"/>
        <pt x="681" y="412" on="0"/>
        <pt x="813" y="445" on="0"/>
        <pt x="897" y="524" on="0"/>
        <pt x="936" y="655" on="0"/>
        <pt x="936" y="752" on="1"/>
        <pt x="936" y="838" on="0"/>
        <pt x="902" y="958" on="0"/>
        <pt x="826" y="1034" on="0"/>
        <pt x="705" y="1069" on="0"/>
        <pt x="618" y="1069" on="1"/>
        <pt x="479" y="1069" on="1"/>
      </contour>
    </TTGlyph>
    <TTGlyph name="U" xMin="31" yMin="-20" xMax="1438" yMax="1462">
      <contour>
        <pt x="741" y="-20" on="1"/>
        <pt x="620" y="-20" on="0"/>
        <pt x="428" y="31" on="0"/>
        <pt x="295" y="142" on="0"/>
        <pt x="225" y="317" on="0"/>
        <pt x="225" y="442" on="1"/>
        <pt x="225" y="1237" on="1"/>
        <pt x="225" y="1282" on="0"/>
        <pt x="198" y="1337" on="0"/>
        <pt x="152" y="1367" on="0"/>
        <pt x="91" y="1376" on="0"/>
        <pt x="57" y="1376" on="1"/>
        <pt x="31" y="1376" on="1"/>
        <pt x="31" y="1462" on="1"/>
        <pt x="627" y="1462" on="1"/>
        <pt x="627" y="1376" on="1"/>
        <pt x="600" y="1376" on="1"/>
        <pt x="566" y="1376" on="0"/>
        <pt x="504" y="1366" on="0"/>
        <pt x="459" y="1335" on="0"/>
        <pt x="432" y="1277" on="0"/>
        <pt x="432" y="1229" on="1"/>
        <pt x="432" y="430" on="1"/>
        <pt x="432" y="341" on="0"/>
        <pt x="483" y="216" on="0"/>
        <pt x="574" y="138" on="0"/>
        <pt x="699" y="102" on="0"/>
        <pt x="774" y="102" on="1"/>
        <pt x="863" y="102" on="0"/>
        <pt x="992" y="150" on="0"/>
        <pt x="1077" y="235" on="0"/>
        <pt x="1118" y="352" on="0"/>
        <pt x="1118" y="422" on="1"/>
        <pt x="1118" y="1237" on="1"/>
        <pt x="1118" y="1282" on="0"/>
        <pt x="1091" y="1337" on="0"/>
        <pt x="1045" y="1367" on="0"/>
        <pt x="984" y="1376" on="0"/>
        <pt x="950" y="1376" on="1"/>
        <pt x="924" y="1376" on="1"/>
        <pt x="924" y="1462" on="1"/>
        <pt x="1438" y="1462" on="1"/>
        <pt x="1438" y="1376" on="1"/>
        <pt x="1411" y="1376" on="1"/>
        <pt x="1377" y="1376" on="0"/>
        <pt x="1315" y="1366" on="0"/>
        <pt x="1270" y="1335" on="0"/>
        <pt x="1243" y="1277" on="0"/>
        <pt x="1243" y="1229" on="1"/>
        <pt x="1243" y="418" on="1"/>
        <pt x="1243" y="316" on="0"/>
        <pt x="1178" y="153" on="0"/>
        <pt x="1051" y="40" on="0"/>
        <pt x="863" y="-20" on="0"/>
      </contour>
    </TTGlyph>
    <TTGlyph name="Uacute" xMin="31" yMin="-20" xMax="1438" yMax="1907">
      <component glyphName="U" x="0" y="0" flags="0x204"/>
      <component glyphName="acute" x="258" y="338" flags="0x4"/>
    </TTGlyph>
    <TTGlyph name="Ubreve" xMin="31" yMin="-20" xMax="1438" yMax="1860">
      <component glyphName="U" x="0" y="0" flags="0x204"/>
      <component glyphName="breve" x="170" y="338" flags="0x4"/>
    </TTGlyph>
    <TTGlyph name="Ucircumflex" xMin="31" yMin="-20" xMax="1438" yMax="1907">
      <component glyphName="U" x="0" y="0" flags="0x204"/>
      <component glyphName="circumflex" x="182" y="338" flags="0x4"/>
    </TTGlyph>
    <TTGlyph name="Udieresis" xMin="31" yMin="-20" xMax="1438" yMax="1862">
      <component glyphName="U" x="0" y="0" flags="0x204"/>
      <component glyphName="dieresis" x="186" y="338" flags="0x4"/>
    </TTGlyph>
    <TTGlyph name="Ugrave" xMin="31" yMin="-20" xMax="1438" yMax="1907">
      <component glyphName="U" x="0" y="0" flags="0x204"/>
      <component glyphName="grave" x="61" y="338" flags="0x4"/>
    </TTGlyph>
    <TTGlyph name="Uhorn" xMin="31" yMin="-20" xMax="1573" yMax="1577">
      <contour>
        <pt x="1243" y="418" on="1"/>
        <pt x="1243" y="210" on="0"/>
        <pt x="981" y="-20" on="0"/>
        <pt x="741" y="-20" on="1"/>
        <pt x="225" y="-20" on="0"/>
        <pt x="225" y="442" on="1"/>
        <pt x="225" y="1237" on="1"/>
        <pt x="225" y="1376" on="0"/>
        <pt x="57" y="1376" on="1"/>
        <pt x="31" y="1376" on="1"/>
        <pt x="31" y="1462" on="1"/>
        <pt x="627" y="1462" on="1"/>
        <pt x="627" y="1376" on="1"/>
        <pt x="600" y="1376" on="1"/>
        <pt x="432" y="1376" on="0"/>
        <pt x="432" y="1229" on="1"/>
        <pt x="432" y="430" on="1"/>
        <pt x="432" y="102" on="0"/>
        <pt x="774" y="102" on="1"/>
        <pt x="938" y="102" on="0"/>
        <pt x="1118" y="271" on="0"/>
        <pt x="1118" y="422" on="1"/>
        <pt x="1118" y="1237" on="1"/>
        <pt x="1118" y="1376" on="0"/>
        <pt x="950" y="1376" on="1"/>
        <pt x="924" y="1376" on="1"/>
        <pt x="924" y="1462" on="1"/>
        <pt x="1243" y="1462" on="1"/>
        <pt x="1243" y="1192" on="1"/>
        <pt x="1419" y="1220" on="0"/>
        <pt x="1419" y="1333" on="1"/>
        <pt x="1419" y="1360" on="0"/>
        <pt x="1331" y="1426" on="0"/>
        <pt x="1331" y="1475" on="1"/>
        <pt x="1331" y="1577" on="0"/>
        <pt x="1448" y="1577" on="1"/>
        <pt x="1573" y="1577" on="0"/>
        <pt x="1573" y="1448" on="1"/>
        <pt x="1573" y="1172" on="0"/>
        <pt x="1243" y="1112" on="1"/>
      </contour>
    </TTGlyph>
    <TTGlyph name="Uhungarumlaut" xMin="31" yMin="-20" xMax="1438" yMax="1907">
      <component glyphName="U" x="0" y="0" flags="0x204"/>
      <component glyphName="hungarumlaut" x="250" y="338" flags="0x4"/>
    </TTGlyph>
    <TTGlyph name="Umacron" xMin="31" yMin="-20" xMax="1438" yMax="1721">
      <component glyphName="U" x="0" y="0" flags="0x204"/>
      <component glyphName="uni02C9" x="260" y="338" flags="0x4"/>
    </TTGlyph>
    <TTGlyph name="Uogonek" xMin="31" yMin="-492" xMax="1438" yMax="1462">
      <component glyphName="U" x="0" y="0" flags="0x204"/>
      <component glyphName="ogonek" x="207" y="0" flags="0x4"/>
    </TTGlyph>
    <TTGlyph name="Upsilon" xMin="-10" yMin="0" xMax="1286" yMax="1462">
      <component glyphName="Y" x="0" y="0" flags="0x204"/>
    </TTGlyph>
    <TTGlyph name="Upsilon1" xMin="-10" yMin="0" xMax="1335" yMax="1477">
      <contour>
        <pt x="915" y="86" on="1"/>
        <pt x="963" y="86" on="1"/>
        <pt x="963" y="0" on="1"/>
        <pt x="326" y="0" on="1"/>
        <pt x="326" y="86" on="1"/>
        <pt x="373" y="86" on="1"/>
        <pt x="407" y="86" on="0"/>
        <pt x="468" y="95" on="0"/>
        <pt x="514" y="123" on="0"/>
        <pt x="541" y="178" on="0"/>
        <pt x="541" y="223" on="1"/>
        <pt x="541" y="403" on="1"/>
        <pt x="541" y="465" on="0"/>
        <pt x="507" y="609" on="0"/>
        <pt x="453" y="757" on="0"/>
        <pt x="385" y="903" on="0"/>
        <pt x="318" y="1033" on="0"/>
        <pt x="258" y="1138" on="0"/>
        <pt x="238" y="1171" on="1"/>
        <pt x="215" y="1210" on="0"/>
        <pt x="162" y="1284" on="0"/>
        <pt x="102" y="1342" on="0"/>
        <pt x="35" y="1378" on="0"/>
        <pt x="-2" y="1378" on="1"/>
        <pt x="-10" y="1378" on="1"/>
        <pt x="-10" y="1462" on="1"/>
        <pt x="94" y="1462" on="1"/>
        <pt x="164" y="1462" on="0"/>
        <pt x="266" y="1437" on="0"/>
        <pt x="350" y="1376" on="0"/>
        <pt x="423" y="1271" on="0"/>
        <pt x="465" y="1190" on="1"/>
        <pt x="500" y="1121" on="0"/>
        <pt x="565" y="980" on="0"/>
        <pt x="621" y="847" on="0"/>
        <pt x="667" y="725" on="0"/>
        <pt x="684" y="674" on="1"/>
        <pt x="702" y="742" on="0"/>
        <pt x="748" y="886" on="0"/>
        <pt x="797" y="1024" on="0"/>
        <pt x="846" y="1150" on="0"/>
        <pt x="868" y="1200" on="1"/>
        <pt x="907" y="1284" on="0"/>
        <pt x="978" y="1391" on="0"/>
        <pt x="1051" y="1453" on="0"/>
        <pt x="1129" y="1477" on="0"/>
        <pt x="1174" y="1477" on="1"/>
        <pt x="1255" y="1477" on="0"/>
        <pt x="1335" y="1398" on="0"/>
        <pt x="1335" y="1335" on="1"/>
        <pt x="1335" y="1306" on="0"/>
        <pt x="1319" y="1257" on="0"/>
        <pt x="1292" y="1223" on="0"/>
        <pt x="1259" y="1204" on="0"/>
        <pt x="1241" y="1204" on="1"/>
        <pt x="1232" y="1249" on="0"/>
        <pt x="1184" y="1311" on="0"/>
        <pt x="1137" y="1311" on="1"/>
        <pt x="1111" y="1311" on="0"/>
        <pt x="1064" y="1291" on="0"/>
        <pt x="1015" y="1235" on="0"/>
        <pt x="960" y="1136" on="0"/>
        <pt x="926" y="1057" on="1"/>
        <pt x="911" y="1023" on="0"/>
        <pt x="874" y="930" on="0"/>
        <pt x="834" y="823" on="0"/>
        <pt x="796" y="706" on="0"/>
        <pt x="766" y="591" on="0"/>
        <pt x="748" y="482" on="0"/>
        <pt x="748" y="436" on="1"/>
        <pt x="748" y="233" on="1"/>
        <pt x="748" y="185" on="0"/>
        <pt x="774" y="127" on="0"/>
        <pt x="820" y="96" on="0"/>
        <pt x="880" y="86" on="0"/>
      </contour>
    </TTGlyph>
    <TTGlyph name="Upsilondieresis" xMin="-10" yMin="0" xMax="1286" yMax="1862">
      <component glyphName="Y" x="0" y="0" flags="0x204"/>
      <component glyphName="dieresis" x="68" y="338" flags="0x4"/>
    </TTGlyph>
    <TTGlyph name="Upsilontonos" xMin="-109" yMin="0" xMax="1536" yMax="1462">
      <component glyphName="Y" x="250" y="0" flags="0x4"/>
      <component glyphName="tonos" x="-613" y="-168" flags="0x4"/>
    </TTGlyph>
    <TTGlyph name="Uring" xMin="31" yMin="-20" xMax="1438" yMax="2005">
      <component glyphName="U" x="0" y="0" flags="0x204"/>
      <component glyphName="ring" x="420" y="338" flags="0x4"/>
    </TTGlyph>
    <TTGlyph name="Utilde" xMin="31" yMin="-20" xMax="1438" yMax="1841">
      <component glyphName="U" x="0" y="0" flags="0x204"/>
      <component glyphName="tilde" x="168" y="338" flags="0x4"/>
    </TTGlyph>
    <TTGlyph name="V" xMin="0" yMin="0" xMax="1382" yMax="1462">
      <contour>
        <pt x="614" y="0" on="1"/>
        <pt x="172" y="1268" on="1"/>
        <pt x="161" y="1300" on="0"/>
        <pt x="135" y="1342" on="0"/>
        <pt x="101" y="1366" on="0"/>
        <pt x="57" y="1376" on="0"/>
        <pt x="27" y="1376" on="1"/>
        <pt x="0" y="1376" on="1"/>
        <pt x="0" y="1462" on="1"/>
        <pt x="563" y="1462" on="1"/>
        <pt x="563" y="1376" on="1"/>
        <pt x="516" y="1376" on="1"/>
        <pt x="454" y="1376" on="0"/>
        <pt x="393" y="1329" on="0"/>
        <pt x="393" y="1278" on="1"/>
        <pt x="393" y="1261" on="0"/>
        <pt x="402" y="1225" on="0"/>
        <pt x="410" y="1202" on="1"/>
        <pt x="635" y="537" on="1"/>
        <pt x="666" y="446" on="0"/>
        <pt x="710" y="275" on="0"/>
        <pt x="727" y="201" on="1"/>
        <pt x="743" y="275" on="0"/>
        <pt x="787" y="441" on="0"/>
        <pt x="821" y="537" on="1"/>
        <pt x="1047" y="1188" on="1"/>
        <pt x="1055" y="1213" on="0"/>
        <pt x="1065" y="1259" on="0"/>
        <pt x="1065" y="1276" on="1"/>
        <pt x="1065" y="1329" on="0"/>
        <pt x="998" y="1376" on="0"/>
        <pt x="930" y="1376" on="1"/>
        <pt x="883" y="1376" on="1"/>
        <pt x="883" y="1462" on="1"/>
        <pt x="1382" y="1462" on="1"/>
        <pt x="1382" y="1376" on="1"/>
        <pt x="1343" y="1376" on="1"/>
        <pt x="1313" y="1376" on="0"/>
        <pt x="1270" y="1364" on="0"/>
        <pt x="1235" y="1329" on="0"/>
        <pt x="1205" y="1267" on="0"/>
        <pt x="1188" y="1217" on="1"/>
        <pt x="764" y="0" on="1"/>
      </contour>
    </TTGlyph>
    <TTGlyph name="W" xMin="18" yMin="0" xMax="2126" yMax="1462">
      <contour>
        <pt x="1180" y="1448" on="1"/>
        <pt x="1436" y="561" on="1"/>
        <pt x="1465" y="459" on="0"/>
        <pt x="1510" y="272" on="0"/>
        <pt x="1524" y="201" on="1"/>
        <pt x="1539" y="275" on="0"/>
        <pt x="1578" y="438" on="0"/>
        <pt x="1606" y="537" on="1"/>
        <pt x="1786" y="1169" on="1"/>
        <pt x="1789" y="1181" on="0"/>
        <pt x="1797" y="1211" on="0"/>
        <pt x="1803" y="1241" on="0"/>
        <pt x="1808" y="1267" on="0"/>
        <pt x="1808" y="1276" on="1"/>
        <pt x="1808" y="1329" on="0"/>
        <pt x="1741" y="1376" on="0"/>
        <pt x="1673" y="1376" on="1"/>
        <pt x="1626" y="1376" on="1"/>
        <pt x="1626" y="1462" on="1"/>
        <pt x="2126" y="1462" on="1"/>
        <pt x="2126" y="1376" on="1"/>
        <pt x="2087" y="1376" on="1"/>
        <pt x="2057" y="1376" on="0"/>
        <pt x="2012" y="1364" on="0"/>
        <pt x="1976" y="1330" on="0"/>
        <pt x="1946" y="1268" on="0"/>
        <pt x="1931" y="1217" on="1"/>
        <pt x="1585" y="0" on="1"/>
        <pt x="1401" y="0" on="1"/>
        <pt x="1067" y="1147" on="1"/>
        <pt x="754" y="0" on="1"/>
        <pt x="565" y="0" on="1"/>
        <pt x="190" y="1268" on="1"/>
        <pt x="180" y="1300" on="0"/>
        <pt x="155" y="1342" on="0"/>
        <pt x="121" y="1366" on="0"/>
        <pt x="75" y="1376" on="0"/>
        <pt x="45" y="1376" on="1"/>
        <pt x="18" y="1376" on="1"/>
        <pt x="18" y="1462" on="1"/>
        <pt x="582" y="1462" on="1"/>
        <pt x="582" y="1376" on="1"/>
        <pt x="535" y="1376" on="1"/>
        <pt x="473" y="1376" on="0"/>
        <pt x="412" y="1329" on="0"/>
        <pt x="412" y="1278" on="1"/>
        <pt x="412" y="1261" on="0"/>
        <pt x="422" y="1225" on="0"/>
        <pt x="428" y="1202" on="1"/>
        <pt x="616" y="547" on="1"/>
        <pt x="642" y="454" on="0"/>
        <pt x="688" y="275" on="0"/>
        <pt x="705" y="201" on="1"/>
        <pt x="720" y="281" on="0"/>
        <pt x="761" y="470" on="0"/>
        <pt x="788" y="569" on="1"/>
        <pt x="1032" y="1448" on="1"/>
      </contour>
    </TTGlyph>
    <TTGlyph name="Wacute" xMin="18" yMin="0" xMax="2126" yMax="1907">
      <component glyphName="W" x="0" y="0" flags="0x204"/>
      <component glyphName="acute" x="682" y="338" flags="0x4"/>
    </TTGlyph>
    <TTGlyph name="Wcircumflex" xMin="18" yMin="0" xMax="2126" yMax="1907">
      <component glyphName="W" x="0" y="0" flags="0x204"/>
      <component glyphName="circumflex" x="518" y="338" flags="0x4"/>
    </TTGlyph>
    <TTGlyph name="Wdieresis" xMin="18" yMin="0" xMax="2126" yMax="1862">
      <component glyphName="W" x="0" y="0" flags="0x204"/>
      <component glyphName="dieresis" x="559" y="338" flags="0x4"/>
    </TTGlyph>
    <TTGlyph name="Wgrave" xMin="18" yMin="0" xMax="2126" yMax="1907">
      <component glyphName="W" x="0" y="0" flags="0x204"/>
      <component glyphName="grave" x="442" y="338" flags="0x4"/>
    </TTGlyph>
    <TTGlyph name="X" xMin="16" yMin="0" xMax="1335" yMax="1462">
      <contour>
        <pt x="954" y="1317" on="1"/>
        <pt x="954" y="1335" on="0"/>
        <pt x="937" y="1358" on="0"/>
        <pt x="908" y="1371" on="0"/>
        <pt x="868" y="1376" on="0"/>
        <pt x="844" y="1376" on="1"/>
        <pt x="838" y="1376" on="1"/>
        <pt x="838" y="1462" on="1"/>
        <pt x="1286" y="1462" on="1"/>
        <pt x="1286" y="1376" on="1"/>
        <pt x="1268" y="1376" on="1"/>
        <pt x="1238" y="1376" on="0"/>
        <pt x="1189" y="1362" on="0"/>
        <pt x="1143" y="1327" on="0"/>
        <pt x="1094" y="1271" on="0"/>
        <pt x="1065" y="1229" on="1"/>
        <pt x="768" y="801" on="1"/>
        <pt x="1145" y="195" on="1"/>
        <pt x="1190" y="135" on="0"/>
        <pt x="1270" y="86" on="0"/>
        <pt x="1309" y="86" on="1"/>
        <pt x="1335" y="86" on="1"/>
        <pt x="1335" y="0" on="1"/>
        <pt x="782" y="0" on="1"/>
        <pt x="782" y="86" on="1"/>
        <pt x="793" y="86" on="1"/>
        <pt x="915" y="86" on="0"/>
        <pt x="915" y="154" on="1"/>
        <pt x="915" y="165" on="0"/>
        <pt x="910" y="187" on="0"/>
        <pt x="896" y="217" on="0"/>
        <pt x="869" y="261" on="0"/>
        <pt x="848" y="295" on="1"/>
        <pt x="645" y="621" on="1"/>
        <pt x="418" y="285" on="1"/>
        <pt x="409" y="272" on="0"/>
        <pt x="391" y="239" on="0"/>
        <pt x="375" y="203" on="0"/>
        <pt x="365" y="166" on="0"/>
        <pt x="365" y="150" on="1"/>
        <pt x="365" y="115" on="0"/>
        <pt x="430" y="86" on="0"/>
        <pt x="498" y="86" on="1"/>
        <pt x="504" y="86" on="1"/>
        <pt x="504" y="0" on="1"/>
        <pt x="16" y="0" on="1"/>
        <pt x="16" y="86" on="1"/>
        <pt x="29" y="86" on="1"/>
        <pt x="66" y="86" on="0"/>
        <pt x="121" y="101" on="0"/>
        <pt x="168" y="135" on="0"/>
        <pt x="214" y="189" on="0"/>
        <pt x="242" y="229" on="1"/>
        <pt x="584" y="719" on="1"/>
        <pt x="246" y="1268" on="1"/>
        <pt x="209" y="1327" on="0"/>
        <pt x="116" y="1376" on="0"/>
        <pt x="70" y="1376" on="1"/>
        <pt x="43" y="1376" on="1"/>
        <pt x="43" y="1462" on="1"/>
        <pt x="598" y="1462" on="1"/>
        <pt x="598" y="1376" on="1"/>
        <pt x="592" y="1376" on="1"/>
        <pt x="557" y="1376" on="0"/>
        <pt x="511" y="1367" on="0"/>
        <pt x="485" y="1351" on="0"/>
        <pt x="475" y="1329" on="0"/>
        <pt x="475" y="1317" on="1"/>
        <pt x="475" y="1306" on="0"/>
        <pt x="478" y="1286" on="0"/>
        <pt x="488" y="1259" on="0"/>
        <pt x="507" y="1223" on="0"/>
        <pt x="524" y="1196" on="1"/>
        <pt x="709" y="897" on="1"/>
        <pt x="903" y="1192" on="1"/>
        <pt x="926" y="1227" on="0"/>
        <pt x="954" y="1289" on="0"/>
      </contour>
    </TTGlyph>
    <TTGlyph name="Xi" xMin="86" yMin="0" xMax="1186" yMax="1462">
      <contour>
        <pt x="1176" y="0" on="1"/>
        <pt x="96" y="0" on="1"/>
        <pt x="86" y="403" on="1"/>
        <pt x="193" y="403" on="1"/>
        <pt x="201" y="342" on="1"/>
        <pt x="205" y="311" on="0"/>
        <pt x="225" y="255" on="0"/>
        <pt x="264" y="213" on="0"/>
        <pt x="327" y="188" on="0"/>
        <pt x="373" y="188" on="1"/>
        <pt x="899" y="188" on="1"/>
        <pt x="945" y="188" on="0"/>
        <pt x="1008" y="213" on="0"/>
        <pt x="1047" y="255" on="0"/>
        <pt x="1067" y="311" on="0"/>
        <pt x="1071" y="342" on="1"/>
        <pt x="1079" y="403" on="1"/>
        <pt x="1186" y="403" on="1"/>
      </contour>
      <contour>
        <pt x="1124" y="1083" on="1"/>
        <pt x="1018" y="1083" on="1"/>
        <pt x="1010" y="1145" on="1"/>
        <pt x="1006" y="1176" on="0"/>
        <pt x="986" y="1231" on="0"/>
        <pt x="946" y="1273" on="0"/>
        <pt x="884" y="1298" on="0"/>
        <pt x="838" y="1298" on="1"/>
        <pt x="434" y="1298" on="1"/>
        <pt x="388" y="1298" on="0"/>
        <pt x="325" y="1273" on="0"/>
        <pt x="286" y="1231" on="0"/>
        <pt x="266" y="1176" on="0"/>
        <pt x="262" y="1145" on="1"/>
        <pt x="254" y="1083" on="1"/>
        <pt x="147" y="1083" on="1"/>
        <pt x="158" y="1462" on="1"/>
        <pt x="1114" y="1462" on="1"/>
      </contour>
      <contour>
        <pt x="397" y="948" on="1"/>
        <pt x="408" y="909" on="1"/>
        <pt x="414" y="887" on="0"/>
        <pt x="434" y="852" on="0"/>
        <pt x="472" y="828" on="0"/>
        <pt x="532" y="815" on="0"/>
        <pt x="578" y="815" on="1"/>
        <pt x="690" y="815" on="1"/>
        <pt x="772" y="815" on="0"/>
        <pt x="853" y="866" on="0"/>
        <pt x="864" y="909" on="1"/>
        <pt x="874" y="948" on="1"/>
        <pt x="961" y="948" on="1"/>
        <pt x="961" y="559" on="1"/>
        <pt x="874" y="559" on="1"/>
        <pt x="864" y="598" on="1"/>
        <pt x="853" y="641" on="0"/>
        <pt x="772" y="692" on="0"/>
        <pt x="690" y="692" on="1"/>
        <pt x="578" y="692" on="1"/>
        <pt x="532" y="692" on="0"/>
        <pt x="472" y="679" on="0"/>
        <pt x="434" y="655" on="0"/>
        <pt x="414" y="620" on="0"/>
        <pt x="408" y="598" on="1"/>
        <pt x="397" y="559" on="1"/>
        <pt x="311" y="559" on="1"/>
        <pt x="311" y="948" on="1"/>
      </contour>
    </TTGlyph>
    <TTGlyph name="Y" xMin="-10" yMin="0" xMax="1286" yMax="1462">
      <contour>
        <pt x="326" y="0" on="1"/>
        <pt x="326" y="86" on="1"/>
        <pt x="373" y="86" on="1"/>
        <pt x="407" y="86" on="0"/>
        <pt x="468" y="95" on="0"/>
        <pt x="514" y="123" on="0"/>
        <pt x="541" y="178" on="0"/>
        <pt x="541" y="223" on="1"/>
        <pt x="541" y="610" on="1"/>
        <pt x="162" y="1268" on="1"/>
        <pt x="145" y="1297" on="0"/>
        <pt x="115" y="1338" on="0"/>
        <pt x="82" y="1364" on="0"/>
        <pt x="42" y="1376" on="0"/>
        <pt x="16" y="1376" on="1"/>
        <pt x="-10" y="1376" on="1"/>
        <pt x="-10" y="1462" on="1"/>
        <pt x="553" y="1462" on="1"/>
        <pt x="553" y="1376" on="1"/>
        <pt x="477" y="1376" on="1"/>
        <pt x="449" y="1376" on="0"/>
        <pt x="414" y="1366" on="0"/>
        <pt x="394" y="1348" on="0"/>
        <pt x="387" y="1324" on="0"/>
        <pt x="387" y="1311" on="1"/>
        <pt x="387" y="1282" on="0"/>
        <pt x="412" y="1224" on="0"/>
        <pt x="424" y="1202" on="1"/>
        <pt x="575" y="928" on="1"/>
        <pt x="611" y="865" on="0"/>
        <pt x="661" y="742" on="0"/>
        <pt x="678" y="694" on="1"/>
        <pt x="687" y="716" on="0"/>
        <pt x="714" y="770" on="0"/>
        <pt x="747" y="831" on="0"/>
        <pt x="783" y="896" on="0"/>
        <pt x="801" y="928" on="1"/>
        <pt x="932" y="1163" on="1"/>
        <pt x="952" y="1198" on="0"/>
        <pt x="969" y="1261" on="0"/>
        <pt x="969" y="1286" on="1"/>
        <pt x="969" y="1331" on="0"/>
        <pt x="905" y="1376" on="0"/>
        <pt x="846" y="1376" on="1"/>
        <pt x="786" y="1376" on="1"/>
        <pt x="786" y="1462" on="1"/>
        <pt x="1286" y="1462" on="1"/>
        <pt x="1286" y="1376" on="1"/>
        <pt x="1262" y="1376" on="1"/>
        <pt x="1240" y="1376" on="0"/>
        <pt x="1201" y="1361" on="0"/>
        <pt x="1161" y="1324" on="0"/>
        <pt x="1118" y="1263" on="0"/>
        <pt x="1092" y="1217" on="1"/>
        <pt x="748" y="610" on="1"/>
        <pt x="748" y="233" on="1"/>
        <pt x="748" y="185" on="0"/>
        <pt x="774" y="127" on="0"/>
        <pt x="820" y="96" on="0"/>
        <pt x="881" y="86" on="0"/>
        <pt x="915" y="86" on="1"/>
        <pt x="963" y="86" on="1"/>
        <pt x="963" y="0" on="1"/>
      </contour>
    </TTGlyph>
    <TTGlyph name="Yacute" xMin="-10" yMin="0" xMax="1286" yMax="1907">
      <component glyphName="Y" x="0" y="0" flags="0x204"/>
      <component glyphName="acute" x="176" y="338" flags="0x4"/>
    </TTGlyph>
    <TTGlyph name="Ycircumflex" xMin="-10" yMin="0" xMax="1286" yMax="1907">
      <component glyphName="Y" x="0" y="0" flags="0x204"/>
      <component glyphName="circumflex" x="53" y="338" flags="0x4"/>
    </TTGlyph>
    <TTGlyph name="Ydieresis" xMin="-10" yMin="0" xMax="1286" yMax="1862">
      <component glyphName="Y" x="0" y="0" flags="0x204"/>
      <component glyphName="dieresis" x="68" y="338" flags="0x4"/>
    </TTGlyph>
    <TTGlyph name="Ygrave" xMin="-10" yMin="0" xMax="1286" yMax="1907">
      <component glyphName="Y" x="0" y="0" flags="0x204"/>
      <component glyphName="grave" x="-46" y="338" flags="0x4"/>
    </TTGlyph>
    <TTGlyph name="Z" xMin="74" yMin="0" xMax="1126" yMax="1462">
      <contour>
        <pt x="1094" y="1378" on="1"/>
        <pt x="324" y="102" on="1"/>
        <pt x="840" y="102" on="1"/>
        <pt x="886" y="102" on="0"/>
        <pt x="948" y="129" on="0"/>
        <pt x="986" y="175" on="0"/>
        <pt x="1006" y="236" on="0"/>
        <pt x="1010" y="270" on="1"/>
        <pt x="1020" y="358" on="1"/>
        <pt x="1126" y="358" on="1"/>
        <pt x="1116" y="0" on="1"/>
        <pt x="74" y="0" on="1"/>
        <pt x="74" y="82" on="1"/>
        <pt x="842" y="1360" on="1"/>
        <pt x="397" y="1360" on="1"/>
        <pt x="352" y="1360" on="0"/>
        <pt x="291" y="1333" on="0"/>
        <pt x="253" y="1287" on="0"/>
        <pt x="233" y="1226" on="0"/>
        <pt x="229" y="1192" on="1"/>
        <pt x="219" y="1104" on="1"/>
        <pt x="113" y="1104" on="1"/>
        <pt x="123" y="1462" on="1"/>
        <pt x="1094" y="1462" on="1"/>
      </contour>
    </TTGlyph>
    <TTGlyph name="Zacute" xMin="74" yMin="0" xMax="1126" yMax="1907">
      <component glyphName="Z" x="0" y="0" flags="0x204"/>
      <component glyphName="acute" x="104" y="338" flags="0x4"/>
    </TTGlyph>
    <TTGlyph name="Zcaron" xMin="74" yMin="0" xMax="1126" yMax="1907">
      <component glyphName="Z" x="0" y="0" flags="0x204"/>
      <component glyphName="caron" x="31" y="338" flags="0x4"/>
    </TTGlyph>
    <TTGlyph name="Zdotaccent" xMin="74" yMin="0" xMax="1126" yMax="1863">
      <component glyphName="Z" x="0" y="0" flags="0x204"/>
      <component glyphName="dotaccent" x="297" y="338" flags="0x4"/>
    </TTGlyph>
    <TTGlyph name="Zeta" xMin="74" yMin="0" xMax="1126" yMax="1462">
      <component glyphName="Z" x="0" y="0" flags="0x204"/>
    </TTGlyph>
    <TTGlyph name="a" xMin="102" yMin="-20" xMax="1065" yMax="1118">
      <contour>
        <pt x="301" y="297" on="1"/>
        <pt x="301" y="201" on="0"/>
        <pt x="382" y="106" on="0"/>
        <pt x="467" y="106" on="1"/>
        <pt x="529" y="106" on="0"/>
        <pt x="630" y="146" on="0"/>
        <pt x="701" y="220" on="0"/>
        <pt x="739" y="326" on="0"/>
        <pt x="739" y="391" on="1"/>
        <pt x="739" y="557" on="1"/>
        <pt x="608" y="551" on="1"/>
        <pt x="521" y="547" on="0"/>
        <pt x="404" y="512" on="0"/>
        <pt x="332" y="449" on="0"/>
        <pt x="301" y="357" on="0"/>
      </contour>
      <contour>
        <pt x="549" y="1016" on="1"/>
        <pt x="490" y="1016" on="0"/>
        <pt x="417" y="983" on="0"/>
        <pt x="376" y="923" on="0"/>
        <pt x="362" y="841" on="0"/>
        <pt x="362" y="793" on="1"/>
        <pt x="277" y="793" on="0"/>
        <pt x="188" y="851" on="0"/>
        <pt x="188" y="922" on="1"/>
        <pt x="188" y="975" on="0"/>
        <pt x="246" y="1049" on="0"/>
        <pt x="347" y="1096" on="0"/>
        <pt x="481" y="1118" on="0"/>
        <pt x="557" y="1118" on="1"/>
        <pt x="651" y="1118" on="0"/>
        <pt x="791" y="1081" on="0"/>
        <pt x="885" y="997" on="0"/>
        <pt x="932" y="862" on="0"/>
        <pt x="932" y="764" on="1"/>
        <pt x="932" y="233" on="1"/>
        <pt x="932" y="190" on="0"/>
        <pt x="946" y="134" on="0"/>
        <pt x="976" y="100" on="0"/>
        <pt x="1025" y="86" on="0"/>
        <pt x="1059" y="86" on="1"/>
        <pt x="1065" y="86" on="1"/>
        <pt x="1065" y="0" on="1"/>
        <pt x="788" y="0" on="1"/>
        <pt x="756" y="176" on="1"/>
        <pt x="739" y="176" on="1"/>
        <pt x="707" y="133" on="0"/>
        <pt x="647" y="61" on="0"/>
        <pt x="575" y="9" on="0"/>
        <pt x="484" y="-20" on="0"/>
        <pt x="420" y="-20" on="1"/>
        <pt x="352" y="-20" on="0"/>
        <pt x="235" y="19" on="0"/>
        <pt x="150" y="100" on="0"/>
        <pt x="102" y="223" on="0"/>
        <pt x="102" y="307" on="1"/>
        <pt x="102" y="470" on="0"/>
        <pt x="334" y="628" on="0"/>
        <pt x="569" y="635" on="1"/>
        <pt x="739" y="641" on="1"/>
        <pt x="739" y="764" on="1"/>
        <pt x="739" y="819" on="0"/>
        <pt x="727" y="912" on="0"/>
        <pt x="687" y="979" on="0"/>
        <pt x="612" y="1016" on="0"/>
      </contour>
    </TTGlyph>
    <TTGlyph name="aacute" xMin="102" yMin="-20" xMax="1065" yMax="1569">
      <component glyphName="a" x="0" y="0" flags="0x204"/>
      <component glyphName="acute" x="80" y="0" flags="0x4"/>
    </TTGlyph>
    <TTGlyph name="abreve" xMin="102" yMin="-20" xMax="1065" yMax="1522">
      <component glyphName="a" x="0" y="0" flags="0x204"/>
      <component glyphName="breve" x="-26" y="0" flags="0x4"/>
    </TTGlyph>
    <TTGlyph name="acircumflex" xMin="102" yMin="-20" xMax="1065" yMax="1569">
      <component glyphName="a" x="0" y="0" flags="0x204"/>
      <component glyphName="circumflex" x="-28" y="0" flags="0x4"/>
    </TTGlyph>
    <TTGlyph name="acute" xMin="391" yMin="1241" xMax="788" yMax="1569">
      <contour>
        <pt x="391" y="1268" on="1"/>
        <pt x="414" y="1297" on="0"/>
        <pt x="463" y="1373" on="0"/>
        <pt x="510" y="1454" on="0"/>
        <pt x="553" y="1535" on="0"/>
        <pt x="569" y="1569" on="1"/>
        <pt x="788" y="1569" on="1"/>
        <pt x="788" y="1548" on="1"/>
        <pt x="769" y="1521" on="0"/>
        <pt x="695" y="1440" on="0"/>
        <pt x="605" y="1352" on="0"/>
        <pt x="510" y="1269" on="0"/>
        <pt x="469" y="1241" on="1"/>
        <pt x="391" y="1241" on="1"/>
      </contour>
    </TTGlyph>
    <TTGlyph name="acutecomb" xMin="-700" yMin="1241" xMax="-303" yMax="1569">
      <component glyphName="acute" x="-1091" y="0" flags="0x4"/>
    </TTGlyph>
    <TTGlyph name="adieresis" xMin="102" yMin="-20" xMax="1065" yMax="1524">
      <component glyphName="a" x="0" y="0" flags="0x204"/>
      <component glyphName="dieresis" x="-34" y="0" flags="0x4"/>
    </TTGlyph>
    <TTGlyph name="ae" xMin="102" yMin="-20" xMax="1620" yMax="1118">
      <contour>
        <pt x="301" y="297" on="1"/>
        <pt x="301" y="201" on="0"/>
        <pt x="382" y="106" on="0"/>
        <pt x="467" y="106" on="1"/>
        <pt x="529" y="106" on="0"/>
        <pt x="630" y="146" on="0"/>
        <pt x="701" y="220" on="0"/>
        <pt x="739" y="326" on="0"/>
        <pt x="739" y="391" on="1"/>
        <pt x="739" y="514" on="1"/>
        <pt x="739" y="541" on="1"/>
        <pt x="739" y="557" on="1"/>
        <pt x="608" y="551" on="1"/>
        <pt x="521" y="547" on="0"/>
        <pt x="404" y="512" on="0"/>
        <pt x="332" y="449" on="0"/>
        <pt x="301" y="357" on="0"/>
      </contour>
      <contour>
        <pt x="1190" y="1008" on="1"/>
        <pt x="1075" y="1008" on="0"/>
        <pt x="953" y="823" on="0"/>
        <pt x="942" y="645" on="1"/>
        <pt x="1413" y="645" on="1"/>
        <pt x="1413" y="726" on="0"/>
        <pt x="1389" y="860" on="0"/>
        <pt x="1337" y="956" on="0"/>
        <pt x="1252" y="1008" on="0"/>
      </contour>
      <contour>
        <pt x="1221" y="-20" on="1"/>
        <pt x="1071" y="-20" on="0"/>
        <pt x="862" y="98" on="0"/>
        <pt x="805" y="213" on="1"/>
        <pt x="786" y="167" on="0"/>
        <pt x="718" y="83" on="0"/>
        <pt x="621" y="18" on="0"/>
        <pt x="496" y="-20" on="0"/>
        <pt x="420" y="-20" on="1"/>
        <pt x="352" y="-20" on="0"/>
        <pt x="235" y="19" on="0"/>
        <pt x="150" y="100" on="0"/>
        <pt x="102" y="223" on="0"/>
        <pt x="102" y="307" on="1"/>
        <pt x="102" y="470" on="0"/>
        <pt x="334" y="628" on="0"/>
        <pt x="569" y="635" on="1"/>
        <pt x="739" y="641" on="1"/>
        <pt x="739" y="764" on="1"/>
        <pt x="739" y="819" on="0"/>
        <pt x="727" y="912" on="0"/>
        <pt x="687" y="979" on="0"/>
        <pt x="612" y="1016" on="0"/>
        <pt x="549" y="1016" on="1"/>
        <pt x="490" y="1016" on="0"/>
        <pt x="417" y="983" on="0"/>
        <pt x="376" y="923" on="0"/>
        <pt x="362" y="841" on="0"/>
        <pt x="362" y="793" on="1"/>
        <pt x="277" y="793" on="0"/>
        <pt x="188" y="851" on="0"/>
        <pt x="188" y="922" on="1"/>
        <pt x="188" y="975" on="0"/>
        <pt x="246" y="1049" on="0"/>
        <pt x="347" y="1096" on="0"/>
        <pt x="481" y="1118" on="0"/>
        <pt x="557" y="1118" on="1"/>
        <pt x="673" y="1118" on="0"/>
        <pt x="832" y="1059" on="0"/>
        <pt x="877" y="993" on="1"/>
        <pt x="991" y="1118" on="0"/>
        <pt x="1194" y="1118" on="1"/>
        <pt x="1293" y="1118" on="0"/>
        <pt x="1451" y="1056" on="0"/>
        <pt x="1561" y="933" on="0"/>
        <pt x="1620" y="750" on="0"/>
        <pt x="1620" y="629" on="1"/>
        <pt x="1620" y="535" on="1"/>
        <pt x="938" y="535" on="1"/>
        <pt x="940" y="423" on="0"/>
        <pt x="979" y="262" on="0"/>
        <pt x="1056" y="158" on="0"/>
        <pt x="1174" y="109" on="0"/>
        <pt x="1255" y="109" on="1"/>
        <pt x="1300" y="109" on="0"/>
        <pt x="1384" y="131" on="0"/>
        <pt x="1457" y="170" on="0"/>
        <pt x="1516" y="222" on="0"/>
        <pt x="1536" y="252" on="1"/>
        <pt x="1550" y="246" on="0"/>
        <pt x="1575" y="208" on="0"/>
        <pt x="1575" y="182" on="1"/>
        <pt x="1575" y="151" on="0"/>
        <pt x="1531" y="80" on="0"/>
        <pt x="1443" y="20" on="0"/>
        <pt x="1310" y="-20" on="0"/>
      </contour>
    </TTGlyph>
    <TTGlyph name="aeacute" xMin="102" yMin="-20" xMax="1620" yMax="1569">
      <component glyphName="ae" x="0" y="0" flags="0x204"/>
      <component glyphName="acute" x="373" y="0" flags="0x4"/>
    </TTGlyph>
    <TTGlyph name="afii00208" xMin="-10" yMin="489" xMax="2058" yMax="610">
      <contour>
        <pt x="2058" y="489" on="1"/>
        <pt x="-10" y="489" on="1"/>
        <pt x="-10" y="610" on="1"/>
        <pt x="2058" y="610" on="1"/>
      </contour>
    </TTGlyph>
    <TTGlyph name="afii10017" xMin="0" yMin="0" xMax="1444" yMax="1462">
      <component glyphName="A" x="0" y="0" flags="0x204"/>
    </TTGlyph>
    <TTGlyph name="afii10018" xMin="78" yMin="0" xMax="1157" yMax="1462">
      <contour>
        <pt x="1065" y="1462" on="1"/>
        <pt x="1075" y="1104" on="1"/>
        <pt x="969" y="1104" on="1"/>
        <pt x="958" y="1192" on="1"/>
        <pt x="954" y="1226" on="0"/>
        <pt x="935" y="1287" on="0"/>
        <pt x="896" y="1333" on="0"/>
        <pt x="834" y="1360" on="0"/>
        <pt x="788" y="1360" on="1"/>
        <pt x="479" y="1360" on="1"/>
        <pt x="479" y="809" on="1"/>
        <pt x="608" y="809" on="1"/>
        <pt x="757" y="809" on="0"/>
        <pt x="965" y="750" on="0"/>
        <pt x="1097" y="643" on="0"/>
        <pt x="1157" y="495" on="0"/>
        <pt x="1157" y="406" on="1"/>
        <pt x="1157" y="316" on="0"/>
        <pt x="1096" y="167" on="0"/>
        <pt x="972" y="59" on="0"/>
        <pt x="782" y="0" on="0"/>
        <pt x="653" y="0" on="1"/>
        <pt x="78" y="0" on="1"/>
        <pt x="78" y="86" on="1"/>
        <pt x="104" y="86" on="1"/>
        <pt x="138" y="86" on="0"/>
        <pt x="199" y="95" on="0"/>
        <pt x="245" y="125" on="0"/>
        <pt x="272" y="180" on="0"/>
        <pt x="272" y="225" on="1"/>
        <pt x="272" y="1229" on="1"/>
        <pt x="272" y="1277" on="0"/>
        <pt x="246" y="1335" on="0"/>
        <pt x="200" y="1366" on="0"/>
        <pt x="139" y="1376" on="0"/>
        <pt x="104" y="1376" on="1"/>
        <pt x="78" y="1376" on="1"/>
        <pt x="78" y="1462" on="1"/>
      </contour>
      <contour>
        <pt x="479" y="98" on="1"/>
        <pt x="618" y="98" on="1"/>
        <pt x="705" y="98" on="0"/>
        <pt x="826" y="135" on="0"/>
        <pt x="902" y="208" on="0"/>
        <pt x="936" y="320" on="0"/>
        <pt x="936" y="395" on="1"/>
        <pt x="936" y="481" on="0"/>
        <pt x="897" y="602" on="0"/>
        <pt x="813" y="678" on="0"/>
        <pt x="681" y="713" on="0"/>
        <pt x="588" y="713" on="1"/>
        <pt x="479" y="713" on="1"/>
      </contour>
    </TTGlyph>
    <TTGlyph name="afii10019" xMin="78" yMin="0" xMax="1214" yMax="1462">
      <component glyphName="B" x="0" y="0" flags="0x204"/>
    </TTGlyph>
    <TTGlyph name="afii10020" xMin="78" yMin="0" xMax="1108" yMax="1462">
      <component glyphName="Gamma" x="0" y="0" flags="0x204"/>
    </TTGlyph>
    <TTGlyph name="afii10021" xMin="29" yMin="-430" xMax="1333" yMax="1462">
      <contour>
        <pt x="655" y="1360" on="1"/>
        <pt x="655" y="1259" on="0"/>
        <pt x="622" y="1039" on="0"/>
        <pt x="565" y="814" on="0"/>
        <pt x="490" y="589" on="0"/>
        <pt x="407" y="377" on="0"/>
        <pt x="321" y="184" on="0"/>
        <pt x="281" y="102" on="1"/>
        <pt x="920" y="102" on="1"/>
        <pt x="920" y="1360" on="1"/>
      </contour>
      <contour>
        <pt x="154" y="102" on="1"/>
        <pt x="227" y="254" on="0"/>
        <pt x="365" y="575" on="0"/>
        <pt x="472" y="886" on="0"/>
        <pt x="537" y="1173" on="0"/>
        <pt x="537" y="1292" on="1"/>
        <pt x="537" y="1321" on="0"/>
        <pt x="507" y="1354" on="0"/>
        <pt x="457" y="1371" on="0"/>
        <pt x="392" y="1376" on="0"/>
        <pt x="358" y="1376" on="1"/>
        <pt x="352" y="1376" on="1"/>
        <pt x="352" y="1462" on="1"/>
        <pt x="1294" y="1462" on="1"/>
        <pt x="1294" y="1376" on="1"/>
        <pt x="1268" y="1376" on="1"/>
        <pt x="1240" y="1376" on="0"/>
        <pt x="1187" y="1367" on="0"/>
        <pt x="1148" y="1339" on="0"/>
        <pt x="1124" y="1284" on="0"/>
        <pt x="1124" y="1239" on="1"/>
        <pt x="1124" y="250" on="1"/>
        <pt x="1124" y="202" on="0"/>
        <pt x="1151" y="143" on="0"/>
        <pt x="1196" y="112" on="0"/>
        <pt x="1258" y="102" on="0"/>
        <pt x="1292" y="102" on="1"/>
        <pt x="1333" y="102" on="1"/>
        <pt x="1333" y="-430" on="1"/>
        <pt x="1239" y="-430" on="1"/>
        <pt x="1239" y="-316" on="0"/>
        <pt x="1197" y="-154" on="0"/>
        <pt x="1119" y="-49" on="0"/>
        <pt x="1007" y="0" on="0"/>
        <pt x="936" y="0" on="1"/>
        <pt x="426" y="0" on="1"/>
        <pt x="356" y="0" on="0"/>
        <pt x="243" y="-49" on="0"/>
        <pt x="165" y="-154" on="0"/>
        <pt x="123" y="-316" on="0"/>
        <pt x="123" y="-430" on="1"/>
        <pt x="29" y="-430" on="1"/>
        <pt x="29" y="102" on="1"/>
      </contour>
    </TTGlyph>
    <TTGlyph name="afii10022" xMin="78" yMin="0" xMax="1190" yMax="1462">
      <component glyphName="E" x="0" y="0" flags="0x204"/>
    </TTGlyph>
    <TTGlyph name="afii10023" xMin="78" yMin="0" xMax="1190" yMax="1862">
      <component glyphName="E" x="0" y="0" flags="0x204"/>
      <component glyphName="dieresis" x="51" y="338" flags="0x4"/>
    </TTGlyph>
    <TTGlyph name="afii10024" xMin="0" yMin="0" xMax="2005" yMax="1475">
      <contour>
        <pt x="907" y="1237" on="1"/>
        <pt x="907" y="1282" on="0"/>
        <pt x="880" y="1337" on="0"/>
        <pt x="834" y="1367" on="0"/>
        <pt x="773" y="1376" on="0"/>
        <pt x="739" y="1376" on="1"/>
        <pt x="733" y="1376" on="1"/>
        <pt x="733" y="1462" on="1"/>
        <pt x="1272" y="1462" on="1"/>
        <pt x="1272" y="1376" on="1"/>
        <pt x="1266" y="1376" on="1"/>
        <pt x="1232" y="1376" on="0"/>
        <pt x="1170" y="1366" on="0"/>
        <pt x="1125" y="1335" on="0"/>
        <pt x="1098" y="1277" on="0"/>
        <pt x="1098" y="1229" on="1"/>
        <pt x="1098" y="782" on="1"/>
        <pt x="1139" y="782" on="0"/>
        <pt x="1191" y="789" on="0"/>
        <pt x="1227" y="804" on="0"/>
        <pt x="1253" y="828" on="0"/>
        <pt x="1266" y="844" on="1"/>
        <pt x="1292" y="876" on="0"/>
        <pt x="1368" y="1028" on="0"/>
        <pt x="1425" y="1141" on="1"/>
        <pt x="1464" y="1218" on="0"/>
        <pt x="1543" y="1341" on="0"/>
        <pt x="1630" y="1428" on="0"/>
        <pt x="1730" y="1475" on="0"/>
        <pt x="1790" y="1475" on="1"/>
        <pt x="1835" y="1475" on="0"/>
        <pt x="1899" y="1455" on="0"/>
        <pt x="1938" y="1421" on="0"/>
        <pt x="1956" y="1373" on="0"/>
        <pt x="1956" y="1346" on="1"/>
        <pt x="1956" y="1317" on="0"/>
        <pt x="1940" y="1269" on="0"/>
        <pt x="1913" y="1234" on="0"/>
        <pt x="1877" y="1212" on="0"/>
        <pt x="1858" y="1208" on="1"/>
        <pt x="1854" y="1231" on="0"/>
        <pt x="1836" y="1273" on="0"/>
        <pt x="1806" y="1305" on="0"/>
        <pt x="1764" y="1323" on="0"/>
        <pt x="1737" y="1323" on="1"/>
        <pt x="1677" y="1323" on="0"/>
        <pt x="1568" y="1205" on="0"/>
        <pt x="1505" y="1081" on="1"/>
        <pt x="1473" y="1018" on="0"/>
        <pt x="1424" y="922" on="0"/>
        <pt x="1382" y="849" on="0"/>
        <pt x="1343" y="795" on="0"/>
        <pt x="1319" y="774" on="1"/>
        <pt x="1373" y="772" on="0"/>
        <pt x="1450" y="747" on="0"/>
        <pt x="1509" y="703" on="0"/>
        <pt x="1554" y="638" on="0"/>
        <pt x="1577" y="596" on="1"/>
        <pt x="1769" y="250" on="1"/>
        <pt x="1817" y="163" on="0"/>
        <pt x="1930" y="86" on="0"/>
        <pt x="1999" y="86" on="1"/>
        <pt x="2005" y="86" on="1"/>
        <pt x="2005" y="0" on="1"/>
        <pt x="1976" y="0" on="1"/>
        <pt x="1878" y="0" on="0"/>
        <pt x="1748" y="16" on="0"/>
        <pt x="1660" y="59" on="0"/>
        <pt x="1598" y="134" on="0"/>
        <pt x="1567" y="193" on="1"/>
        <pt x="1380" y="549" on="1"/>
        <pt x="1356" y="595" on="0"/>
        <pt x="1315" y="650" on="0"/>
        <pt x="1258" y="679" on="0"/>
        <pt x="1170" y="688" on="0"/>
        <pt x="1098" y="688" on="1"/>
        <pt x="1098" y="233" on="1"/>
        <pt x="1098" y="185" on="0"/>
        <pt x="1125" y="127" on="0"/>
        <pt x="1170" y="96" on="0"/>
        <pt x="1232" y="86" on="0"/>
        <pt x="1266" y="86" on="1"/>
        <pt x="1272" y="86" on="1"/>
        <pt x="1272" y="0" on="1"/>
        <pt x="733" y="0" on="1"/>
        <pt x="733" y="86" on="1"/>
        <pt x="739" y="86" on="1"/>
        <pt x="773" y="86" on="0"/>
        <pt x="834" y="95" on="0"/>
        <pt x="880" y="123" on="0"/>
        <pt x="907" y="178" on="0"/>
        <pt x="907" y="223" on="1"/>
        <pt x="907" y="688" on="1"/>
        <pt x="835" y="688" on="0"/>
        <pt x="747" y="679" on="0"/>
        <pt x="690" y="650" on="0"/>
        <pt x="649" y="595" on="0"/>
        <pt x="625" y="549" on="1"/>
        <pt x="438" y="193" on="1"/>
        <pt x="407" y="134" on="0"/>
        <pt x="345" y="59" on="0"/>
        <pt x="257" y="16" on="0"/>
        <pt x="127" y="0" on="0"/>
        <pt x="29" y="0" on="1"/>
        <pt x="0" y="0" on="1"/>
        <pt x="0" y="86" on="1"/>
        <pt x="6" y="86" on="1"/>
        <pt x="75" y="86" on="0"/>
        <pt x="188" y="163" on="0"/>
        <pt x="236" y="250" on="1"/>
        <pt x="428" y="596" on="1"/>
        <pt x="451" y="638" on="0"/>
        <pt x="496" y="703" on="0"/>
        <pt x="555" y="747" on="0"/>
        <pt x="632" y="772" on="0"/>
        <pt x="686" y="774" on="1"/>
        <pt x="662" y="795" on="0"/>
        <pt x="623" y="849" on="0"/>
        <pt x="581" y="922" on="0"/>
        <pt x="532" y="1018" on="0"/>
        <pt x="500" y="1081" on="1"/>
        <pt x="437" y="1205" on="0"/>
        <pt x="328" y="1323" on="0"/>
        <pt x="268" y="1323" on="1"/>
        <pt x="241" y="1323" on="0"/>
        <pt x="199" y="1305" on="0"/>
        <pt x="169" y="1273" on="0"/>
        <pt x="151" y="1231" on="0"/>
        <pt x="147" y="1208" on="1"/>
        <pt x="128" y="1212" on="0"/>
        <pt x="92" y="1234" on="0"/>
        <pt x="65" y="1269" on="0"/>
        <pt x="49" y="1317" on="0"/>
        <pt x="49" y="1346" on="1"/>
        <pt x="49" y="1373" on="0"/>
        <pt x="67" y="1421" on="0"/>
        <pt x="106" y="1455" on="0"/>
        <pt x="170" y="1475" on="0"/>
        <pt x="215" y="1475" on="1"/>
        <pt x="275" y="1475" on="0"/>
        <pt x="375" y="1428" on="0"/>
        <pt x="462" y="1341" on="0"/>
        <pt x="541" y="1218" on="0"/>
        <pt x="580" y="1141" on="1"/>
        <pt x="637" y="1028" on="0"/>
        <pt x="713" y="876" on="0"/>
        <pt x="739" y="844" on="1"/>
        <pt x="752" y="828" on="0"/>
        <pt x="778" y="804" on="0"/>
        <pt x="814" y="789" on="0"/>
        <pt x="867" y="782" on="0"/>
        <pt x="907" y="782" on="1"/>
      </contour>
    </TTGlyph>
    <TTGlyph name="afii10025" xMin="92" yMin="-23" xMax="1110" yMax="1483">
      <contour>
        <pt x="559" y="90" on="1"/>
        <pt x="631" y="90" on="0"/>
        <pt x="751" y="124" on="0"/>
        <pt x="836" y="202" on="0"/>
        <pt x="883" y="328" on="0"/>
        <pt x="883" y="420" on="1"/>
        <pt x="883" y="484" on="0"/>
        <pt x="838" y="590" on="0"/>
        <pt x="749" y="664" on="0"/>
        <pt x="618" y="705" on="0"/>
        <pt x="532" y="705" on="1"/>
        <pt x="358" y="705" on="1"/>
        <pt x="358" y="809" on="1"/>
        <pt x="532" y="809" on="1"/>
        <pt x="600" y="809" on="0"/>
        <pt x="717" y="853" on="0"/>
        <pt x="804" y="936" on="0"/>
        <pt x="854" y="1053" on="0"/>
        <pt x="854" y="1126" on="1"/>
        <pt x="854" y="1186" on="0"/>
        <pt x="824" y="1280" on="0"/>
        <pt x="759" y="1346" on="0"/>
        <pt x="655" y="1380" on="0"/>
        <pt x="582" y="1380" on="1"/>
        <pt x="496" y="1380" on="0"/>
        <pt x="387" y="1330" on="0"/>
        <pt x="325" y="1246" on="0"/>
        <pt x="303" y="1136" on="0"/>
        <pt x="303" y="1075" on="1"/>
        <pt x="266" y="1075" on="0"/>
        <pt x="202" y="1087" on="0"/>
        <pt x="154" y="1118" on="0"/>
        <pt x="127" y="1169" on="0"/>
        <pt x="127" y="1208" on="1"/>
        <pt x="127" y="1267" on="0"/>
        <pt x="185" y="1368" on="0"/>
        <pt x="300" y="1441" on="0"/>
        <pt x="470" y="1483" on="0"/>
        <pt x="582" y="1483" on="1"/>
        <pt x="689" y="1483" on="0"/>
        <pt x="868" y="1443" on="0"/>
        <pt x="997" y="1359" on="0"/>
        <pt x="1069" y="1230" on="0"/>
        <pt x="1069" y="1141" on="1"/>
        <pt x="1069" y="1061" on="0"/>
        <pt x="1017" y="939" on="0"/>
        <pt x="928" y="849" on="0"/>
        <pt x="808" y="790" on="0"/>
        <pt x="739" y="774" on="1"/>
        <pt x="739" y="764" on="1"/>
        <pt x="796" y="757" on="0"/>
        <pt x="926" y="721" on="0"/>
        <pt x="1037" y="644" on="0"/>
        <pt x="1110" y="516" on="0"/>
        <pt x="1110" y="418" on="1"/>
        <pt x="1110" y="299" on="0"/>
        <pt x="1021" y="132" on="0"/>
        <pt x="870" y="26" on="0"/>
        <pt x="671" y="-23" on="0"/>
        <pt x="561" y="-23" on="1"/>
        <pt x="431" y="-23" on="0"/>
        <pt x="252" y="24" on="0"/>
        <pt x="141" y="97" on="0"/>
        <pt x="92" y="187" on="0"/>
        <pt x="92" y="231" on="1"/>
        <pt x="92" y="307" on="0"/>
        <pt x="184" y="383" on="0"/>
        <pt x="264" y="383" on="1"/>
        <pt x="264" y="329" on="0"/>
        <pt x="299" y="224" on="0"/>
        <pt x="371" y="141" on="0"/>
        <pt x="482" y="90" on="0"/>
      </contour>
    </TTGlyph>
    <TTGlyph name="afii10026" xMin="78" yMin="0" xMax="1567" yMax="1462">
      <contour>
        <pt x="971" y="0" on="1"/>
        <pt x="971" y="86" on="1"/>
        <pt x="997" y="86" on="1"/>
        <pt x="1032" y="86" on="0"/>
        <pt x="1093" y="96" on="0"/>
        <pt x="1139" y="127" on="0"/>
        <pt x="1165" y="185" on="0"/>
        <pt x="1165" y="233" on="1"/>
        <pt x="1165" y="1044" on="1"/>
        <pt x="479" y="274" on="1"/>
        <pt x="479" y="233" on="1"/>
        <pt x="479" y="185" on="0"/>
        <pt x="506" y="127" on="0"/>
        <pt x="551" y="96" on="0"/>
        <pt x="613" y="86" on="0"/>
        <pt x="647" y="86" on="1"/>
        <pt x="674" y="86" on="1"/>
        <pt x="674" y="0" on="1"/>
        <pt x="78" y="0" on="1"/>
        <pt x="78" y="86" on="1"/>
        <pt x="104" y="86" on="1"/>
        <pt x="139" y="86" on="0"/>
        <pt x="200" y="96" on="0"/>
        <pt x="246" y="127" on="0"/>
        <pt x="272" y="185" on="0"/>
        <pt x="272" y="233" on="1"/>
        <pt x="272" y="1237" on="1"/>
        <pt x="272" y="1282" on="0"/>
        <pt x="245" y="1337" on="0"/>
        <pt x="199" y="1367" on="0"/>
        <pt x="138" y="1376" on="0"/>
        <pt x="104" y="1376" on="1"/>
        <pt x="78" y="1376" on="1"/>
        <pt x="78" y="1462" on="1"/>
        <pt x="674" y="1462" on="1"/>
        <pt x="674" y="1376" on="1"/>
        <pt x="647" y="1376" on="1"/>
        <pt x="613" y="1376" on="0"/>
        <pt x="551" y="1366" on="0"/>
        <pt x="506" y="1335" on="0"/>
        <pt x="479" y="1277" on="0"/>
        <pt x="479" y="1229" on="1"/>
        <pt x="479" y="418" on="1"/>
        <pt x="1165" y="1188" on="1"/>
        <pt x="1165" y="1229" on="1"/>
        <pt x="1165" y="1277" on="0"/>
        <pt x="1139" y="1335" on="0"/>
        <pt x="1093" y="1366" on="0"/>
        <pt x="1032" y="1376" on="0"/>
        <pt x="997" y="1376" on="1"/>
        <pt x="971" y="1376" on="1"/>
        <pt x="971" y="1462" on="1"/>
        <pt x="1567" y="1462" on="1"/>
        <pt x="1567" y="1376" on="1"/>
        <pt x="1540" y="1376" on="1"/>
        <pt x="1506" y="1376" on="0"/>
        <pt x="1444" y="1366" on="0"/>
        <pt x="1399" y="1335" on="0"/>
        <pt x="1372" y="1277" on="0"/>
        <pt x="1372" y="1229" on="1"/>
        <pt x="1372" y="223" on="1"/>
        <pt x="1372" y="178" on="0"/>
        <pt x="1399" y="123" on="0"/>
        <pt x="1445" y="95" on="0"/>
        <pt x="1506" y="86" on="0"/>
        <pt x="1540" y="86" on="1"/>
        <pt x="1567" y="86" on="1"/>
        <pt x="1567" y="0" on="1"/>
      </contour>
    </TTGlyph>
    <TTGlyph name="afii10027" xMin="78" yMin="0" xMax="1567" yMax="1856">
      <component glyphName="afii10026" x="0" y="0" flags="0x204"/>
      <component glyphName="glyph00566" x="233" y="338" flags="0x4"/>
    </TTGlyph>
    <TTGlyph name="afii10028" xMin="78" yMin="0" xMax="1403" yMax="1475">
      <contour>
        <pt x="1354" y="1346" on="1"/>
        <pt x="1354" y="1317" on="0"/>
        <pt x="1338" y="1269" on="0"/>
        <pt x="1310" y="1234" on="0"/>
        <pt x="1275" y="1212" on="0"/>
        <pt x="1255" y="1208" on="1"/>
        <pt x="1251" y="1231" on="0"/>
        <pt x="1233" y="1273" on="0"/>
        <pt x="1204" y="1305" on="0"/>
        <pt x="1162" y="1323" on="0"/>
        <pt x="1135" y="1323" on="1"/>
        <pt x="1075" y="1323" on="0"/>
        <pt x="966" y="1205" on="0"/>
        <pt x="903" y="1081" on="1"/>
        <pt x="871" y="1018" on="0"/>
        <pt x="822" y="922" on="0"/>
        <pt x="780" y="849" on="0"/>
        <pt x="741" y="795" on="0"/>
        <pt x="717" y="774" on="1"/>
        <pt x="771" y="772" on="0"/>
        <pt x="848" y="747" on="0"/>
        <pt x="906" y="703" on="0"/>
        <pt x="952" y="638" on="0"/>
        <pt x="975" y="596" on="1"/>
        <pt x="1167" y="250" on="1"/>
        <pt x="1215" y="163" on="0"/>
        <pt x="1328" y="86" on="0"/>
        <pt x="1397" y="86" on="1"/>
        <pt x="1403" y="86" on="1"/>
        <pt x="1403" y="0" on="1"/>
        <pt x="1374" y="0" on="1"/>
        <pt x="1276" y="0" on="0"/>
        <pt x="1146" y="16" on="0"/>
        <pt x="1058" y="59" on="0"/>
        <pt x="996" y="134" on="0"/>
        <pt x="965" y="193" on="1"/>
        <pt x="778" y="549" on="1"/>
        <pt x="754" y="595" on="0"/>
        <pt x="708" y="650" on="0"/>
        <pt x="645" y="679" on="0"/>
        <pt x="551" y="688" on="0"/>
        <pt x="479" y="688" on="1"/>
        <pt x="479" y="233" on="1"/>
        <pt x="479" y="185" on="0"/>
        <pt x="506" y="127" on="0"/>
        <pt x="551" y="96" on="0"/>
        <pt x="613" y="86" on="0"/>
        <pt x="647" y="86" on="1"/>
        <pt x="674" y="86" on="1"/>
        <pt x="674" y="0" on="1"/>
        <pt x="78" y="0" on="1"/>
        <pt x="78" y="86" on="1"/>
        <pt x="104" y="86" on="1"/>
        <pt x="138" y="86" on="0"/>
        <pt x="199" y="95" on="0"/>
        <pt x="245" y="123" on="0"/>
        <pt x="272" y="178" on="0"/>
        <pt x="272" y="223" on="1"/>
        <pt x="272" y="1237" on="1"/>
        <pt x="272" y="1282" on="0"/>
        <pt x="245" y="1337" on="0"/>
        <pt x="199" y="1367" on="0"/>
        <pt x="138" y="1376" on="0"/>
        <pt x="104" y="1376" on="1"/>
        <pt x="78" y="1376" on="1"/>
        <pt x="78" y="1462" on="1"/>
        <pt x="674" y="1462" on="1"/>
        <pt x="674" y="1376" on="1"/>
        <pt x="647" y="1376" on="1"/>
        <pt x="613" y="1376" on="0"/>
        <pt x="551" y="1366" on="0"/>
        <pt x="506" y="1335" on="0"/>
        <pt x="479" y="1277" on="0"/>
        <pt x="479" y="1229" on="1"/>
        <pt x="479" y="782" on="1"/>
        <pt x="527" y="782" on="0"/>
        <pt x="587" y="789" on="0"/>
        <pt x="626" y="804" on="0"/>
        <pt x="651" y="828" on="0"/>
        <pt x="664" y="844" on="1"/>
        <pt x="690" y="876" on="0"/>
        <pt x="766" y="1028" on="0"/>
        <pt x="823" y="1141" on="1"/>
        <pt x="862" y="1218" on="0"/>
        <pt x="941" y="1341" on="0"/>
        <pt x="1028" y="1428" on="0"/>
        <pt x="1128" y="1475" on="0"/>
        <pt x="1188" y="1475" on="1"/>
        <pt x="1233" y="1475" on="0"/>
        <pt x="1297" y="1455" on="0"/>
        <pt x="1336" y="1421" on="0"/>
        <pt x="1354" y="1373" on="0"/>
      </contour>
    </TTGlyph>
    <TTGlyph name="afii10029" xMin="0" yMin="-14" xMax="1360" yMax="1462">
      <contour>
        <pt x="164" y="-14" on="1"/>
        <pt x="82" y="-14" on="0"/>
        <pt x="0" y="61" on="0"/>
        <pt x="0" y="129" on="1"/>
        <pt x="0" y="182" on="0"/>
        <pt x="48" y="254" on="0"/>
        <pt x="90" y="254" on="1"/>
        <pt x="90" y="240" on="0"/>
        <pt x="102" y="207" on="0"/>
        <pt x="127" y="178" on="0"/>
        <pt x="165" y="158" on="0"/>
        <pt x="190" y="158" on="1"/>
        <pt x="218" y="158" on="0"/>
        <pt x="270" y="175" on="0"/>
        <pt x="320" y="235" on="0"/>
        <pt x="369" y="349" on="0"/>
        <pt x="395" y="446" on="1"/>
        <pt x="413" y="512" on="0"/>
        <pt x="443" y="668" on="0"/>
        <pt x="468" y="832" on="0"/>
        <pt x="487" y="993" on="0"/>
        <pt x="500" y="1137" on="0"/>
        <pt x="506" y="1255" on="0"/>
        <pt x="506" y="1292" on="1"/>
        <pt x="506" y="1320" on="0"/>
        <pt x="480" y="1354" on="0"/>
        <pt x="435" y="1371" on="0"/>
        <pt x="376" y="1376" on="0"/>
        <pt x="342" y="1376" on="1"/>
        <pt x="311" y="1376" on="1"/>
        <pt x="311" y="1462" on="1"/>
        <pt x="1360" y="1462" on="1"/>
        <pt x="1360" y="1376" on="1"/>
        <pt x="1333" y="1376" on="1"/>
        <pt x="1298" y="1376" on="0"/>
        <pt x="1237" y="1366" on="0"/>
        <pt x="1192" y="1335" on="0"/>
        <pt x="1165" y="1277" on="0"/>
        <pt x="1165" y="1229" on="1"/>
        <pt x="1165" y="233" on="1"/>
        <pt x="1165" y="185" on="0"/>
        <pt x="1192" y="127" on="0"/>
        <pt x="1237" y="96" on="0"/>
        <pt x="1298" y="86" on="0"/>
        <pt x="1333" y="86" on="1"/>
        <pt x="1360" y="86" on="1"/>
        <pt x="1360" y="0" on="1"/>
        <pt x="764" y="0" on="1"/>
        <pt x="764" y="86" on="1"/>
        <pt x="791" y="86" on="1"/>
        <pt x="825" y="86" on="0"/>
        <pt x="886" y="96" on="0"/>
        <pt x="932" y="127" on="0"/>
        <pt x="958" y="185" on="0"/>
        <pt x="958" y="233" on="1"/>
        <pt x="958" y="1360" on="1"/>
        <pt x="625" y="1360" on="1"/>
        <pt x="619" y="1232" on="0"/>
        <pt x="593" y="951" on="0"/>
        <pt x="556" y="674" on="0"/>
        <pt x="507" y="419" on="0"/>
        <pt x="477" y="317" on="1"/>
        <pt x="449" y="224" on="0"/>
        <pt x="388" y="97" on="0"/>
        <pt x="313" y="19" on="0"/>
        <pt x="221" y="-14" on="0"/>
      </contour>
    </TTGlyph>
    <TTGlyph name="afii10030" xMin="78" yMin="0" xMax="1843" yMax="1462">
      <component glyphName="M" x="0" y="0" flags="0x204"/>
    </TTGlyph>
    <TTGlyph name="afii10031" xMin="78" yMin="0" xMax="1546" yMax="1462">
      <component glyphName="H" x="0" y="0" flags="0x204"/>
    </TTGlyph>
    <TTGlyph name="afii10032" xMin="115" yMin="-20" xMax="1403" yMax="1485">
      <component glyphName="O" x="0" y="0" flags="0x204"/>
    </TTGlyph>
    <TTGlyph name="afii10033" xMin="78" yMin="0" xMax="1485" yMax="1462">
      <component glyphName="Pi" x="0" y="0" flags="0x204"/>
    </TTGlyph>
    <TTGlyph name="afii10034" xMin="78" yMin="0" xMax="1157" yMax="1462">
      <component glyphName="P" x="0" y="0" flags="0x204"/>
    </TTGlyph>
    <TTGlyph name="afii10035" xMin="117" yMin="-20" xMax="1188" yMax="1483">
      <component glyphName="C" x="0" y="0" flags="0x204"/>
    </TTGlyph>
    <TTGlyph name="afii10036" xMin="41" yMin="0" xMax="1214" yMax="1462">
      <component glyphName="T" x="0" y="0" flags="0x204"/>
    </TTGlyph>
    <TTGlyph name="afii10037" xMin="0" yMin="0" xMax="1382" yMax="1462">
      <contour>
        <pt x="1382" y="1376" on="1"/>
        <pt x="1343" y="1376" on="1"/>
        <pt x="1313" y="1376" on="0"/>
        <pt x="1272" y="1363" on="0"/>
        <pt x="1239" y="1327" on="0"/>
        <pt x="1208" y="1265" on="0"/>
        <pt x="1188" y="1217" on="1"/>
        <pt x="842" y="375" on="1"/>
        <pt x="809" y="295" on="0"/>
        <pt x="751" y="176" on="0"/>
        <pt x="692" y="93" on="0"/>
        <pt x="625" y="40" on="0"/>
        <pt x="539" y="11" on="0"/>
        <pt x="429" y="0" on="0"/>
        <pt x="356" y="0" on="1"/>
        <pt x="207" y="0" on="1"/>
        <pt x="207" y="96" on="1"/>
        <pt x="319" y="96" on="1"/>
        <pt x="371" y="96" on="0"/>
        <pt x="470" y="126" on="0"/>
        <pt x="555" y="181" on="0"/>
        <pt x="620" y="257" on="0"/>
        <pt x="637" y="303" on="1"/>
        <pt x="172" y="1268" on="1"/>
        <pt x="157" y="1299" on="0"/>
        <pt x="131" y="1340" on="0"/>
        <pt x="98" y="1365" on="0"/>
        <pt x="57" y="1376" on="0"/>
        <pt x="27" y="1376" on="1"/>
        <pt x="0" y="1376" on="1"/>
        <pt x="0" y="1462" on="1"/>
        <pt x="573" y="1462" on="1"/>
        <pt x="573" y="1376" on="1"/>
        <pt x="541" y="1376" on="1"/>
        <pt x="479" y="1376" on="0"/>
        <pt x="418" y="1329" on="0"/>
        <pt x="418" y="1278" on="1"/>
        <pt x="418" y="1261" on="0"/>
        <pt x="426" y="1225" on="0"/>
        <pt x="434" y="1202" on="1"/>
        <pt x="659" y="717" on="1"/>
        <pt x="694" y="645" on="0"/>
        <pt x="745" y="501" on="0"/>
        <pt x="762" y="438" on="1"/>
        <pt x="769" y="470" on="0"/>
        <pt x="788" y="532" on="0"/>
        <pt x="811" y="596" on="0"/>
        <pt x="839" y="667" on="0"/>
        <pt x="856" y="709" on="1"/>
        <pt x="1049" y="1188" on="1"/>
        <pt x="1058" y="1213" on="0"/>
        <pt x="1067" y="1259" on="0"/>
        <pt x="1067" y="1276" on="1"/>
        <pt x="1067" y="1329" on="0"/>
        <pt x="1000" y="1376" on="0"/>
        <pt x="932" y="1376" on="1"/>
        <pt x="889" y="1376" on="1"/>
        <pt x="889" y="1462" on="1"/>
        <pt x="1382" y="1462" on="1"/>
      </contour>
    </TTGlyph>
    <TTGlyph name="afii10038" xMin="68" yMin="0" xMax="1497" yMax="1462">
      <component glyphName="Phi" x="0" y="0" flags="0x204"/>
    </TTGlyph>
    <TTGlyph name="afii10039" xMin="16" yMin="0" xMax="1335" yMax="1462">
      <component glyphName="X" x="0" y="0" flags="0x204"/>
    </TTGlyph>
    <TTGlyph name="afii10040" xMin="78" yMin="-430" xMax="1499" yMax="1462">
      <contour>
        <pt x="1405" y="-430" on="1"/>
        <pt x="1405" y="-316" on="0"/>
        <pt x="1363" y="-154" on="0"/>
        <pt x="1282" y="-49" on="0"/>
        <pt x="1165" y="0" on="0"/>
        <pt x="1090" y="0" on="1"/>
        <pt x="78" y="0" on="1"/>
        <pt x="78" y="86" on="1"/>
        <pt x="104" y="86" on="1"/>
        <pt x="138" y="86" on="0"/>
        <pt x="199" y="95" on="0"/>
        <pt x="245" y="125" on="0"/>
        <pt x="272" y="180" on="0"/>
        <pt x="272" y="225" on="1"/>
        <pt x="272" y="1229" on="1"/>
        <pt x="272" y="1277" on="0"/>
        <pt x="246" y="1335" on="0"/>
        <pt x="200" y="1366" on="0"/>
        <pt x="139" y="1376" on="0"/>
        <pt x="104" y="1376" on="1"/>
        <pt x="78" y="1376" on="1"/>
        <pt x="78" y="1462" on="1"/>
        <pt x="674" y="1462" on="1"/>
        <pt x="674" y="1376" on="1"/>
        <pt x="647" y="1376" on="1"/>
        <pt x="613" y="1376" on="0"/>
        <pt x="551" y="1366" on="0"/>
        <pt x="506" y="1335" on="0"/>
        <pt x="479" y="1277" on="0"/>
        <pt x="479" y="1229" on="1"/>
        <pt x="479" y="102" on="1"/>
        <pt x="1083" y="102" on="1"/>
        <pt x="1083" y="1229" on="1"/>
        <pt x="1083" y="1277" on="0"/>
        <pt x="1057" y="1335" on="0"/>
        <pt x="1011" y="1366" on="0"/>
        <pt x="950" y="1376" on="0"/>
        <pt x="915" y="1376" on="1"/>
        <pt x="889" y="1376" on="1"/>
        <pt x="889" y="1462" on="1"/>
        <pt x="1485" y="1462" on="1"/>
        <pt x="1485" y="1376" on="1"/>
        <pt x="1458" y="1376" on="1"/>
        <pt x="1424" y="1376" on="0"/>
        <pt x="1363" y="1367" on="0"/>
        <pt x="1317" y="1339" on="0"/>
        <pt x="1290" y="1284" on="0"/>
        <pt x="1290" y="1239" on="1"/>
        <pt x="1290" y="233" on="1"/>
        <pt x="1290" y="185" on="0"/>
        <pt x="1317" y="127" on="0"/>
        <pt x="1362" y="96" on="0"/>
        <pt x="1424" y="86" on="0"/>
        <pt x="1458" y="86" on="1"/>
        <pt x="1499" y="86" on="1"/>
        <pt x="1499" y="-430" on="1"/>
      </contour>
    </TTGlyph>
    <TTGlyph name="afii10041" xMin="43" yMin="0" xMax="1470" yMax="1462">
      <contour>
        <pt x="1069" y="664" on="1"/>
        <pt x="1014" y="637" on="0"/>
        <pt x="914" y="591" on="0"/>
        <pt x="809" y="556" on="0"/>
        <pt x="691" y="537" on="0"/>
        <pt x="618" y="537" on="1"/>
        <pt x="430" y="537" on="0"/>
        <pt x="238" y="722" on="0"/>
        <pt x="238" y="907" on="1"/>
        <pt x="238" y="1237" on="1"/>
        <pt x="238" y="1282" on="0"/>
        <pt x="211" y="1337" on="0"/>
        <pt x="165" y="1367" on="0"/>
        <pt x="104" y="1376" on="0"/>
        <pt x="70" y="1376" on="1"/>
        <pt x="43" y="1376" on="1"/>
        <pt x="43" y="1462" on="1"/>
        <pt x="639" y="1462" on="1"/>
        <pt x="639" y="1376" on="1"/>
        <pt x="612" y="1376" on="1"/>
        <pt x="578" y="1376" on="0"/>
        <pt x="516" y="1366" on="0"/>
        <pt x="471" y="1335" on="0"/>
        <pt x="444" y="1277" on="0"/>
        <pt x="444" y="1229" on="1"/>
        <pt x="444" y="909" on="1"/>
        <pt x="444" y="784" on="0"/>
        <pt x="572" y="668" on="0"/>
        <pt x="684" y="668" on="1"/>
        <pt x="735" y="668" on="0"/>
        <pt x="827" y="682" on="0"/>
        <pt x="920" y="709" on="0"/>
        <pt x="1015" y="749" on="0"/>
        <pt x="1069" y="774" on="1"/>
        <pt x="1069" y="1229" on="1"/>
        <pt x="1069" y="1277" on="0"/>
        <pt x="1042" y="1335" on="0"/>
        <pt x="997" y="1366" on="0"/>
        <pt x="936" y="1376" on="0"/>
        <pt x="901" y="1376" on="1"/>
        <pt x="874" y="1376" on="1"/>
        <pt x="874" y="1462" on="1"/>
        <pt x="1470" y="1462" on="1"/>
        <pt x="1470" y="1376" on="1"/>
        <pt x="1444" y="1376" on="1"/>
        <pt x="1410" y="1376" on="0"/>
        <pt x="1348" y="1366" on="0"/>
        <pt x="1303" y="1335" on="0"/>
        <pt x="1276" y="1277" on="0"/>
        <pt x="1276" y="1229" on="1"/>
        <pt x="1276" y="223" on="1"/>
        <pt x="1276" y="178" on="0"/>
        <pt x="1303" y="123" on="0"/>
        <pt x="1349" y="95" on="0"/>
        <pt x="1410" y="86" on="0"/>
        <pt x="1444" y="86" on="1"/>
        <pt x="1470" y="86" on="1"/>
        <pt x="1470" y="0" on="1"/>
        <pt x="874" y="0" on="1"/>
        <pt x="874" y="86" on="1"/>
        <pt x="901" y="86" on="1"/>
        <pt x="936" y="86" on="0"/>
        <pt x="997" y="96" on="0"/>
        <pt x="1042" y="127" on="0"/>
        <pt x="1069" y="185" on="0"/>
        <pt x="1069" y="233" on="1"/>
      </contour>
    </TTGlyph>
    <TTGlyph name="afii10042" xMin="78" yMin="0" xMax="2132" yMax="1462">
      <contour>
        <pt x="1731" y="102" on="1"/>
        <pt x="1731" y="1229" on="1"/>
        <pt x="1731" y="1277" on="0"/>
        <pt x="1704" y="1335" on="0"/>
        <pt x="1659" y="1366" on="0"/>
        <pt x="1598" y="1376" on="0"/>
        <pt x="1563" y="1376" on="1"/>
        <pt x="1536" y="1376" on="1"/>
        <pt x="1536" y="1462" on="1"/>
        <pt x="2132" y="1462" on="1"/>
        <pt x="2132" y="1376" on="1"/>
        <pt x="2105" y="1376" on="1"/>
        <pt x="2071" y="1376" on="0"/>
        <pt x="2009" y="1366" on="0"/>
        <pt x="1964" y="1335" on="0"/>
        <pt x="1937" y="1277" on="0"/>
        <pt x="1937" y="1229" on="1"/>
        <pt x="1937" y="225" on="1"/>
        <pt x="1937" y="180" on="0"/>
        <pt x="1964" y="125" on="0"/>
        <pt x="2010" y="95" on="0"/>
        <pt x="2071" y="86" on="0"/>
        <pt x="2105" y="86" on="1"/>
        <pt x="2132" y="86" on="1"/>
        <pt x="2132" y="0" on="1"/>
        <pt x="78" y="0" on="1"/>
        <pt x="78" y="86" on="1"/>
        <pt x="104" y="86" on="1"/>
        <pt x="138" y="86" on="0"/>
        <pt x="199" y="95" on="0"/>
        <pt x="245" y="125" on="0"/>
        <pt x="272" y="180" on="0"/>
        <pt x="272" y="225" on="1"/>
        <pt x="272" y="1229" on="1"/>
        <pt x="272" y="1277" on="0"/>
        <pt x="246" y="1335" on="0"/>
        <pt x="200" y="1366" on="0"/>
        <pt x="139" y="1376" on="0"/>
        <pt x="104" y="1376" on="1"/>
        <pt x="78" y="1376" on="1"/>
        <pt x="78" y="1462" on="1"/>
        <pt x="674" y="1462" on="1"/>
        <pt x="674" y="1376" on="1"/>
        <pt x="647" y="1376" on="1"/>
        <pt x="613" y="1376" on="0"/>
        <pt x="551" y="1366" on="0"/>
        <pt x="506" y="1335" on="0"/>
        <pt x="479" y="1277" on="0"/>
        <pt x="479" y="1229" on="1"/>
        <pt x="479" y="102" on="1"/>
        <pt x="1001" y="102" on="1"/>
        <pt x="1001" y="1237" on="1"/>
        <pt x="1001" y="1279" on="0"/>
        <pt x="978" y="1333" on="0"/>
        <pt x="937" y="1364" on="0"/>
        <pt x="884" y="1376" on="0"/>
        <pt x="854" y="1376" on="1"/>
        <pt x="848" y="1376" on="1"/>
        <pt x="848" y="1462" on="1"/>
        <pt x="1362" y="1462" on="1"/>
        <pt x="1362" y="1376" on="1"/>
        <pt x="1356" y="1376" on="1"/>
        <pt x="1325" y="1376" on="0"/>
        <pt x="1270" y="1364" on="0"/>
        <pt x="1231" y="1331" on="0"/>
        <pt x="1208" y="1274" on="0"/>
        <pt x="1208" y="1229" on="1"/>
        <pt x="1208" y="102" on="1"/>
      </contour>
    </TTGlyph>
    <TTGlyph name="afii10043" xMin="78" yMin="-430" xMax="2146" yMax="1462">
      <contour>
        <pt x="2146" y="-430" on="1"/>
        <pt x="2052" y="-430" on="1"/>
        <pt x="2052" y="-213" on="0"/>
        <pt x="1894" y="0" on="0"/>
        <pt x="1751" y="0" on="1"/>
        <pt x="78" y="0" on="1"/>
        <pt x="78" y="86" on="1"/>
        <pt x="104" y="86" on="1"/>
        <pt x="138" y="86" on="0"/>
        <pt x="199" y="95" on="0"/>
        <pt x="245" y="125" on="0"/>
        <pt x="272" y="180" on="0"/>
        <pt x="272" y="225" on="1"/>
        <pt x="272" y="1229" on="1"/>
        <pt x="272" y="1277" on="0"/>
        <pt x="246" y="1335" on="0"/>
        <pt x="200" y="1366" on="0"/>
        <pt x="139" y="1376" on="0"/>
        <pt x="104" y="1376" on="1"/>
        <pt x="78" y="1376" on="1"/>
        <pt x="78" y="1462" on="1"/>
        <pt x="674" y="1462" on="1"/>
        <pt x="674" y="1376" on="1"/>
        <pt x="647" y="1376" on="1"/>
        <pt x="613" y="1376" on="0"/>
        <pt x="551" y="1366" on="0"/>
        <pt x="506" y="1335" on="0"/>
        <pt x="479" y="1277" on="0"/>
        <pt x="479" y="1229" on="1"/>
        <pt x="479" y="102" on="1"/>
        <pt x="1001" y="102" on="1"/>
        <pt x="1001" y="1237" on="1"/>
        <pt x="1001" y="1279" on="0"/>
        <pt x="978" y="1333" on="0"/>
        <pt x="937" y="1364" on="0"/>
        <pt x="884" y="1376" on="0"/>
        <pt x="854" y="1376" on="1"/>
        <pt x="848" y="1376" on="1"/>
        <pt x="848" y="1462" on="1"/>
        <pt x="1362" y="1462" on="1"/>
        <pt x="1362" y="1376" on="1"/>
        <pt x="1356" y="1376" on="1"/>
        <pt x="1325" y="1376" on="0"/>
        <pt x="1270" y="1364" on="0"/>
        <pt x="1231" y="1331" on="0"/>
        <pt x="1208" y="1274" on="0"/>
        <pt x="1208" y="1229" on="1"/>
        <pt x="1208" y="102" on="1"/>
        <pt x="1731" y="102" on="1"/>
        <pt x="1731" y="1229" on="1"/>
        <pt x="1731" y="1277" on="0"/>
        <pt x="1704" y="1335" on="0"/>
        <pt x="1659" y="1366" on="0"/>
        <pt x="1598" y="1376" on="0"/>
        <pt x="1563" y="1376" on="1"/>
        <pt x="1536" y="1376" on="1"/>
        <pt x="1536" y="1462" on="1"/>
        <pt x="2132" y="1462" on="1"/>
        <pt x="2132" y="1376" on="1"/>
        <pt x="2105" y="1376" on="1"/>
        <pt x="2071" y="1376" on="0"/>
        <pt x="2009" y="1366" on="0"/>
        <pt x="1964" y="1335" on="0"/>
        <pt x="1937" y="1277" on="0"/>
        <pt x="1937" y="1229" on="1"/>
        <pt x="1937" y="233" on="1"/>
        <pt x="1937" y="185" on="0"/>
        <pt x="1964" y="127" on="0"/>
        <pt x="2009" y="96" on="0"/>
        <pt x="2071" y="86" on="0"/>
        <pt x="2105" y="86" on="1"/>
        <pt x="2146" y="86" on="1"/>
      </contour>
    </TTGlyph>
    <TTGlyph name="afii10044" xMin="41" yMin="0" xMax="1366" yMax="1462">
      <contour>
        <pt x="924" y="1462" on="1"/>
        <pt x="924" y="1376" on="1"/>
        <pt x="856" y="1376" on="1"/>
        <pt x="822" y="1376" on="0"/>
        <pt x="761" y="1367" on="0"/>
        <pt x="715" y="1339" on="0"/>
        <pt x="688" y="1284" on="0"/>
        <pt x="688" y="1239" on="1"/>
        <pt x="688" y="809" on="1"/>
        <pt x="817" y="809" on="1"/>
        <pt x="965" y="809" on="0"/>
        <pt x="1174" y="750" on="0"/>
        <pt x="1306" y="643" on="0"/>
        <pt x="1366" y="495" on="0"/>
        <pt x="1366" y="406" on="1"/>
        <pt x="1366" y="316" on="0"/>
        <pt x="1305" y="167" on="0"/>
        <pt x="1181" y="59" on="0"/>
        <pt x="991" y="0" on="0"/>
        <pt x="862" y="0" on="1"/>
        <pt x="287" y="0" on="1"/>
        <pt x="287" y="86" on="1"/>
        <pt x="313" y="86" on="1"/>
        <pt x="347" y="86" on="0"/>
        <pt x="408" y="95" on="0"/>
        <pt x="454" y="125" on="0"/>
        <pt x="481" y="180" on="0"/>
        <pt x="481" y="225" on="1"/>
        <pt x="481" y="1360" on="1"/>
        <pt x="326" y="1360" on="1"/>
        <pt x="281" y="1360" on="0"/>
        <pt x="220" y="1333" on="0"/>
        <pt x="181" y="1287" on="0"/>
        <pt x="162" y="1226" on="0"/>
        <pt x="158" y="1192" on="1"/>
        <pt x="147" y="1104" on="1"/>
        <pt x="41" y="1104" on="1"/>
        <pt x="51" y="1462" on="1"/>
      </contour>
      <contour>
        <pt x="688" y="98" on="1"/>
        <pt x="827" y="98" on="1"/>
        <pt x="914" y="98" on="0"/>
        <pt x="1035" y="135" on="0"/>
        <pt x="1111" y="208" on="0"/>
        <pt x="1145" y="320" on="0"/>
        <pt x="1145" y="395" on="1"/>
        <pt x="1145" y="481" on="0"/>
        <pt x="1106" y="602" on="0"/>
        <pt x="1022" y="678" on="0"/>
        <pt x="890" y="713" on="0"/>
        <pt x="797" y="713" on="1"/>
        <pt x="688" y="713" on="1"/>
      </contour>
    </TTGlyph>
</ttFont>
